<?xml version="1.0" encoding="UTF-8"?>
<svg version="1.1" xmlns="http://www.w3.org/2000/svg" width="480" height="480">
<path d="M0 0 C0.62003906 0.3403125 1.24007812 0.680625 1.87890625 1.03125 C7.14876301 3.91548019 12.43628557 6.75985778 17.75 9.5625 C25.37254846 13.59737832 32.8646718 17.85720885 40.3503418 22.13964844 C45.62443538 25.14393972 50.9302707 28.00554228 56.36376953 30.7097168 C69.03623956 37.06565141 69.03623956 37.06565141 72 44 C73.09268919 47.79227426 73.52182453 49.79787091 71.9453125 53.4296875 C69.42392843 56.7611548 66.40581712 58.46123831 62.8125 60.4375 C61.28642389 61.3085334 59.76038443 62.17963103 58.234375 63.05078125 C57.40228516 63.5195166 56.57019531 63.98825195 55.71289062 64.47119141 C50.64588363 67.32662678 45.60238481 70.22204196 40.5625 73.125 C39.07230347 73.96695923 39.07230347 73.96695923 37.55200195 74.82592773 C30.85567449 78.67884679 24.89525065 83.01331706 19 88 C18.06027344 88.77988281 17.12054688 89.55976563 16.15234375 90.36328125 C-10.80164661 114.08469429 -29.06537002 151.12918232 -31.8125 186.9375 C-32.68860545 202.16911301 -30.20248398 217.43870584 -21.5625 230.2578125 C-20.08538054 232.12094861 -20.08538054 232.12094861 -17.875 233.0546875 C-16 234 -16 234 -15 237 C-4.70040028 244.14190351 6.96242251 244.74918563 19 243 C20.36387423 242.66200674 21.72138196 242.29427887 23.0625 241.875 C26.11195311 240.96665226 27.07935428 241.10810389 30 242 C24.83997266 245.3024175 19.59317636 248.40121518 14.26342773 251.42163086 C9.18494732 254.30660775 4.14323278 257.25193905 -0.89501953 260.20654297 C-16.6029532 269.4104671 -16.6029532 269.4104671 -23.625 273.3125 C-24.54539062 273.82425781 -25.46578125 274.33601563 -26.4140625 274.86328125 C-30.91314587 276.840975 -33.96819541 277.31478784 -38.6875 275.875 C-42.46679503 273.7357764 -43.30803326 272.94416247 -45 269 C-45.43723809 265.31802585 -45.41704845 261.65749634 -45.40625 257.953125 C-45.41708618 256.8685199 -45.42792236 255.78391479 -45.43908691 254.66644287 C-45.47332161 251.19423552 -45.48891238 247.72235366 -45.5 244.25 C-45.55772912 226.5020596 -45.61609453 209.19639504 -51.5625 192.25 C-51.93713379 191.16174927 -51.93713379 191.16174927 -52.31933594 190.05151367 C-59.8906291 168.89893339 -71.00232191 150.61964921 -86 134 C-86.71542969 133.20078125 -87.43085938 132.4015625 -88.16796875 131.578125 C-103.09776842 115.77998802 -122.27064895 104.71949488 -144.25390625 103.875 C-154.34625166 104.29606265 -163.92058642 107.95988117 -171.25390625 114.98828125 C-178.24776108 123.04607821 -181.88218898 132.49257643 -183 143 C-183.99 143 -184.98 143 -186 143 C-186.09293927 134.27213876 -186.16388558 125.54444953 -186.20724869 116.81620026 C-186.22806754 112.76270489 -186.25627957 108.70954966 -186.30175781 104.65625 C-186.34542098 100.7399311 -186.36917994 96.82393806 -186.37950897 92.90739441 C-186.38686386 91.41793188 -186.40122599 89.9284859 -186.42292023 88.43916321 C-186.53500311 80.4211261 -186.61090307 73.85157684 -182 67 C-179.20513483 64.50728242 -177.83476045 63.99324992 -174.1015625 64.0234375 C-168.07538984 65.00799307 -162.88405224 68.66925385 -157.6875 71.6875 C-156.07198242 72.60692383 -156.07198242 72.60692383 -154.42382812 73.54492188 C-149.45943475 76.38042942 -144.53353692 79.27090676 -139.64453125 82.234375 C-124.01241262 91.6481923 -107.12543985 96.97560022 -89 99 C-88.00742188 99.11085938 -87.01484375 99.22171875 -85.9921875 99.3359375 C-52.8140447 102.54113667 -18.53261703 96.49806654 8.4296875 76.16796875 C17.49894357 68.67132779 23.94864962 58.43571361 25.8125 46.75 C26.76300145 34.41460335 22.52619096 23.50035924 14.5625 14.1328125 C10.04649286 9.49289053 5.29809195 5.68562918 0 2 C0 1.34 0 0.68 0 0 Z " fill="#0E0E0E" transform="translate(295,114)"/>
<path d="M0 0 C0.33 0 0.66 0 1 0 C1.12425623 5.40763101 1.21464659 10.81441829 1.2746582 16.22314453 C1.29969289 18.06020599 1.33373145 19.89716893 1.37719727 21.73388672 C1.43834037 24.38533927 1.46631957 27.03546734 1.48828125 29.6875 C1.51408768 30.49928711 1.5398941 31.31107422 1.56648254 32.14746094 C1.56940973 38.19479132 -0.06731683 42.36892327 -4 47 C-6.40919651 48.91901148 -8.90480635 50.37527371 -11.625 51.8125 C-13.13672674 52.65753779 -14.64844516 53.50259046 -16.16015625 54.34765625 C-17.34182373 54.99371826 -17.34182373 54.99371826 -18.54736328 55.65283203 C-22.75150716 57.96205619 -26.90520913 60.35781358 -31.0625 62.75 C-32.22096436 63.40319214 -32.22096436 63.40319214 -33.40283203 64.06958008 C-49.37138478 73.19372719 -58.69889191 86.41100005 -64.9453125 103.6015625 C-65.50366557 105.76419764 -65.8178475 107.77457158 -66 110 C-66.07992187 110.93070312 -66.15984375 111.86140625 -66.2421875 112.8203125 C-66.57922195 120.57210486 -65.6638442 128.58183494 -60.5390625 134.76171875 C-56.01681969 138.76746175 -51.42323068 139.38811554 -45.59521484 139.26391602 C-37.2428384 138.41453512 -29.47206092 133.21801593 -22.375 129.0625 C-21.48554688 128.55009766 -20.59609375 128.03769531 -19.6796875 127.50976562 C-14.90258593 124.74536935 -10.19949462 121.90260522 -5.58056641 118.88061523 C-4 118 -4 118 -2 118 C-1.505 116.515 -1.505 116.515 -1 115 C-0.34 115.33 0.32 115.66 1 116 C1.11727273 120.14559093 1.18760933 124.29074862 1.25 128.4375 C1.28351563 129.60216797 1.31703125 130.76683594 1.3515625 131.96679688 C1.44300194 140.0820471 0.82734964 146.94977257 -4.9453125 153.05859375 C-5.66460937 153.51363281 -6.38390625 153.96867188 -7.125 154.4375 C-8.0015625 154.99566406 -8.878125 155.55382812 -9.78125 156.12890625 C-15.2557317 159.31128093 -20.7675664 162.41514726 -26.33203125 165.4375 C-29.34088306 167.0747334 -32.31387719 168.75537312 -35.26171875 170.5 C-49.33122451 178.79821936 -63.21476266 183.93805559 -79.72265625 180.14453125 C-86.75544169 177.68850487 -93.02763779 172.30640555 -97 166 C-107.39777736 143.01248141 -104.03506775 118.35625946 -95.6875 95.1875 C-79.81370443 56.75095098 -55.33998832 32.7387896 -19.30957031 12.74316406 C-9.04407041 7.22743429 -9.04407041 7.22743429 0 0 Z " fill="#0B0B0B" transform="translate(372,171)"/>
<path d="M0 0 C0.86367187 0.6496875 1.72734375 1.299375 2.6171875 1.96875 C6.62329585 5.05951608 10.26065361 8.10020435 13.5 12 C14.325 12.99 15.15 13.98 16 15 C16.66 15 17.32 15 18 15 C18.35384766 16.05767578 18.35384766 16.05767578 18.71484375 17.13671875 C20.23349415 20.52021644 22.21052003 22.94521925 24.5625 25.8125 C42.10149192 48.02154338 51.98097178 75.92802251 52.24609375 104.13671875 C52.27900586 106.51107176 52.31221791 108.88542063 52.34570312 111.25976562 C52.39325184 114.98605753 52.43776017 118.71232957 52.47680664 122.4387207 C52.51643751 126.04655324 52.56797125 129.65406321 52.62109375 133.26171875 C52.63371498 134.93677742 52.63371498 134.93677742 52.64659119 136.64567566 C52.66323318 137.68387955 52.67987518 138.72208344 52.69702148 139.79174805 C52.71248268 141.15906319 52.71248268 141.15906319 52.72825623 142.55400085 C53.01399747 145.12599298 53.70045414 146.78192918 55 149 C50.74436797 148.40399639 47.70403501 146.90861217 44 144.76171875 C42.865625 144.10623047 41.73125 143.45074219 40.5625 142.77539062 C39.97726563 142.4322583 39.39203125 142.08912598 38.7890625 141.7355957 C37.01005026 140.6933878 35.22444841 139.66329416 33.4375 138.63476562 C17.79444137 129.5422378 17.79444137 129.5422378 15 121 C14.48291711 117.50241467 14.46504065 114.07386809 14.49609375 110.54296875 C14.48667252 109.55935867 14.47725128 108.5757486 14.46754456 107.56233215 C14.43904042 104.43717365 14.43580975 101.31277747 14.4375 98.1875 C14.43387207 95.07304563 14.42410407 91.95914386 14.39674377 88.84480286 C14.38018308 86.91476793 14.37689622 84.98455228 14.38975525 83.05448914 C14.26383199 66.69432203 7.19040559 52.01662509 -4.2265625 40.5703125 C-11.74608679 33.60151393 -19.23652852 29.40108269 -29.7265625 29.6875 C-35.13930968 30.43152023 -38.88136543 32.67530117 -42.375 36.8125 C-45.93140375 43.78852275 -46.27917053 49.82447201 -46.1953125 57.52734375 C-46.19106766 59.01071983 -46.19106766 59.01071983 -46.18673706 60.52406311 C-46.17560142 63.66200195 -46.15050903 66.79964839 -46.125 69.9375 C-46.11496165 72.07356357 -46.1058373 74.20963164 -46.09765625 76.34570312 C-46.0756838 81.56390073 -46.04227254 86.78192946 -46 92 C-51.10964859 90.03781854 -55.74433546 87.50349241 -60.5 84.8125 C-61.34175781 84.35552734 -62.18351563 83.89855469 -63.05078125 83.42773438 C-68.85669165 80.13162304 -73.50138308 76.72799726 -75.6139679 70.06298828 C-76.02490749 67.86689225 -76.13397558 65.83934793 -76.14526367 63.60546875 C-76.15164352 62.74356934 -76.15802338 61.88166992 -76.16459656 60.99365234 C-76.16570938 60.06762207 -76.1668222 59.1415918 -76.16796875 58.1875 C-76.17129715 57.22279785 -76.17462555 56.2580957 -76.17805481 55.26416016 C-76.1831164 53.21989416 -76.18546337 51.17561991 -76.18530273 49.13134766 C-76.18747246 46.03924448 -76.2055898 42.94750804 -76.22460938 39.85546875 C-76.27418479 22.79081729 -75.96788031 6.37410624 -64 -7 C-44.31376609 -25.8303107 -18.61072304 -14.38388086 0 0 Z " fill="#0A0B0B" transform="translate(192,240)"/>
<path d="M0 0 C8.97925557 4.8041877 17.70767204 10.08583016 26.42773438 15.34130859 C28.41886788 16.53829288 30.41728012 17.7203597 32.421875 18.89453125 C42.36939384 24.89395292 49.62360839 32.41302284 54.875 42.8125 C55.25527344 43.54339844 55.63554687 44.27429688 56.02734375 45.02734375 C57.25760622 49.06963471 57.08613859 52.92740014 57 57.125 C56.99097656 57.96095703 56.98195313 58.79691406 56.97265625 59.65820312 C56.94920989 61.70975969 56.91334266 63.76116777 56.875 65.8125 C56.215 65.8125 55.555 65.8125 54.875 65.8125 C54.689375 66.616875 54.50375 67.42125 54.3125 68.25 C48.31254339 83.11945768 33.81915763 91.54732554 19.875 97.8125 C-7.62298359 109.11222508 -42.45803504 111.0968314 -71.125 102.8125 C-72.39988281 102.47347656 -73.67476563 102.13445312 -74.98828125 101.78515625 C-90.52966162 97.17361677 -104.45672637 88.31888084 -118.296875 80.08203125 C-121.63416569 78.09771863 -124.98737042 76.14761603 -128.375 74.25 C-129.18453125 73.79496094 -129.9940625 73.33992188 -130.828125 72.87109375 C-133.2583772 71.75102854 -135.48930936 71.22841572 -138.125 70.8125 C-135.94509056 68.46121403 -133.7649801 66.8637079 -131 65.25 C-130.12988281 64.73953125 -129.25976562 64.2290625 -128.36328125 63.703125 C-127.29464844 63.07921875 -126.22601563 62.4553125 -125.125 61.8125 C-123.68041597 60.95408959 -122.23644892 60.09464035 -120.79296875 59.234375 C-119.25793327 58.32271329 -117.72277655 57.41125568 -116.1875 56.5 C-115.06867432 55.83278931 -115.06867432 55.83278931 -113.92724609 55.15209961 C-113.22035645 54.73452393 -112.5134668 54.31694824 -111.78515625 53.88671875 C-111.15230713 53.51119873 -110.51945801 53.13567871 -109.86743164 52.7487793 C-104.79390038 50.02256486 -99.70399114 49.82912906 -94.125 50.8125 C-89.33134087 52.95828347 -84.93673686 55.61753842 -80.47314453 58.37402344 C-76.09117917 61.05842143 -71.63741508 63.6179746 -67.1875 66.1875 C-66.32398926 66.69893555 -65.46047852 67.21037109 -64.57080078 67.73730469 C-49.76154419 76.34395525 -32.882509 78.1073998 -16.125 74.6875 C-7.03419276 72.19766108 0.45597448 68.55078306 5.8515625 60.64453125 C8.75062819 55.45498236 8.82312982 49.24871573 7.26171875 43.58984375 C2.98391215 33.80930796 -8.34315879 29.1857815 -17.125 24.1875 C-18.26195312 23.53265625 -19.39890625 22.8778125 -20.5703125 22.203125 C-26.3447511 18.89387596 -32.13127365 15.70652963 -38.125 12.8125 C-35.89510506 10.39205362 -33.62768746 8.78917611 -30.78125 7.1484375 C-29.94722656 6.66632813 -29.11320312 6.18421875 -28.25390625 5.6875 C-27.38636719 5.1925 -26.51882812 4.6975 -25.625 4.1875 C-24.75746094 3.68476562 -23.88992187 3.18203125 -22.99609375 2.6640625 C-14.93916237 -1.96836173 -8.78097463 -4.23210033 0 0 Z " fill="#0C0C0C" transform="translate(258.125,101.1875)"/>
<path d="M0 0 C24.91294501 12.61639868 24.91294501 12.61639868 28.80078125 21.26171875 C30.5743252 27.21575917 29.54905619 32.34215587 27.30078125 38.01171875 C21.44265898 46.98324866 8.79157958 52.01784048 -0.26171875 57.2265625 C-0.98359375 57.64284912 -1.70546875 58.05913574 -2.44921875 58.48803711 C-4.26171875 59.38671875 -4.26171875 59.38671875 -6.26171875 59.38671875 C-6.59171875 60.04671875 -6.92171875 60.70671875 -7.26171875 61.38671875 C-11.97433086 63.54955967 -17.08154595 65.19252341 -22.26171875 64.38671875 C-26.62384204 62.07735936 -29.18150168 59.87560821 -31.26171875 55.38671875 C-34.53546971 44.37501097 -30.88045901 32.49156164 -25.6484375 22.703125 C-21.58226739 15.91090282 -9.27965173 -2.51624408 0 0 Z " fill="#0B0B0B" transform="translate(343.26171875,240.61328125)"/>
<path d="M0 0 C11.85573867 4.62457891 20.9535559 15.42041865 26.4609375 26.61328125 C29.50557565 33.70293866 31.03133921 39.49116824 30.953125 47.234375 C30.94410156 48.39582031 30.93507812 49.55726563 30.92578125 50.75390625 C30.91417969 51.63433594 30.90257812 52.51476562 30.890625 53.421875 C27.47497353 55.38198301 24.05792959 57.33965074 20.640625 59.296875 C19.18849609 60.13025391 19.18849609 60.13025391 17.70703125 60.98046875 C16.77246094 61.51542969 15.83789062 62.05039062 14.875 62.6015625 C13.58674316 63.33995361 13.58674316 63.33995361 12.27246094 64.09326172 C6.23619445 67.46035502 1.85113696 68.21172033 -5.109375 67.421875 C-11.15977764 65.43887525 -15.32821758 60.81809371 -18.22729492 55.2902832 C-19.44831038 51.3197018 -19.41472643 47.59697042 -19.41015625 43.46484375 C-19.41444138 42.60305008 -19.4187265 41.74125641 -19.42314148 40.85334778 C-19.42887153 39.0336698 -19.42939482 37.21396892 -19.42504883 35.39428711 C-19.42189735 32.62899045 -19.44533465 29.86477328 -19.47070312 27.09960938 C-19.4729773 25.32552217 -19.47367907 23.55143212 -19.47265625 21.77734375 C-19.481866 20.95936813 -19.49107574 20.14139252 -19.50056458 19.29862976 C-19.45607803 13.69861145 -18.453454 9.52908037 -16.109375 4.421875 C-11.10058095 -0.34258763 -6.91128941 -1.89420525 0 0 Z " fill="#0A0A0A" transform="translate(170.109375,275.578125)"/>
<path d="M0 0 C2.93025961 1.56032841 5.70704165 3.30995324 8.52734375 5.0625 C10.2275847 6.02307258 11.93245726 6.97547027 13.640625 7.921875 C15.51959374 8.96863783 17.39849932 10.01551406 19.27734375 11.0625 C20.17702881 11.56040039 21.07671387 12.05830078 22.00366211 12.57128906 C35.8229348 20.39772556 35.8229348 20.39772556 38.52734375 27.0625 C38.96722815 31.60797217 38.99762774 34.0401435 37.08984375 38.1875 C29.95220513 46.19558235 20.2074051 50.43159665 9.5690918 51.20483398 C-0.60643439 51.6679471 -10.03000527 51.36469999 -19.47265625 47.0625 C-20.17132813 46.8061377 -20.87 46.54977539 -21.58984375 46.28564453 C-24.1184349 45.12838816 -25.65031123 44.17818078 -27.47265625 42.0625 C-28.59225905 37.46137658 -28.40674166 33.02121094 -28.22265625 28.3125 C-28.22007812 27.075 -28.2175 25.8375 -28.21484375 24.5625 C-28.05602096 16.26842076 -27.16942974 9.2437297 -21.53515625 2.87109375 C-14.71735214 -1.66119648 -7.82965676 -2.96859024 0 0 Z " fill="#0D0D0D" transform="translate(222.47265625,120.9375)"/>
<path d="M0 0 C0.33 0 0.66 0 1 0 C1.33 17.16 1.66 34.32 2 52 C3.32 50.68 4.64 49.36 6 48 C6.99 48 7.98 48 9 48 C8.71253906 48.71414062 8.42507812 49.42828125 8.12890625 50.1640625 C4.02647137 60.30984062 4.02647137 60.30984062 2 71 C1.01 71 0.02 71 -1 71 C-1.02315665 62.18571757 -1.04093208 53.37144559 -1.05181217 44.5571394 C-1.05703371 40.46443292 -1.06411817 36.37174724 -1.07543945 32.27905273 C-1.08629418 28.33036914 -1.09228234 24.38170556 -1.09487724 20.43300819 C-1.09672682 18.92550656 -1.1003385 17.41800605 -1.10573006 15.91051292 C-1.11297477 13.80123897 -1.11398949 11.69204804 -1.11352539 9.58276367 C-1.115746 8.38141281 -1.11796661 7.18006195 -1.12025452 5.94230652 C-1 3 -1 3 0 0 Z " fill="#505251" transform="translate(110,186)"/>
<path d="M0 0 C-4.75548868 3.01790628 -9.5478908 5.97291869 -14.375 8.875 C-15.90253906 9.79925781 -15.90253906 9.79925781 -17.4609375 10.7421875 C-18.29882812 11.15726562 -19.13671875 11.57234375 -20 12 C-20.66 11.67 -21.32 11.34 -22 11 C-21.67 10.01 -21.34 9.02 -21 8 C-21.33 7.01 -21.66 6.02 -22 5 C-25.02282643 3.96452953 -25.02282643 3.96452953 -28.5625 3.3125 C-29.76003906 3.06113281 -30.95757812 2.80976563 -32.19140625 2.55078125 C-33.11824219 2.36902344 -34.04507812 2.18726563 -35 2 C-31.61816664 0.90728497 -29.00290623 1.11522031 -25.5 1.5625 C-17.22234373 2.36487404 -7.49196638 -2.32509301 0 0 Z " fill="#454645" transform="translate(325,356)"/>
<path d="M0 0 C0 3 0 3 -1 6 C-1.11349848 7.45706917 -1.17601475 8.91844959 -1.20532227 10.37963867 C-1.22526749 11.26032516 -1.24521271 12.14101166 -1.26576233 13.04838562 C-1.28247482 13.99534805 -1.29918732 14.94231049 -1.31640625 15.91796875 C-1.33718735 16.89034988 -1.35796844 17.86273102 -1.37937927 18.86457825 C-1.44478748 21.97214665 -1.50371929 25.07979985 -1.5625 28.1875 C-1.60569351 30.29362858 -1.64930807 32.39974856 -1.69335938 34.50585938 C-1.80045999 39.67048591 -1.90175219 44.83519778 -2 50 C-1.01 50.33 -0.02 50.66 1 51 C1 55 1 55 0 57 C-3.46695029 50.97485737 -4.59199092 46.65218904 -4.49609375 39.75 C-4.49754898 38.89245117 -4.49900421 38.03490234 -4.50050354 37.15136719 C-4.49885351 35.34957459 -4.48739346 33.54776657 -4.46655273 31.74609375 C-4.43757613 29.00719588 -4.44596732 26.27023581 -4.45898438 23.53125 C-4.45274606 21.77082404 -4.44435439 20.01040412 -4.43359375 18.25 C-4.43652939 17.44143555 -4.43946503 16.63287109 -4.44248962 15.79980469 C-4.35743476 10.60696698 -3.89477359 3.89477359 0 0 Z " fill="#6E6F6F" transform="translate(155,279)"/>
<path d="M0 0 C4.07478001 6.79130002 3.17435189 15.5034606 3.24609375 23.13671875 C3.27900586 25.51107176 3.31221791 27.88542063 3.34570312 30.25976562 C3.39325184 33.98605753 3.43776017 37.71232957 3.47680664 41.4387207 C3.51643751 45.04655324 3.56797125 48.65406321 3.62109375 52.26171875 C3.6295079 53.37842453 3.63792206 54.49513031 3.64659119 55.64567566 C3.66323318 56.68387955 3.67987518 57.72208344 3.69702148 58.79174805 C3.70732895 59.70329147 3.71763641 60.6148349 3.72825623 61.55400085 C4.01399747 64.12599298 4.70045414 65.78192918 6 68 C1.93774452 67.42176904 -0.84762346 66.10882263 -4.3125 63.9375 C-5.19550781 63.38964844 -6.07851562 62.84179688 -6.98828125 62.27734375 C-7.65214844 61.85582031 -8.31601563 61.43429687 -9 61 C-5.34566236 59.78188745 -4.39369816 60.43367777 -1 62 C-0.34 62.33 0.32 62.66 1 63 C1.02534095 55.81006624 1.04286308 48.62014399 1.05493164 41.43017578 C1.05996249 38.98388234 1.06678784 36.53759191 1.07543945 34.09130859 C1.08755952 30.57648984 1.09324079 27.06171082 1.09765625 23.546875 C1.10281754 22.4519574 1.10797882 21.35703979 1.11329651 20.22894287 C1.11337204 19.20818665 1.11344757 18.18743042 1.11352539 17.13574219 C1.11685631 15.79005157 1.11685631 15.79005157 1.12025452 14.41717529 C1.00643249 12.12929631 0.60546821 10.19955494 0 8 C-0.12205329 5.32459184 -0.04467313 2.68038762 0 0 Z " fill="#9FA1A0" transform="translate(241,321)"/>
<path d="M0 0 C0.62003906 0.3403125 1.24007813 0.680625 1.87890625 1.03125 C9.88746926 5.41439366 17.93921904 9.71397072 26 14 C24 16 24 16 21 17 C20.34 17.99 19.68 18.98 19 20 C18.19949219 19.05640625 18.19949219 19.05640625 17.3828125 18.09375 C12.59939383 12.5986116 7.72233246 7.93987556 1.87109375 3.59375 C1.25363281 3.0678125 0.63617188 2.541875 0 2 C0 1.34 0 0.68 0 0 Z " fill="#212423" transform="translate(295,114)"/>
<path d="M0 0 C2.475 0.495 2.475 0.495 5 1 C0.86092559 4.55944071 -3.55271739 7.13828729 -8.3125 9.75 C-9.05306641 10.16121094 -9.79363281 10.57242188 -10.55664062 10.99609375 C-12.36879627 12.00154785 -14.1840842 13.001353 -16 14 C-17.125 10.25 -17.125 10.25 -16 8 C-15.34 8.33 -14.68 8.66 -14 9 C-14 8.34 -14 7.68 -14 7 C-12.824375 6.87625 -12.824375 6.87625 -11.625 6.75 C-8.85250896 6.27193661 -8.85250896 6.27193661 -7.6875 3.9375 C-7.460625 3.298125 -7.23375 2.65875 -7 2 C-5.68 2.99 -4.36 3.98 -3 5 C-3 4.34 -3 3.68 -3 3 C-2.01 2.67 -1.02 2.34 0 2 C0 1.34 0 0.68 0 0 Z " fill="#141615" transform="translate(353,222)"/>
<path d="M0 0 C3.82465205 3.4220571 6.02115839 5.91002361 7 11 C6.86060412 14.03683884 6.49307286 17.00158399 6 20 C5.67 20 5.34 20 5 20 C5 16.37 5 12.74 5 9 C3.35 8.67 1.7 8.34 0 8 C-2.3125 6.4375 -2.3125 6.4375 -4 5 C-3 3 -3 3 0 2 C0 1.34 0 0.68 0 0 Z " fill="#434443" transform="translate(366,255)"/>
<path d="M0 0 C0.54011719 0.32226562 1.08023438 0.64453125 1.63671875 0.9765625 C0.64671875 1.4715625 0.64671875 1.4715625 -0.36328125 1.9765625 C-1.02328125 1.6465625 -1.68328125 1.3165625 -2.36328125 0.9765625 C-2.36328125 1.6365625 -2.36328125 2.2965625 -2.36328125 2.9765625 C-1.70328125 2.9765625 -1.04328125 2.9765625 -0.36328125 2.9765625 C-0.69328125 3.6365625 -1.02328125 4.2965625 -1.36328125 4.9765625 C-3.01328125 4.3165625 -4.66328125 3.6565625 -6.36328125 2.9765625 C-5.70328125 2.3165625 -5.04328125 1.6565625 -4.36328125 0.9765625 C-8.37337465 0.79791619 -8.37337465 0.79791619 -12.36328125 0.9765625 C-13.02328125 1.6365625 -13.68328125 2.2965625 -14.36328125 2.9765625 C-15.35328125 3.3065625 -16.34328125 3.6365625 -17.36328125 3.9765625 C-17.36328125 4.6365625 -17.36328125 5.2965625 -17.36328125 5.9765625 C-19.34328125 6.3065625 -21.32328125 6.6365625 -23.36328125 6.9765625 C-22.18964747 3.32525741 -19.97332821 1.52067182 -16.6328125 -0.265625 C-11.49068699 -1.98261699 -5.00584729 -2.16782147 0 0 Z " fill="#565757" transform="translate(222.36328125,121.0234375)"/>
<path d="M0 0 C0.94337376 2.83012127 1.12172829 4.54299918 1.11352539 7.47143555 C1.11341209 8.82249641 1.11341209 8.82249641 1.11329651 10.20085144 C1.10813522 11.16968765 1.10297394 12.13852386 1.09765625 13.13671875 C1.0962413 14.13129593 1.09482635 15.12587311 1.09336853 16.15058899 C1.08776761 19.32958982 1.07521496 22.50852043 1.0625 25.6875 C1.05748512 27.84179586 1.05292219 29.99609282 1.04882812 32.15039062 C1.03779788 37.43361774 1.02105886 42.71680385 1 48 C-0.65 47.34 -2.3 46.68 -4 46 C-3.34 45.01 -2.68 44.02 -2 43 C-1.68146536 41.01093272 -1.68146536 41.01093272 -1.69702148 38.81982422 C-1.68037949 37.98240692 -1.66373749 37.14498962 -1.64659119 36.28219604 C-1.63817703 35.38211823 -1.62976288 34.48204041 -1.62109375 33.5546875 C-1.60409927 32.62907013 -1.5871048 31.70345276 -1.56959534 30.74978638 C-1.51643015 27.79159362 -1.47614229 24.83341538 -1.4375 21.875 C-1.39362903 18.90951431 -1.3469914 15.94413961 -1.29469299 12.97879028 C-1.26263832 11.13258172 -1.23577905 9.28627465 -1.21446228 7.43991089 C-1.11174957 1.11174957 -1.11174957 1.11174957 0 0 Z " fill="#747776" transform="translate(145,284)"/>
<path d="M0 0 C0.33 0 0.66 0 1 0 C1.33 15.18 1.66 30.36 2 46 C2.33 46 2.66 46 3 46 C3 47.98 3 49.96 3 52 C2.01 52 1.02 52 0 52 C0 34.84 0 17.68 0 0 Z " fill="#E7E7E7" transform="translate(109,205)"/>
<path d="M0 0 C0.33 0 0.66 0 1 0 C1.09796875 0.9178125 1.1959375 1.835625 1.296875 2.78125 C2.4218627 12.01390771 3.59588893 19.65361908 11 26 C4.59296098 25.51644989 4.59296098 25.51644989 2.0625 23.3125 C0.73155968 20.41574754 0.85983274 18.15376338 1 15 C0.67 14.67 0.34 14.34 0 14 C-0.07271741 11.64686445 -0.08370868 9.29166332 -0.0625 6.9375 C-0.05347656 5.64714844 -0.04445313 4.35679687 -0.03515625 3.02734375 C-0.02355469 2.02832031 -0.01195312 1.02929688 0 0 Z " fill="#575857" transform="translate(304,283)"/>
<path d="M0 0 C0 0.66 0 1.32 0 2 C-0.99 2.66 -1.98 3.32 -3 4 C-2.34 4.33 -1.68 4.66 -1 5 C-1 5.66 -1 6.32 -1 7 C-3.31 6.67 -5.62 6.34 -8 6 C-8.33 6.66 -8.66 7.32 -9 8 C-10.32 8 -11.64 8 -13 8 C-13.33 9.98 -13.66 11.96 -14 14 C-15.98 13.34 -17.96 12.68 -20 12 C-17.98405311 9.86187451 -16.01104183 8.25292367 -13.49609375 6.73828125 C-12.83802734 6.34189453 -12.17996094 5.94550781 -11.50195312 5.53710938 C-10.82068359 5.13298828 -10.13941406 4.72886719 -9.4375 4.3125 C-8.75236328 3.89677734 -8.06722656 3.48105469 -7.36132812 3.05273438 C-2.2533867 0 -2.2533867 0 0 0 Z " fill="#515251" transform="translate(240,102)"/>
<path d="M0 0 C-0.28617187 0.70511719 -0.57234375 1.41023437 -0.8671875 2.13671875 C-2.00476831 5.01205232 -3.07392356 7.90452186 -4.125 10.8125 C-4.47820312 11.78832031 -4.83140625 12.76414063 -5.1953125 13.76953125 C-5.46085937 14.50558594 -5.72640625 15.24164063 -6 16 C-6.66 16 -7.32 16 -8 16 C-8.38647343 6.14492754 -8.38647343 6.14492754 -6 2 C-3 0 -3 0 0 0 Z " fill="#363737" transform="translate(119,234)"/>
<path d="M0 0 C2.3125 1.5625 2.3125 1.5625 4 3 C2.66666667 3.33333333 1.33333333 3.66666667 0 4 C-1.0828125 4.309375 -1.0828125 4.309375 -2.1875 4.625 C-2.785625 4.74875 -3.38375 4.8725 -4 5 C-4.33 4.67 -4.66 4.34 -5 4 C-5.33 5.98 -5.66 7.96 -6 10 C-8.09749995 7.64031256 -8.96905704 6.45383006 -9.1875 3.25 C-9.125625 2.5075 -9.06375 1.765 -9 1 C-5.64846558 -1.11022538 -3.75933548 -1.22178403 0 0 Z " fill="#262827" transform="translate(324,130)"/>
<path d="M0 0 C0.125 2.375 0.125 2.375 0 5 C-0.66 5.66 -1.32 6.32 -2 7 C-5.38297413 6.82194873 -6.76272061 6.21162756 -9.3125 3.9375 C-9.869375 3.298125 -10.42625 2.65875 -11 2 C-10.01 1.67 -9.02 1.34 -8 1 C-7.175 0.62875 -6.35 0.2575 -5.5 -0.125 C-3 -1 -3 -1 0 0 Z " fill="#232524" transform="translate(144,322)"/>
<path d="M0 0 C0.66 1.32 1.32 2.64 2 4 C1.34 4.66 0.68 5.32 0 6 C0.30271961 7.34061543 0.63837971 8.67405895 1 10 C0.67 10.99 0.34 11.98 0 13 C-1.98 13 -3.96 13 -6 13 C-4.75696561 7.82069003 -3.14512215 4.29833361 0 0 Z " fill="#323333" transform="translate(126,235)"/>
<path d="M0 0 C1.65 0.99 3.3 1.98 5 3 C5 2.34 5 1.68 5 1 C7.86724686 1.57344937 8.8614515 1.8614515 11 4 C8.69 4.33 6.38 4.66 4 5 C4.66 5.66 5.32 6.32 6 7 C5.67 7.66 5.34 8.32 5 9 C0.32307692 7.52307692 0.32307692 7.52307692 -1.3125 4.875 C-1.539375 4.25625 -1.76625 3.6375 -2 3 C-1.34 2.01 -0.68 1.02 0 0 Z " fill="#191B1A" transform="translate(227,110)"/>
<path d="M0 0 C0 0.66 0 1.32 0 2 C-2.1875 3.7265625 -2.1875 3.7265625 -5 5.625 C-5.928125 6.25664062 -6.85625 6.88828125 -7.8125 7.5390625 C-8.534375 8.02117187 -9.25625 8.50328125 -10 9 C-10.66 8.67 -11.32 8.34 -12 8 C-11.4376049 4.73810844 -10.5859495 3.08865152 -8 1 C-5.07175348 0.02391783 -3.04386724 -0.08226668 0 0 Z " fill="#383A39" transform="translate(369,320)"/>
<path d="M0 0 C1.47010495 2.9402099 1.70957948 5.74729019 2 9 C1.34 9.66 0.68 10.32 0 11 C-2.125 10.625 -2.125 10.625 -4 10 C-4 12.31 -4 14.62 -4 17 C-4.99 16.67 -5.98 16.34 -7 16 C-5.26017005 10.18738629 -3.1889511 5.16830006 0 0 Z " fill="#3F4140" transform="translate(286,246)"/>
<path d="M0 0 C-1.26831693 0.81642254 -2.53975931 1.62799105 -3.8125 2.4375 C-4.87404297 3.11619141 -4.87404297 3.11619141 -5.95703125 3.80859375 C-8 5 -8 5 -11 6 C-11.33 5.34 -11.66 4.68 -12 4 C-14.32156597 3.59270772 -16.6568787 3.25561323 -19 3 C-19 2.67 -19 2.34 -19 2 C-17.75283203 1.80083984 -17.75283203 1.80083984 -16.48046875 1.59765625 C-15.39378906 1.42105469 -14.30710937 1.24445313 -13.1875 1.0625 C-12.10855469 0.88847656 -11.02960938 0.71445312 -9.91796875 0.53515625 C-2.60013089 -0.80693717 -2.60013089 -0.80693717 0 0 Z " fill="#7E807F" transform="translate(325,356)"/>
<path d="M0 0 C4.94515667 2.62711448 8.87775489 6.26645294 13 10 C10 11 10 11 8 11 C7.34 10.01 6.68 9.02 6 8 C3.44816596 6.79549696 3.44816596 6.79549696 1 6 C1.33 4.68 1.66 3.36 2 2 C1.34 2 0.68 2 0 2 C0 1.34 0 0.68 0 0 Z " fill="#323232" transform="translate(187,237)"/>
<path d="M0 0 C2.3828125 0.99609375 2.3828125 0.99609375 5.125 2.4375 C6.03507813 2.91058594 6.94515625 3.38367188 7.8828125 3.87109375 C8.58148438 4.24363281 9.28015625 4.61617187 10 5 C8.33333333 6.66666667 6.66666667 8.33333333 5 10 C4.67 8.35 4.34 6.7 4 5 C1.03 4.505 1.03 4.505 -2 4 C-2 3.01 -2 2.02 -2 1 C-1.34 0.67 -0.68 0.34 0 0 Z " fill="#383938" transform="translate(237,130)"/>
<path d="M0 0 C2.4375 1.5625 2.4375 1.5625 4 3 C2.14375 2.938125 2.14375 2.938125 0.25 2.875 C-3.01637962 2.86341709 -5.2146947 3.1431298 -8 5 C-8 4.01 -8 3.02 -8 2 C-9.98 2.99 -9.98 2.99 -12 4 C-11 1 -11 1 -9.375 -0.25 C-5.94891004 -1.33192314 -3.46972074 -0.80547089 0 0 Z " fill="#515151" transform="translate(125,179)"/>
<path d="M0 0 C0.721875 0.391875 1.44375 0.78375 2.1875 1.1875 C0.7025 3.6625 0.7025 3.6625 -0.8125 6.1875 C-2.4625 5.8575 -4.1125 5.5275 -5.8125 5.1875 C-5.8125 4.5275 -5.8125 3.8675 -5.8125 3.1875 C-6.4725 2.8575 -7.1325 2.5275 -7.8125 2.1875 C-3.50480769 -1.0125 -3.50480769 -1.0125 0 0 Z " fill="#0F0F0F" transform="translate(343.8125,240.8125)"/>
<path d="M0 0 C0.33 0.66 0.66 1.32 1 2 C3.32156597 2.40729228 5.6568787 2.74438677 8 3 C8 3.66 8 4.32 8 5 C8.99 5.33 9.98 5.66 11 6 C11 6.99 11 7.98 11 9 C8.23498164 7.9427871 5.6288586 6.80669719 3 5.4375 C0.25638574 4.1228515 -2.00970184 3.43974973 -5 3 C-2.25 0 -2.25 0 0 0 Z " fill="#545554" transform="translate(125,169)"/>
<path d="M0 0 C0.763125 0.495 1.52625 0.99 2.3125 1.5 C2.3125 1.83 2.3125 2.16 2.3125 2.5 C-3.10288462 3.73076923 -3.10288462 3.73076923 -6.0625 2.5625 C-6.59875 2.211875 -7.135 1.86125 -7.6875 1.5 C-7.3575 1.17 -7.0275 0.84 -6.6875 0.5 C-10.84888263 0.41840426 -14.6347484 0.51751476 -18.6875 1.5 C-15.85657638 -4.16184724 -4.74660776 -1.9308235 0 0 Z " fill="#545655" transform="translate(167.6875,153.5)"/>
<path d="M0 0 C0.66 0 1.32 0 2 0 C3 3 3 3 2.00390625 5.48046875 C1.52824219 6.37378906 1.05257813 7.26710937 0.5625 8.1875 C0.08941406 9.08855469 -0.38367188 9.98960937 -0.87109375 10.91796875 C-1.24363281 11.60503906 -1.61617188 12.29210937 -2 13 C-2.33 13 -2.66 13 -3 13 C-3.33 9.7 -3.66 6.4 -4 3 C-3.01 3 -2.02 3 -1 3 C-0.67 2.01 -0.34 1.02 0 0 Z " fill="#2F3130" transform="translate(277,242)"/>
<path d="M0 0 C-0.185625 0.763125 -0.37125 1.52625 -0.5625 2.3125 C-1.22819173 5.08967375 -1.22819173 5.08967375 0 8 C-3.3 7.34 -6.6 6.68 -10 6 C-4.4 0 -4.4 0 0 0 Z " fill="#373737" transform="translate(142,159)"/>
<path d="M0 0 C2.3431213 0.25561323 4.67843403 0.59270772 7 1 C7.33 1.66 7.66 2.32 8 3 C8.804375 3.12375 9.60875 3.2475 10.4375 3.375 C13 4 13 4 14.3125 6.0625 C14.6528125 7.0215625 14.6528125 7.0215625 15 8 C10.96522658 7.41841104 8.14758799 6.13243941 4.6875 4 C3.80449219 3.46375 2.92148438 2.9275 2.01171875 2.375 C1.34785156 1.92125 0.68398437 1.4675 0 1 C0 0.67 0 0.34 0 0 Z " fill="#707372" transform="translate(232,381)"/>
<path d="M0 0 C1.75215106 0.93347358 3.50163563 1.8719532 5.25 2.8125 C6.71179688 3.59560547 6.71179688 3.59560547 8.203125 4.39453125 C10.63355412 5.78965188 12.80787699 7.26195961 15 9 C14.01 9 13.02 9 12 9 C11.67 9.66 11.34 10.32 11 11 C10.54109375 10.60167969 10.0821875 10.20335938 9.609375 9.79296875 C5.68325173 6.39984291 5.68325173 6.39984291 1.5625 3.25 C1.046875 2.8375 0.53125 2.425 0 2 C0 1.34 0 0.68 0 0 Z " fill="#808180" transform="translate(295,114)"/>
<path d="M0 0 C1.65 0.33 3.3 0.66 5 1 C5 1.66 5 2.32 5 3 C5.66 3.33 6.32 3.66 7 4 C3.98968256 4.93423645 3.13349732 5.04449911 0 4 C0 4.66 0 5.32 0 6 C-1.32 5.67 -2.64 5.34 -4 5 C-4 4.34 -4 3.68 -4 3 C-3.01 3 -2.02 3 -1 3 C-0.67 2.01 -0.34 1.02 0 0 Z " fill="#050706" transform="translate(232,107)"/>
<path d="M0 0 C2.31 0.66 4.62 1.32 7 2 C3.80009492 4.74277578 0.99500618 6.6302836 -3 8 C-3 4.42424104 -1.91159393 2.94704065 0 0 Z " fill="#464646" transform="translate(275,378)"/>
<path d="M0 0 C0 1.32 0 2.64 0 4 C-2.1875 5.8125 -2.1875 5.8125 -5 7 C-7.8125 6.6875 -7.8125 6.6875 -10 6 C-7.35570758 3.077361 -4.105808 0 0 0 Z " fill="#3C3C3C" transform="translate(360,295)"/>
<path d="M0 0 C4.30764815 1.56641751 8.06171464 3.68336156 12 6 C8.25 7.125 8.25 7.125 6 6 C6 5.34 6 4.68 6 4 C4.35 4.66 2.7 5.32 1 6 C0.34 5.34 -0.32 4.68 -1 4 C-0.625 1.875 -0.625 1.875 0 0 Z " fill="#424242" transform="translate(275,112)"/>
<path d="M0 0 C2.5 2.3125 2.5 2.3125 5 5 C5 5.99 5 6.98 5 8 C3.35 8 1.7 8 0 8 C-0.98120464 4.94736336 -0.98120464 3.05263664 0 0 Z " fill="#393B3A" transform="translate(214,264)"/>
<path d="M0 0 C3.63 0.66 7.26 1.32 11 2 C11 2.33 11 2.66 11 3 C9.02 3 7.04 3 5 3 C5 3.66 5 4.32 5 5 C2.69 4.67 0.38 4.34 -2 4 C-1.34 2.68 -0.68 1.36 0 0 Z " fill="#3D3D3D" transform="translate(178,208)"/>
<path d="M0 0 C0.66 0.33 1.32 0.66 2 1 C2 1.99 2 2.98 2 4 C2.66 4.66 3.32 5.32 4 6 C1.69 6.33 -0.62 6.66 -3 7 C-3.33 5.68 -3.66 4.36 -4 3 C-2.68 2.01 -1.36 1.02 0 0 Z " fill="#2D2E2D" transform="translate(129,165)"/>
<path d="M0 0 C1.27875 0.103125 2.5575 0.20625 3.875 0.3125 C4.95394531 0.39951172 4.95394531 0.39951172 6.0546875 0.48828125 C8 1 8 1 10 4 C9.34 4 8.68 4 8 4 C8 4.66 8 5.32 8 6 C6.35 5.67 4.7 5.34 3 5 C2.67 4.01 2.34 3.02 2 2 C1.34 1.34 0.68 0.68 0 0 Z " fill="#050706" transform="translate(229,114)"/>
<path d="M0 0 C-0.66 1.32 -1.32 2.64 -2 4 C-3.98 3.34 -5.96 2.68 -8 2 C-8 1.01 -8 0.02 -8 -1 C-4.37673261 -2.2077558 -3.35853631 -1.54311128 0 0 Z " fill="#282828" transform="translate(187,236)"/>
<path d="M0 0 C1.32 0.33 2.64 0.66 4 1 C4 1.99 4 2.98 4 4 C0.535 5.485 0.535 5.485 -3 7 C-2.38722388 4.03824877 -1.74627478 2.61941217 0 0 Z " fill="#363837" transform="translate(310,359)"/>
<path d="M0 0 C3.57011026 3.732388 4.10913442 8.0949989 5 13 C3.04783565 11.04783565 2.15173355 9.46800047 1 7 C0.34 7 -0.32 7 -1 7 C-0.67 4.69 -0.34 2.38 0 0 Z " fill="#5F6160" transform="translate(195,301)"/>
<path d="M0 0 C0.66 0.33 1.32 0.66 2 1 C0.79618552 3.49361571 -0.45428722 5.68143083 -2 8 C-2.66 7.67 -3.32 7.34 -4 7 C-4.33 7.33 -4.66 7.66 -5 8 C-5.99 8 -6.98 8 -8 8 C-5.33333333 5.33333333 -2.66666667 2.66666667 0 0 Z " fill="#4B4C4B" transform="translate(334,244)"/>
<path d="M0 0 C0.99 0 1.98 0 3 0 C1.68775452 3.93673644 0.08089673 6.22719294 -3 9 C-3.33 7.68 -3.66 6.36 -4 5 C-3.34 4.67 -2.68 4.34 -2 4 C-0.86649466 1.98330173 -0.86649466 1.98330173 0 0 Z " fill="#383838" transform="translate(294,217)"/>
<path d="M0 0 C0.99 0.33 1.98 0.66 3 1 C2.505 1.61875 2.01 2.2375 1.5 2.875 C-0.19222773 4.83880904 -0.19222773 4.83880904 0 7 C-0.99 7.33 -1.98 7.66 -3 8 C-3 6.68 -3 5.36 -3 4 C-3.66 3.67 -4.32 3.34 -5 3 C-2.6875 1.4375 -2.6875 1.4375 0 0 Z " fill="#313231" transform="translate(354,183)"/>
<path d="M0 0 C-0.33 0.33 -0.66 0.66 -1 1 C0.32 1.66 1.64 2.32 3 3 C-0.1964086 4.06546953 -2.65747276 4.07427838 -6 4 C-6.33 2.68 -6.66 1.36 -7 0 C-3.86650268 -1.04449911 -3.01031744 -0.93423645 0 0 Z " fill="#030504" transform="translate(162,154)"/>
<path d="M0 0 C4.97209562 1.76429199 9.43438061 4.3939166 14 7 C13.01 7.495 13.01 7.495 12 8 C10.23046875 7.29296875 10.23046875 7.29296875 8.1875 6.1875 C5.17570232 4.60205459 2.1921916 3.19707185 -1 2 C-0.67 1.34 -0.34 0.68 0 0 Z " fill="#6D6E6E" transform="translate(261,104)"/>
<path d="M0 0 C0.33 0 0.66 0 1 0 C1.05423638 1.91635217 1.09289963 3.83314925 1.125 5.75 C1.14820313 6.81734375 1.17140625 7.8846875 1.1953125 8.984375 C1.00487687 11.92470106 0.52670104 13.52361878 -1 16 C-3 13 -3 13 -2.625 10.8125 C-2.41875 10.214375 -2.2125 9.61625 -2 9 C-1.34 9 -0.68 9 0 9 C0 6.03 0 3.06 0 0 Z " fill="#3E403F" transform="translate(371,304)"/>
<path d="M0 0 C0.66 0 1.32 0 2 0 C2 0.66 2 1.32 2 2 C4.97 2.495 4.97 2.495 8 3 C8.33 4.32 8.66 5.64 9 7 C8.34 7 7.68 7 7 7 C6.34 6.34 5.68 5.68 5 5 C4.67 5.99 4.34 6.98 4 8 C2.68 5.36 1.36 2.72 0 0 Z " fill="#3A3A3A" transform="translate(196,289)"/>
<path d="M0 0 C0.66 0.66 1.32 1.32 2 2 C1.67 2.66 1.34 3.32 1 4 C1.66 4 2.32 4 3 4 C3.33 4.99 3.66 5.98 4 7 C3.34 7.66 2.68 8.32 2 9 C0.35 7.02 -1.3 5.04 -3 3 C-2.01 2.01 -1.02 1.02 0 0 Z " fill="#3B3B3B" transform="translate(190,276)"/>
<path d="M0 0 C1.65 0.33 3.3 0.66 5 1 C1.81404865 3.63978826 -1.30970546 6.10498388 -5 8 C-5.66 7.67 -6.32 7.34 -7 7 C-6.67 6.34 -6.34 5.68 -6 5 C-5.01 5 -4.02 5 -3 5 C-3 4.34 -3 3.68 -3 3 C-2.01 2.67 -1.02 2.34 0 2 C0 1.34 0 0.68 0 0 Z " fill="#565958" transform="translate(353,222)"/>
<path d="M0 0 C0 3 0 3 -2.4375 5.5625 C-3.283125 6.366875 -4.12875 7.17125 -5 8 C-5.33 8.66 -5.66 9.32 -6 10 C-6.66 9.67 -7.32 9.34 -8 9 C-7.67 8.34 -7.34 7.68 -7 7 C-7.66 6.67 -8.32 6.34 -9 6 C-6.03 4.02 -3.06 2.04 0 0 Z " fill="#4D4E4D" transform="translate(370,173)"/>
<path d="M0 0 C1.98 0.66 3.96 1.32 6 2 C6 3.32 6 4.64 6 6 C5.01 6.33 4.02 6.66 3 7 C1.68 5.35 0.36 3.7 -1 2 C-0.67 1.34 -0.34 0.68 0 0 Z " fill="#1C1D1D" transform="translate(337,177)"/>
<path d="M0 0 C0.66 0.33 1.32 0.66 2 1 C1.67 2.32 1.34 3.64 1 5 C-1.60582371 5.93065133 -2.64198224 6.14917407 -5.25 5.0625 C-5.8275 4.711875 -6.405 4.36125 -7 4 C-1.7265625 0.77734375 -1.7265625 0.77734375 0 0 Z " fill="#454545" transform="translate(257,169)"/>
<path d="M0 0 C0.66 0.99 1.32 1.98 2 3 C1.01 3.33 0.02 3.66 -1 4 C-1.309375 4.99 -1.61875 5.98 -1.9375 7 C-2.288125 7.99 -2.63875 8.98 -3 10 C-5.125 10.875 -5.125 10.875 -7 11 C-5.20974068 7.12110481 -3.03770253 3.03770253 0 0 Z " fill="#595A5A" transform="translate(325,253)"/>
<path d="M0 0 C0.99 0 1.98 0 3 0 C3.33 0.66 3.66 1.32 4 2 C5.98 1.34 7.96 0.68 10 0 C7.24479785 2.95929119 4.53372712 5.03681826 1 7 C1.33 5.02 1.66 3.04 2 1 C1.34 0.67 0.68 0.34 0 0 Z " fill="#4C4C4C" transform="translate(313,194)"/>
<path d="M0 0 C0.33 0.66 0.66 1.32 1 2 C1.66 2.33 2.32 2.66 3 3 C1.68 4.65 0.36 6.3 -1 8 C-1.12375 7.195625 -1.2475 6.39125 -1.375 5.5625 C-1.684375 4.2940625 -1.684375 4.2940625 -2 3 C-2.66 2.67 -3.32 2.34 -4 2 C-2.68 1.34 -1.36 0.68 0 0 Z " fill="#393939" transform="translate(148,272)"/>
<path d="M0 0 C0.99 0 1.98 0 3 0 C3 0.66 3 1.32 3 2 C3.66 2 4.32 2 5 2 C4.34 3.98 3.68 5.96 3 8 C0.37613513 4.93882432 0 4.26826873 0 0 Z " fill="#393B3A" transform="translate(307,259)"/>
<path d="M0 0 C0.33 0.66 0.66 1.32 1 2 C0.14453125 3.91015625 0.14453125 3.91015625 -1.1875 6.0625 C-1.82751953 7.13177734 -1.82751953 7.13177734 -2.48046875 8.22265625 C-4.25241746 10.29524408 -5.34385824 10.63030147 -8 11 C-6.63629701 8.00779732 -5.05091917 5.70973471 -2.875 3.25 C-2.33617187 2.63640625 -1.79734375 2.0228125 -1.2421875 1.390625 C-0.62730469 0.70226562 -0.62730469 0.70226562 0 0 Z " fill="#575757" transform="translate(309,214)"/>
<path d="M0 0 C0 0.66 0 1.32 0 2 C-0.639375 2.12375 -1.27875 2.2475 -1.9375 2.375 C-2.618125 2.58125 -3.29875 2.7875 -4 3 C-4.33 3.66 -4.66 4.32 -5 5 C-6.65 4.67 -8.3 4.34 -10 4 C-6.83527002 0.53386716 -4.79371499 0 0 0 Z " fill="#656565" transform="translate(146,224)"/>
<path d="M0 0 C3.96 1.98 3.96 1.98 8 4 C6.02 4.99 6.02 4.99 4 6 C2.62437146 4.71034824 1.29233607 3.37310707 0 2 C0 1.34 0 0.68 0 0 Z " fill="#474747" transform="translate(131,183)"/>
<path d="M0 0 C1.32 0.66 2.64 1.32 4 2 C3.21625 2.268125 2.4325 2.53625 1.625 2.8125 C-1.28114923 3.84814432 -1.28114923 3.84814432 -3 7 C-3.99 5.35 -4.98 3.7 -6 2 C-4.7934375 1.7834375 -4.7934375 1.7834375 -3.5625 1.5625 C-1.07896294 1.25864751 -1.07896294 1.25864751 0 0 Z " fill="#484A4A" transform="translate(317,127)"/>
<path d="M0 0 C-0.875 3.875 -0.875 3.875 -2 5 C-4.33297433 5.04092937 -6.66705225 5.04241723 -9 5 C-2.87096774 0 -2.87096774 0 0 0 Z " fill="#515252" transform="translate(372,288)"/>
<path d="M0 0 C0.99 0.66 1.98 1.32 3 2 C-5.57142857 3.42857143 -5.57142857 3.42857143 -9 1 C-5.98131566 -0.50934217 -3.32702771 -0.17510672 0 0 Z " fill="#676968" transform="translate(168,275)"/>
<path d="M0 0 C4.06815373 1.84916079 7.0094833 3.66442368 10 7 C6.5625 6.1875 6.5625 6.1875 3 5 C2.67 4.01 2.34 3.02 2 2 C1.34 2 0.68 2 0 2 C0 1.34 0 0.68 0 0 Z " fill="#535654" transform="translate(247,136)"/>
<path d="M0 0 C2.86724686 0.57344937 3.8614515 0.8614515 6 3 C5.01 3.33 4.02 3.66 3 4 C2.67 4.66 2.34 5.32 2 6 C0 3 0 3 0 0 Z " fill="#303231" transform="translate(313,295)"/>
<path d="M0 0 C3.53372712 1.96318174 6.24479785 4.04070881 9 7 C6.69 6.34 4.38 5.68 2 5 C2 4.01 2 3.02 2 2 C1.34 2 0.68 2 0 2 C0 1.34 0 0.68 0 0 Z " fill="#646464" transform="translate(187,237)"/>
<path d="M0 0 C0.99 0 1.98 0 3 0 C1.375 5.75 1.375 5.75 -2 8 C-1.125 2.25 -1.125 2.25 0 0 Z " fill="#494B4A" transform="translate(309,169)"/>
<path d="M0 0 C3.82097239 0.53069061 6.06171403 1.49701566 9 4 C6.03 3.67 3.06 3.34 0 3 C0 2.01 0 1.02 0 0 Z " fill="#353837" transform="translate(319,129)"/>
<path d="M0 0 C2.31 0.33 4.62 0.66 7 1 C6.2884375 1.680625 6.2884375 1.680625 5.5625 2.375 C3.90972192 3.93258204 3.90972192 3.93258204 3 6 C1.5 4.6875 1.5 4.6875 0 3 C0 2.01 0 1.02 0 0 Z " fill="#505251" transform="translate(307,123)"/>
<path d="M0 0 C2.31 0.33 4.62 0.66 7 1 C7.33 2.32 7.66 3.64 8 5 C4.62496331 3.8141763 2.35277269 2.72426311 0 0 Z " fill="#585858" transform="translate(232,381)"/>
<path d="M0 0 C3.16130459 4.21507278 3.3367697 5.06071112 3 10 C2.01 10 1.02 10 0 10 C0 6.7 0 3.4 0 0 Z " fill="#C4C7C5" transform="translate(109,247)"/>
<path d="M0 0 C2.3125 0.8125 2.3125 0.8125 4 2 C3.401875 2.28875 2.80375 2.5775 2.1875 2.875 C-0.19327792 4.04742026 -0.19327792 4.04742026 -3 6 C-3 5.34 -3 4.68 -3 4 C-3.66 3.67 -4.32 3.34 -5 3 C-2.75 1.375 -2.75 1.375 0 0 Z " fill="#5E5E5E" transform="translate(341,240)"/>
<path d="M0 0 C-0.66 1.65 -1.32 3.3 -2 5 C-3.65 4.67 -5.3 4.34 -7 4 C-3.17391304 0 -3.17391304 0 0 0 Z " fill="#4E4F4E" transform="translate(340,192)"/>
<path d="M0 0 C3.45925163 1.2491742 6.14693203 2.67527795 9 5 C6.55492066 5.87324262 5.32299678 6.10151327 2.8125 5.3125 C1 4 1 4 0.25 1.875 C0.1675 1.25625 0.085 0.6375 0 0 Z " fill="#525252" transform="translate(178,161)"/>
<path d="M0 0 C2.97 0 5.94 0 9 0 C6.06171403 2.50298434 3.82097239 3.46930939 0 4 C0 2.68 0 1.36 0 0 Z " fill="#585858" transform="translate(320,345)"/>
<path d="M0 0 C3.37503669 1.1858237 5.64722731 2.27573689 8 5 C6.68 5.33 5.36 5.66 4 6 C3.67 4.68 3.34 3.36 3 2 C1.68 2.33 0.36 2.66 -1 3 C-0.67 2.01 -0.34 1.02 0 0 Z " fill="#5E5F5E" transform="translate(355,248)"/>
<path d="M0 0 C0.66 0.33 1.32 0.66 2 1 C1.67 2.65 1.34 4.3 1 6 C-3 6 -3 6 -5 5 C-3.35 3.35 -1.7 1.7 0 0 Z " fill="#535353" transform="translate(132,229)"/>
<path d="M0 0 C1.32 0.99 2.64 1.98 4 3 C2.89131683 5.21736634 1.50559539 7.03617993 0 9 C0 6.03 0 3.06 0 0 Z " fill="#010202" transform="translate(111,232)"/>
<path d="M0 0 C0.66 0.33 1.32 0.66 2 1 C1.34 2.65 0.68 4.3 0 6 C-0.99 5.67 -1.98 5.34 -3 5 C-3.99 5 -4.98 5 -6 5 C-4.02 3.35 -2.04 1.7 0 0 Z " fill="#585A59" transform="translate(325,200)"/>
<path d="M0 0 C2.64 0.33 5.28 0.66 8 1 C7.01 2.485 7.01 2.485 6 4 C1.125 2.25 1.125 2.25 0 0 Z " fill="#3D3F3E" transform="translate(215,371)"/>
<path d="M0 0 C2.4375 0.6875 2.4375 0.6875 5 2 C5.8125 4.625 5.8125 4.625 6 7 C2.58841744 5.86280581 1.88145399 4.95657056 0 2 C0 1.34 0 0.68 0 0 Z " fill="#565857" transform="translate(118,312)"/>
<path d="M0 0 C2.125 0.9375 2.125 0.9375 4 2 C2.35 3.32 0.7 4.64 -1 6 C-1.33 4.35 -1.66 2.7 -2 1 C-1.34 0.67 -0.68 0.34 0 0 Z " fill="#404341" transform="translate(323,241)"/>
<path d="M0 0 C1.32 0.66 2.64 1.32 4 2 C0.04 3.98 0.04 3.98 -4 6 C-4 5.01 -4 4.02 -4 3 C-2.68 3 -1.36 3 0 3 C0 2.01 0 1.02 0 0 Z " fill="#5D5F5E" transform="translate(340,230)"/>
<path d="M0 0 C0.66 0.33 1.32 0.66 2 1 C1.34 2.65 0.68 4.3 0 6 C-1.65 5.67 -3.3 5.34 -5 5 C-3.35 3.35 -1.7 1.7 0 0 Z " fill="#575757" transform="translate(302,191)"/>
<path d="M0 0 C0.99 0.33 1.98 0.66 3 1 C2.67 2.32 2.34 3.64 2 5 C0.68 4.67 -0.64 4.34 -2 4 C-2 3.01 -2 2.02 -2 1 C-1.34 0.67 -0.68 0.34 0 0 Z " fill="#272727" transform="translate(237,130)"/>
<path d="M0 0 C1.65 0.99 3.3 1.98 5 3 C4.01 3.495 4.01 3.495 3 4 C3.33 4.99 3.66 5.98 4 7 C3.01 7 2.02 7 1 7 C0.67 4.69 0.34 2.38 0 0 Z " fill="#424443" transform="translate(291,121)"/>
<path d="M0 0 C2.6875 0.3125 2.6875 0.3125 5 1 C4.01 1.495 4.01 1.495 3 2 C2.34 1.67 1.68 1.34 1 1 C1 1.66 1 2.32 1 3 C1.66 3 2.32 3 3 3 C2.67 3.66 2.34 4.32 2 5 C-0.475 4.01 -0.475 4.01 -3 3 C-1.8125 1.4375 -1.8125 1.4375 0 0 Z " fill="#383A38" transform="translate(219,121)"/>
<path d="M0 0 C1.65 0 3.3 0 5 0 C5 1.32 5 2.64 5 4 C3.02 3.34 1.04 2.68 -1 2 C-0.67 1.34 -0.34 0.68 0 0 Z " fill="#616262" transform="translate(221,112)"/>
<path d="M0 0 C0.33 0 0.66 0 1 0 C1 2.64 1 5.28 1 8 C0.67 8 0.34 8 0 8 C0 5.36 0 2.72 0 0 Z " fill="#FFFFFF" transform="translate(245,368)"/>
<path d="M0 0 C0.33 0 0.66 0 1 0 C1 1.98 1 3.96 1 6 C0.67 6 0.34 6 0 6 C0 4.02 0 2.04 0 0 Z " fill="#FFFFFF" transform="translate(245,346)"/>
<path d="" fill="#EEEEEE" transform="translate(0,0)"/>
<path d="" fill="#FFFFFF" transform="translate(0,0)"/>
<path d="" fill="#F3F3F3" transform="translate(0,0)"/>
<path d="M0 0 C0.99 0.495 0.99 0.495 2 1 C1.01 1.495 1.01 1.495 0 2 C0 1.34 0 0.68 0 0 Z " fill="#D7D7D7" transform="translate(153,273)"/>
<path d="M0 0 C3 1 3 1 3 1 Z " fill="#DDF3F3" transform="translate(237,209)"/>
<path d="" fill="#F1F1F1" transform="translate(0,0)"/>
<path d="M0 0 C0.66 0.66 1.32 1.32 2 2 C1.34 2 0.68 2 0 2 C0 1.34 0 0.68 0 0 Z " fill="#E5E5E5" transform="translate(260,139)"/>
<path d="M0 0 C3 1 3 1 3 1 Z " fill="#F5F5F5" transform="translate(300,126)"/>
<path d="M0 0 C0.66 0 1.32 0 2 0 C1.67 0.66 1.34 1.32 1 2 C0.67 1.34 0.34 0.68 0 0 Z " fill="#D8D8D8" transform="translate(234,126)"/>
<path d="M0 0 C0.66 0.66 1.32 1.32 2 2 C1.34 2 0.68 2 0 2 C0 1.34 0 0.68 0 0 Z " fill="#F3F3F3" transform="translate(233,122)"/>
<path d="" fill="#FFFFFF" transform="translate(0,0)"/>
<path d="M0 0 C2 1 2 1 2 1 Z " fill="#E5E5E5" transform="translate(299,356)"/>
<path d="M0 0 C2 1 2 1 2 1 Z " fill="#FFFFFF" transform="translate(308,353)"/>
<path d="M0 0 C2 1 2 1 2 1 Z " fill="#FFFFFF" transform="translate(299,353)"/>
<path d="" fill="#E5E5E5" transform="translate(0,0)"/>
<path d="" fill="#EFEFEF" transform="translate(0,0)"/>
<path d="" fill="#EDEDED" transform="translate(0,0)"/>
<path d="M0 0 C2 1 2 1 2 1 Z " fill="#FFFFFF" transform="translate(317,308)"/>
<path d="M0 0 C2 1 2 1 2 1 Z " fill="#E1E1E1" transform="translate(315,307)"/>
<path d="M0 0 C2 1 2 1 2 1 Z " fill="#FFFFFF" transform="translate(326,306)"/>
<path d="" fill="#E7E7E7" transform="translate(0,0)"/>
<path d="M0 0 C2 1 2 1 2 1 Z " fill="#FFFFFF" transform="translate(343,300)"/>
<path d="M0 0 C2 1 2 1 2 1 Z " fill="#EDEDED" transform="translate(339,300)"/>
<path d="M0 0 C2 1 2 1 2 1 Z " fill="#DFDFDF" transform="translate(356,294)"/>
<path d="" fill="#FFFFFF" transform="translate(0,0)"/>
<path d="M0 0 C2 1 2 1 2 1 Z " fill="#D0D0D0" transform="translate(361,291)"/>
<path d="" fill="#EDEDED" transform="translate(0,0)"/>
<path d="" fill="#EFEFEF" transform="translate(0,0)"/>
<path d="" fill="#EAEAEA" transform="translate(0,0)"/>
<path d="M0 0 C2 1 2 1 2 1 Z " fill="#EAEAEA" transform="translate(178,275)"/>
<path d="M0 0 C2 1 2 1 2 1 Z " fill="#EDEDED" transform="translate(206,252)"/>
<path d="M0 0 C2 1 2 1 2 1 Z " fill="#DCDCDC" transform="translate(329,241)"/>
<path d="" fill="#E7E7E7" transform="translate(0,0)"/>
<path d="M0 0 C2 1 2 1 2 1 Z " fill="#EFEFEF" transform="translate(256,206)"/>
<path d="M0 0 C2 1 2 1 2 1 Z " fill="#E5E5E5" transform="translate(190,206)"/>
<path d="M0 0 C2 1 2 1 2 1 Z " fill="#E5E5E5" transform="translate(259,205)"/>
<path d="M0 0 C2 1 2 1 2 1 Z " fill="#FFFFFF" transform="translate(187,205)"/>
<path d="M0 0 C2 1 2 1 2 1 Z " fill="#DFDFDF" transform="translate(167,198)"/>
<path d="M0 0 C2 1 2 1 2 1 Z " fill="#FFFFFF" transform="translate(145,188)"/>
<path d="" fill="#EAEAEA" transform="translate(0,0)"/>
<path d="" fill="#D5D5D5" transform="translate(0,0)"/>
<path d="M0 0 C2 1 2 1 2 1 Z " fill="#E5E5E5" transform="translate(347,181)"/>
<path d="" fill="#DADADA" transform="translate(0,0)"/>
<path d="" fill="#E8E8E8" transform="translate(0,0)"/>
<path d="M0 0 C2 1 2 1 2 1 Z " fill="#DEDEDE" transform="translate(132,178)"/>
<path d="M0 0 C2 1 2 1 2 1 Z " fill="#D5D5D5" transform="translate(205,173)"/>
<path d="M0 0 C2 1 2 1 2 1 Z " fill="#DADADA" transform="translate(243,170)"/>
<path d="" fill="#E8E8E8" transform="translate(0,0)"/>
<path d="M0 0 C2 1 2 1 2 1 Z " fill="#E7EFEF" transform="translate(196,166)"/>
<path d="" fill="#D3DEDE" transform="translate(0,0)"/>
<path d="" fill="#CCCCCC" transform="translate(0,0)"/>
<path d="" fill="#DADADA" transform="translate(0,0)"/>
<path d="" fill="#F2F2F2" transform="translate(0,0)"/>
<path d="" fill="#E5E5E5" transform="translate(0,0)"/>
<path d="" fill="#FFFFFF" transform="translate(0,0)"/>
<path d="M0 0 C2 1 2 1 2 1 Z " fill="#EFEFEF" transform="translate(308,130)"/>
<path d="M0 0 C2 1 2 1 2 1 Z " fill="#FFFFFF" transform="translate(245,130)"/>
<path d="M0 0 C2 1 2 1 2 1 Z " fill="#D1D1D1" transform="translate(240,130)"/>
<path d="M0 0 C2 1 2 1 2 1 Z " fill="#D8D8D8" transform="translate(304,125)"/>
<path d="M0 0 C2 1 2 1 2 1 Z " fill="#E5E5E5" transform="translate(300,123)"/>
<path d="" fill="#FFFFFF" transform="translate(0,0)"/>
<path d="" fill="#D1E8D1" transform="translate(0,0)"/>
<path d="" fill="#FFFFFF" transform="translate(0,0)"/>
<path d="" fill="#D5D5D5" transform="translate(0,0)"/>
<path d="" fill="#FFFFFF" transform="translate(0,0)"/>
<path d="" fill="#BFBFBF" transform="translate(0,0)"/>
<path d="" fill="#FFFFFF" transform="translate(0,0)"/>
<path d="" fill="#E6E6E6" transform="translate(0,0)"/>
<path d="" fill="#D5D5D5" transform="translate(0,0)"/>
<path d="" fill="#D8D8D8" transform="translate(0,0)"/>
<path d="" fill="#FFFFFF" transform="translate(0,0)"/>
<path d="" fill="#CCCCCC" transform="translate(0,0)"/>
<path d="" fill="#DBDBDB" transform="translate(0,0)"/>
<path d="" fill="#E6E6E6" transform="translate(0,0)"/>
<path d="" fill="#D5D5D5" transform="translate(0,0)"/>
<path d="" fill="#DBDBDB" transform="translate(0,0)"/>
<path d="" fill="#D5D5D5" transform="translate(0,0)"/>
<path d="" fill="#FFFFFF" transform="translate(0,0)"/>
<path d="" fill="#CCCCCC" transform="translate(0,0)"/>
<path d="" fill="#FFFFFF" transform="translate(0,0)"/>
<path d="" fill="#CCCCCC" transform="translate(0,0)"/>
<path d="" fill="#DFDFDF" transform="translate(0,0)"/>
<path d="" fill="#D5D5D5" transform="translate(0,0)"/>
<path d="" fill="#FFFFFF" transform="translate(0,0)"/>
<path d="" fill="#FFFFFF" transform="translate(0,0)"/>
<path d="" fill="#CCCCCC" transform="translate(0,0)"/>
<path d="" fill="#FFFFFF" transform="translate(0,0)"/>
<path d="" fill="#FFFFFF" transform="translate(0,0)"/>
<path d="" fill="#FFFFFF" transform="translate(0,0)"/>
<path d="" fill="#FFFFFF" transform="translate(0,0)"/>
<path d="" fill="#FFFFFF" transform="translate(0,0)"/>
<path d="" fill="#FFFFFF" transform="translate(0,0)"/>
<path d="" fill="#CCCCCC" transform="translate(0,0)"/>
<path d="" fill="#FFFFFF" transform="translate(0,0)"/>
<path d="" fill="#FFFFFF" transform="translate(0,0)"/>
<path d="" fill="#FFFFFF" transform="translate(0,0)"/>
<path d="" fill="#BFBFBF" transform="translate(0,0)"/>
<path d="" fill="#E6E6E6" transform="translate(0,0)"/>
<path d="" fill="#FFFFFF" transform="translate(0,0)"/>
<path d="" fill="#FFFFFF" transform="translate(0,0)"/>
<path d="" fill="#FFFFFF" transform="translate(0,0)"/>
<path d="" fill="#D5D5D5" transform="translate(0,0)"/>
<path d="" fill="#FFFFFF" transform="translate(0,0)"/>
<path d="" fill="#DFDFDF" transform="translate(0,0)"/>
<path d="" fill="#FFFFFF" transform="translate(0,0)"/>
<path d="" fill="#FFFFFF" transform="translate(0,0)"/>
<path d="" fill="#FFFFFF" transform="translate(0,0)"/>
<path d="" fill="#FFFFFF" transform="translate(0,0)"/>
<path d="" fill="#D1D1D1" transform="translate(0,0)"/>
<path d="" fill="#D5D5D5" transform="translate(0,0)"/>
<path d="" fill="#FFFFFF" transform="translate(0,0)"/>
<path d="" fill="#D8D8D8" transform="translate(0,0)"/>
<path d="" fill="#DBDBDB" transform="translate(0,0)"/>
<path d="" fill="#FFFFFF" transform="translate(0,0)"/>
<path d="" fill="#BFBFBF" transform="translate(0,0)"/>
<path d="" fill="#CCCCCC" transform="translate(0,0)"/>
<path d="" fill="#E3E3E3" transform="translate(0,0)"/>
<path d="" fill="#FFFFFF" transform="translate(0,0)"/>
<path d="" fill="#FFFFFF" transform="translate(0,0)"/>
<path d="" fill="#DBDBDB" transform="translate(0,0)"/>
<path d="" fill="#FFFFFF" transform="translate(0,0)"/>
<path d="" fill="#FFFFFF" transform="translate(0,0)"/>
<path d="" fill="#FFFFFF" transform="translate(0,0)"/>
<path d="" fill="#FFFFFF" transform="translate(0,0)"/>
<path d="" fill="#D8D8D8" transform="translate(0,0)"/>
<path d="" fill="#FFFFFF" transform="translate(0,0)"/>
<path d="" fill="#DFDFDF" transform="translate(0,0)"/>
<path d="" fill="#FFFFFF" transform="translate(0,0)"/>
<path d="" fill="#D8D8D8" transform="translate(0,0)"/>
<path d="" fill="#FFFFFF" transform="translate(0,0)"/>
<path d="" fill="#D1D1D1" transform="translate(0,0)"/>
<path d="" fill="#FFFFFF" transform="translate(0,0)"/>
<path d="" fill="#D5D5D5" transform="translate(0,0)"/>
<path d="" fill="#C6E3C6" transform="translate(0,0)"/>
<path d="" fill="#FFFFFF" transform="translate(0,0)"/>
<path d="" fill="#CFCFCF" transform="translate(0,0)"/>
<path d="" fill="#FFFFFF" transform="translate(0,0)"/>
<path d="" fill="#E3E3E3" transform="translate(0,0)"/>
<path d="" fill="#FFFFFF" transform="translate(0,0)"/>
<path d="" fill="#E6E6E6" transform="translate(0,0)"/>
<path d="" fill="#FFFFFF" transform="translate(0,0)"/>
<path d="" fill="#FFFFFF" transform="translate(0,0)"/>
<path d="" fill="#CCCCCC" transform="translate(0,0)"/>
<path d="" fill="#DBDBDB" transform="translate(0,0)"/>
<path d="" fill="#FFFFFF" transform="translate(0,0)"/>
<path d="" fill="#CCCCCC" transform="translate(0,0)"/>
<path d="" fill="#BFBFBF" transform="translate(0,0)"/>
<path d="" fill="#D5D5D5" transform="translate(0,0)"/>
<path d="" fill="#DBDBDB" transform="translate(0,0)"/>
<path d="" fill="#FFFFFF" transform="translate(0,0)"/>
<path d="" fill="#D2D2D2" transform="translate(0,0)"/>
<path d="" fill="#FFFFFF" transform="translate(0,0)"/>
<path d="" fill="#FFFFFF" transform="translate(0,0)"/>
<path d="" fill="#FFFFFF" transform="translate(0,0)"/>
<path d="" fill="#FFFFFF" transform="translate(0,0)"/>
<path d="" fill="#BFBFBF" transform="translate(0,0)"/>
<path d="" fill="#DBDBDB" transform="translate(0,0)"/>
<path d="" fill="#DBDBDB" transform="translate(0,0)"/>
<path d="" fill="#BFBFBF" transform="translate(0,0)"/>
<path d="" fill="#D5D5D5" transform="translate(0,0)"/>
<path d="" fill="#FFFFFF" transform="translate(0,0)"/>
<path d="" fill="#D1D1D1" transform="translate(0,0)"/>
<path d="" fill="#D5D5D5" transform="translate(0,0)"/>
<path d="" fill="#FFFFFF" transform="translate(0,0)"/>
<path d="" fill="#D8D8D8" transform="translate(0,0)"/>
<path d="" fill="#BFBFBF" transform="translate(0,0)"/>
<path d="" fill="#FFFFFF" transform="translate(0,0)"/>
<path d="" fill="#FFFFFF" transform="translate(0,0)"/>
<path d="" fill="#FFFFFF" transform="translate(0,0)"/>
<path d="" fill="#FFFFFF" transform="translate(0,0)"/>
<path d="" fill="#FFFFFF" transform="translate(0,0)"/>
<path d="" fill="#FFFFFF" transform="translate(0,0)"/>
<path d="" fill="#D5D5D5" transform="translate(0,0)"/>
<path d="" fill="#FFFFFF" transform="translate(0,0)"/>
<path d="" fill="#FFFFFF" transform="translate(0,0)"/>
<path d="" fill="#FFFFFF" transform="translate(0,0)"/>
<path d="" fill="#FFFFFF" transform="translate(0,0)"/>
<path d="" fill="#DBDBDB" transform="translate(0,0)"/>
<path d="" fill="#D5D5D5" transform="translate(0,0)"/>
<path d="" fill="#FFFFFF" transform="translate(0,0)"/>
<path d="" fill="#CCCCCC" transform="translate(0,0)"/>
<path d="" fill="#FFFFFF" transform="translate(0,0)"/>
<path d="" fill="#FFFFFF" transform="translate(0,0)"/>
<path d="" fill="#BFBFBF" transform="translate(0,0)"/>
<path d="" fill="#CFCFCF" transform="translate(0,0)"/>
<path d="" fill="#CCCCCC" transform="translate(0,0)"/>
<path d="" fill="#CCCCCC" transform="translate(0,0)"/>
<path d="" fill="#BFBFBF" transform="translate(0,0)"/>
<path d="" fill="#CCCCCC" transform="translate(0,0)"/>
<path d="" fill="#E3E3E3" transform="translate(0,0)"/>
<path d="" fill="#FFFFFF" transform="translate(0,0)"/>
<path d="" fill="#FFFFFF" transform="translate(0,0)"/>
<path d="" fill="#FFFFFF" transform="translate(0,0)"/>
<path d="" fill="#E3E3E3" transform="translate(0,0)"/>
<path d="" fill="#D5D5D5" transform="translate(0,0)"/>
<path d="" fill="#FFFFFF" transform="translate(0,0)"/>
<path d="" fill="#FFFFFF" transform="translate(0,0)"/>
<path d="" fill="#D5D5D5" transform="translate(0,0)"/>
<path d="" fill="#FFFFFF" transform="translate(0,0)"/>
<path d="" fill="#D5D5D5" transform="translate(0,0)"/>
<path d="" fill="#FFFFFF" transform="translate(0,0)"/>
<path d="" fill="#DBDBDB" transform="translate(0,0)"/>
<path d="" fill="#E6E6E6" transform="translate(0,0)"/>
<path d="" fill="#E6E6E6" transform="translate(0,0)"/>
<path d="" fill="#E3E3E3" transform="translate(0,0)"/>
<path d="" fill="#FFFFFF" transform="translate(0,0)"/>
<path d="" fill="#FFFFFF" transform="translate(0,0)"/>
<path d="" fill="#BFBFBF" transform="translate(0,0)"/>
<path d="" fill="#E3E3E3" transform="translate(0,0)"/>
<path d="" fill="#D5D5D5" transform="translate(0,0)"/>
<path d="" fill="#FFFFFF" transform="translate(0,0)"/>
<path d="" fill="#FFFFFF" transform="translate(0,0)"/>
<path d="" fill="#FFFFFF" transform="translate(0,0)"/>
<path d="" fill="#DBDBDB" transform="translate(0,0)"/>
<path d="" fill="#E3E3E3" transform="translate(0,0)"/>
<path d="" fill="#CECECE" transform="translate(0,0)"/>
<path d="" fill="#FFFFFF" transform="translate(0,0)"/>
<path d="" fill="#D5D5D5" transform="translate(0,0)"/>
<path d="" fill="#BFBFBF" transform="translate(0,0)"/>
<path d="" fill="#D5D5D5" transform="translate(0,0)"/>
<path d="" fill="#FFFFFF" transform="translate(0,0)"/>
<path d="" fill="#FFFFFF" transform="translate(0,0)"/>
<path d="" fill="#DBDBDB" transform="translate(0,0)"/>
<path d="" fill="#D5D5D5" transform="translate(0,0)"/>
<path d="" fill="#FFFFFF" transform="translate(0,0)"/>
<path d="" fill="#FFFFFF" transform="translate(0,0)"/>
<path d="" fill="#FFFFFF" transform="translate(0,0)"/>
<path d="" fill="#CCCCCC" transform="translate(0,0)"/>
<path d="" fill="#E3E3E3" transform="translate(0,0)"/>
<path d="" fill="#E3E3E3" transform="translate(0,0)"/>
<path d="" fill="#FFFFFF" transform="translate(0,0)"/>
<path d="" fill="#FFFFFF" transform="translate(0,0)"/>
<path d="" fill="#BFBFBF" transform="translate(0,0)"/>
<path d="" fill="#BFBFBF" transform="translate(0,0)"/>
<path d="" fill="#DFDFDF" transform="translate(0,0)"/>
<path d="" fill="#C6C6C6" transform="translate(0,0)"/>
<path d="" fill="#D5D5D5" transform="translate(0,0)"/>
<path d="" fill="#FFFFFF" transform="translate(0,0)"/>
<path d="" fill="#E3E3E3" transform="translate(0,0)"/>
<path d="" fill="#FFFFFF" transform="translate(0,0)"/>
<path d="" fill="#D5D5D5" transform="translate(0,0)"/>
<path d="" fill="#FFFFFF" transform="translate(0,0)"/>
<path d="" fill="#FFFFFF" transform="translate(0,0)"/>
<path d="" fill="#BFBFBF" transform="translate(0,0)"/>
<path d="" fill="#CCCCCC" transform="translate(0,0)"/>
<path d="" fill="#CCCCCC" transform="translate(0,0)"/>
<path d="" fill="#DFDFDF" transform="translate(0,0)"/>
<path d="" fill="#FFFFFF" transform="translate(0,0)"/>
<path d="" fill="#FFFFFF" transform="translate(0,0)"/>
<path d="" fill="#DBDBDB" transform="translate(0,0)"/>
<path d="" fill="#DBDBDB" transform="translate(0,0)"/>
<path d="" fill="#E6E6E6" transform="translate(0,0)"/>
<path d="" fill="#FFFFFF" transform="translate(0,0)"/>
<path d="" fill="#CCCCCC" transform="translate(0,0)"/>
<path d="" fill="#BFBFBF" transform="translate(0,0)"/>
<path d="" fill="#CCCCCC" transform="translate(0,0)"/>
<path d="" fill="#DFDFDF" transform="translate(0,0)"/>
<path d="" fill="#FFFFFF" transform="translate(0,0)"/>
<path d="" fill="#DDDDDD" transform="translate(0,0)"/>
<path d="" fill="#FFFFFF" transform="translate(0,0)"/>
<path d="" fill="#FFFFFF" transform="translate(0,0)"/>
<path d="" fill="#D1D1D1" transform="translate(0,0)"/>
<path d="" fill="#D8D8D8" transform="translate(0,0)"/>
<path d="" fill="#D5D5D5" transform="translate(0,0)"/>
<path d="" fill="#D8D8D8" transform="translate(0,0)"/>
<path d="" fill="#DBDBDB" transform="translate(0,0)"/>
<path d="" fill="#DFDFDF" transform="translate(0,0)"/>
<path d="" fill="#D5D5D5" transform="translate(0,0)"/>
<path d="" fill="#FFFFFF" transform="translate(0,0)"/>
<path d="" fill="#FFFFFF" transform="translate(0,0)"/>
<path d="" fill="#D1D1D1" transform="translate(0,0)"/>
<path d="" fill="#FFFFFF" transform="translate(0,0)"/>
</svg>
