<?xml version="1.0" encoding="UTF-8"?>
<svg version="1.1" xmlns="http://www.w3.org/2000/svg" width="480" height="480">
<path d="M0 0 C158.4 0 316.8 0 480 0 C480 158.4 480 316.8 480 480 C321.6 480 163.2 480 0 480 C0 321.6 0 163.2 0 0 Z " fill="#E4E6E5" transform="translate(0,0)"/>
<path d="M0 0 C4.67669571 1.69059334 8.87117875 4.06424524 13.1875 6.5 C14.80982634 7.40897821 16.43222412 8.31782893 18.0546875 9.2265625 C18.87936523 9.6896582 19.70404297 10.15275391 20.55371094 10.62988281 C23.57260316 12.32070349 26.60070142 13.99449921 29.62963867 15.66723633 C32.60651692 17.31432465 35.57659778 18.97347181 38.54638672 20.63330078 C40.28532289 21.60191418 42.02679678 22.56597806 43.77001953 23.52685547 C46.64397021 25.11216531 49.50992426 26.71121768 52.375 28.3125 C53.27323486 28.80411621 54.17146973 29.29573242 55.09692383 29.80224609 C60.37743654 32.77420818 64.21527089 35.43054177 67 41 C67.375 44.3125 67.375 44.3125 67 48 C63.16333957 52.67071705 58.44671137 55.29705565 53.25 58.1875 C51.55052578 59.15319639 49.85131256 60.11935221 48.15234375 61.0859375 C47.29495605 61.57030273 46.43756836 62.05466797 45.55419922 62.55371094 C31.2431018 70.47305423 31.2431018 70.47305423 18 80 C16.97648438 80.83015625 15.95296875 81.6603125 14.8984375 82.515625 C13.78550771 83.42592234 12.67353035 84.33738534 11.5625 85.25 C11.02906982 85.68699219 10.49563965 86.12398438 9.94604492 86.57421875 C7.05218978 88.93397716 7.05218978 88.93397716 5 92 C4.34 92 3.68 92 3 92 C2.77441406 92.54011719 2.54882812 93.08023438 2.31640625 93.63671875 C0.93393032 96.11861173 -0.74078646 98.09840862 -2.62963867 100.21020508 C-22.10213593 121.98529445 -35.84008255 152.77008021 -37 182 C-37.03786621 182.72993164 -37.07573242 183.45986328 -37.11474609 184.21191406 C-37.87051745 200.02252337 -36.12845046 215.0792449 -26 228 C-24.08504175 229.8364406 -22.11497306 231.38859196 -20 233 C-20 233.66 -20 234.32 -20 235 C-19.154375 235.268125 -18.30875 235.53625 -17.4375 235.8125 C-14 237 -14 237 -10.86328125 238.5546875 C-6.50770549 240.43204128 -2.43406473 240.41394971 2.25 240.3125 C3.08249268 240.30412109 3.91498535 240.29574219 4.77270508 240.28710938 C10.98662773 240.16634516 16.95900965 239.52042903 23 238 C19.177039 241.13340835 14.88710247 243.33819988 10.5625 245.6875 C3.89455888 249.34538792 -2.60600948 253.16677473 -9.0546875 257.19921875 C-12.7127105 259.43575536 -16.45333078 261.4755781 -20.2421875 263.48046875 C-22.21877978 264.5695543 -24.15848836 265.72663455 -26.0703125 266.92578125 C-36.26387825 273.29995332 -36.26387825 273.29995332 -43 272 C-45.8100346 270.20636089 -47.50940468 268.98119065 -49 266 C-49.09358042 264.39051762 -49.12513598 262.77723946 -49.12597656 261.16503906 C-49.13168671 259.65009857 -49.13168671 259.65009857 -49.13751221 258.10455322 C-49.13853943 257.00270691 -49.13956665 255.9008606 -49.140625 254.765625 C-49.15899335 252.41144897 -49.1785672 250.05728211 -49.19921875 247.703125 C-49.22785191 244.00896191 -49.2499912 240.31537397 -49.25048828 236.62109375 C-49.28222456 203.2889348 -57.38684565 171.79710065 -78 145 C-78.42603516 144.44151367 -78.85207031 143.88302734 -79.29101562 143.30761719 C-80.7281096 141.428264 -82.17410839 139.55621932 -83.625 137.6875 C-84.30828369 136.8063855 -84.30828369 136.8063855 -85.00537109 135.9074707 C-98.23475258 119.12002379 -118.37233653 103.36084555 -140 100 C-153.46895804 99.29680139 -164.25550699 99.96441173 -175 109 C-182.45136473 116.9363648 -186.19302854 125.62271159 -189 136 C-189.33 136 -189.66 136 -190 136 C-190.09281853 127.36798181 -190.16382466 118.73613631 -190.20724869 110.10372734 C-190.2280937 106.09501348 -190.25635406 102.08664189 -190.30175781 98.078125 C-190.34532699 94.20720191 -190.36916032 90.33660735 -190.37950897 86.46545792 C-190.3868806 84.99108842 -190.40127592 83.51673622 -190.42292023 82.04250717 C-190.45210357 79.97179541 -190.4559501 77.9024284 -190.45410156 75.83154297 C-190.46742523 74.06615677 -190.46742523 74.06615677 -190.48101807 72.2651062 C-189.89237245 68.26943416 -188.5068043 66.13249556 -186 63 C-183.10781 61.07187333 -181.59783665 60.42287117 -178.16357422 60.53173828 C-173.16046647 61.61455939 -168.86453282 64.77946555 -164.5625 67.4375 C-162.41058693 68.7285827 -160.25824247 70.01894663 -158.10546875 71.30859375 C-156.53804932 72.25774658 -156.53804932 72.25774658 -154.93896484 73.22607422 C-129.76120497 88.42308396 -105.98795926 96.24103652 -76.4375 96.1875 C-75.72146606 96.18623108 -75.00543213 96.18496216 -74.2677002 96.18365479 C-46.94576478 96.09112878 -20.33824635 90.65041406 2 74 C2.81339844 73.40703125 3.62679687 72.8140625 4.46484375 72.203125 C12.50072091 65.77442327 18.36506203 55.93564414 21 46 C22.25791308 32.96743538 19.8059218 22.95087391 12.08203125 12.43359375 C9.00464107 8.83656921 5.54695078 5.77230252 1.94140625 2.71484375 C1.30074219 2.14894531 0.66007813 1.58304687 0 1 C0 0.67 0 0.34 0 0 Z " fill="#060707" transform="translate(300,118)"/>
<path d="M0 0 C0.12432113 5.12279571 0.2146756 10.2446986 0.2746582 15.36865234 C0.29968233 17.10871696 0.33371294 18.84867773 0.37719727 20.58837891 C0.4383892 23.10084755 0.46632959 25.6119178 0.48828125 28.125 C0.51408768 28.89303955 0.5398941 29.6610791 0.56648254 30.45239258 C0.5695247 36.41468699 -1.16977521 40.4278629 -5 45 C-7.44091797 46.95874023 -7.44091797 46.95874023 -9.9921875 48.30859375 C-10.93739258 48.82309082 -11.88259766 49.33758789 -12.85644531 49.86767578 C-14.35062988 50.64473877 -14.35062988 50.64473877 -15.875 51.4375 C-17.95105577 52.56802864 -20.02657645 53.69954043 -22.1015625 54.83203125 C-23.6160498 55.64534912 -23.6160498 55.64534912 -25.16113281 56.47509766 C-44.86537713 67.05926604 -57.09337292 78.82466557 -65.1875 100.125 C-68.22490174 110.87272923 -67.6683064 119.89070201 -63 130 C-60.33411076 134.26542279 -57.74576088 136.2986895 -53 138 C-37.3071031 140.8390728 -18.22192396 125.95741954 -5.98046875 117.62109375 C-5.26141357 117.11892334 -4.5423584 116.61675293 -3.80151367 116.09936523 C-2 115 -2 115 0 115 C0.14700894 118.95793295 0.2346378 122.91515092 0.3125 126.875 C0.35439453 127.98359375 0.39628906 129.0921875 0.43945312 130.234375 C0.5504204 137.78015004 -0.08991434 144.00740187 -5 150 C-8.55063706 152.8488211 -12.35311154 154.94940961 -16.375 157.0625 C-18.54218437 158.25817671 -20.70885198 159.45479056 -22.875 160.65234375 C-24.45087891 161.50675049 -24.45087891 161.50675049 -26.05859375 162.37841797 C-29.91194089 164.50274829 -33.6406039 166.80060482 -37.375 169.125 C-42.71597848 172.37691682 -48.04108494 175.07054807 -54 177 C-54.64839844 177.22300781 -55.29679687 177.44601562 -55.96484375 177.67578125 C-65.94459582 180.67582942 -76.70427476 179.6986281 -85.96484375 175.00390625 C-95.5475843 168.94392371 -99.79216285 157.18856058 -102.6171875 146.7109375 C-107.27633996 113.71653132 -93.02703561 81.72016839 -74.19140625 55.48046875 C-58.99912789 35.44630952 -40.69742271 22.90548957 -18.91967773 10.99731445 C-13.3090947 7.91911746 -7.89872824 4.72643481 -2.64013672 1.07519531 C-1 0 -1 0 0 0 Z " fill="#060606" transform="translate(372,173)"/>
<path d="M0 0 C14.08528953 5.20844244 25.30708637 14.03516148 36.1796875 24.17578125 C36.81003906 24.76359375 37.44039063 25.35140625 38.08984375 25.95703125 C54.9484216 42.23957568 66.32434244 63.99959384 73.1796875 86.17578125 C73.49035156 87.13097656 73.80101562 88.08617187 74.12109375 89.0703125 C77.03228437 98.22579604 77.34593443 107.07870302 77.4609375 116.62890625 C77.47934692 117.8066864 77.49775635 118.98446655 77.51672363 120.19793701 C77.59505045 125.21259918 77.66328161 130.22738492 77.73193359 135.2421875 C77.7836528 138.91282784 77.84087749 142.58335361 77.8984375 146.25390625 C77.91201294 147.38934875 77.92558838 148.52479126 77.9395752 149.69464111 C77.95629272 150.74963806 77.97301025 151.80463501 77.99023438 152.89160156 C78.00276245 153.81789368 78.01529053 154.74418579 78.02819824 155.69854736 C78.16840513 157.99128583 78.53685672 159.97699133 79.1796875 162.17578125 C66.99794227 157.79035297 48.1721524 149.12560174 42.1796875 137.17578125 C41.4821243 133.52284147 41.50478614 129.94871903 41.54296875 126.23828125 C41.52740181 124.67992554 41.52740181 124.67992554 41.51152039 123.09008789 C41.48193069 119.78497927 41.48519922 116.48099785 41.4921875 113.17578125 C41.48327227 109.87088151 41.46723463 106.56628051 41.4407196 103.26147461 C41.42589619 101.21025581 41.42194654 99.15892056 41.43049622 97.10766602 C41.40904866 91.71665941 40.95987705 87.27201837 39.1796875 82.17578125 C38.89609375 81.34433594 38.6125 80.51289063 38.3203125 79.65625 C33.14142071 66.3228751 24.61370287 52.40643026 11.1796875 46.17578125 C4.903001 43.46363276 -1.16880035 41.72326444 -7.921875 43.83203125 C-13.00556636 46.04067619 -16.47351429 49.11834015 -18.8203125 54.17578125 C-20.68176034 60.37426417 -21.08964706 65.91462377 -21.015625 72.36328125 C-21.01138016 73.77794678 -21.01138016 73.77794678 -21.00704956 75.22119141 C-20.99593692 78.20618881 -20.97084922 81.19087594 -20.9453125 84.17578125 C-20.93527116 86.21093314 -20.92614734 88.24608977 -20.91796875 90.28125 C-20.89602685 95.24621162 -20.86155923 100.210944 -20.8203125 105.17578125 C-34.22434084 98.55299671 -34.22434084 98.55299671 -38.7578125 95.80078125 C-40.03978516 95.04667969 -40.03978516 95.04667969 -41.34765625 94.27734375 C-45.44006931 90.7991159 -48.34735025 86.91302643 -49.27818298 81.52587891 C-49.44622632 78.47479985 -49.46124737 75.46160069 -49.4140625 72.40625 C-49.41410278 71.28946365 -49.41414307 70.17267731 -49.41418457 69.02204895 C-49.40884252 66.66788078 -49.39131661 64.31371226 -49.36230469 61.9597168 C-49.32056247 58.38468968 -49.32123394 54.81155732 -49.328125 51.23632812 C-49.31762677 48.93878917 -49.30468528 46.64125982 -49.2890625 44.34375 C-49.28886108 43.28818405 -49.28865967 42.2326181 -49.28845215 41.14506531 C-49.09146522 28.58658787 -45.78950623 16.17868146 -37.0703125 6.80078125 C-33.09095635 3.05594989 -28.9037753 1.04253004 -23.8203125 -0.82421875 C-17.18467648 -4.14203676 -6.86485022 -1.92106551 0 0 Z " fill="#050606" transform="translate(165.8203125,225.82421875)"/>
<path d="M0 0 C6.74194602 3.20488565 13.28852102 6.84403515 19.6171875 10.80078125 C21.64318468 12.04848056 23.67550409 13.23241661 25.75 14.39453125 C38.80420444 21.79269399 52.45516177 31.42040339 57.23046875 46.41015625 C57.4453092 49.08310631 57.55544009 51.61629023 57.54296875 54.28515625 C57.55908203 54.96707031 57.57519531 55.64898437 57.59179688 56.3515625 C57.60173893 66.79072225 51.33353583 74.69735493 44.5625 82.171875 C40.56893804 86.00489176 36.04133247 88.71715518 31.23046875 91.41015625 C30.42738281 91.86132812 29.62429688 92.3125 28.796875 92.77734375 C-1.43297653 108.76094341 -40.54696172 111.1018105 -73.14453125 101.22265625 C-87.73669452 96.41472788 -100.96447108 88.14688312 -114.2265625 80.55859375 C-118.048893 78.38196063 -121.8748738 76.21260999 -125.71875 74.07421875 C-127.02912231 73.34259521 -127.02912231 73.34259521 -128.3659668 72.59619141 C-130.52662178 71.53001955 -132.41654852 70.87604615 -134.76953125 70.41015625 C-134.76953125 69.75015625 -134.76953125 69.09015625 -134.76953125 68.41015625 C-133.76535156 67.85328125 -132.76117188 67.29640625 -131.7265625 66.72265625 C-131.07147705 66.35712646 -130.4163916 65.99159668 -129.74145508 65.61499023 C-128.28847806 64.80431284 -126.8338532 63.99658258 -125.37768555 63.19165039 C-121.91302199 61.2579992 -118.52653522 59.30033406 -115.26953125 57.03125 C-109.04814166 52.76929316 -104.02766726 49.99021056 -96.34375 50.5 C-88.42878411 52.51550498 -81.6334432 57.11567166 -74.76953125 61.41015625 C-72.14943703 63.02242703 -69.52387818 64.62552341 -66.89453125 66.22265625 C-65.98006226 66.7794104 -65.98006226 66.7794104 -65.04711914 67.34741211 C-50.91290841 75.8225854 -33.81317548 79.46945634 -17.41601562 75.89746094 C-7.38188007 72.959459 2.98770767 68.88745513 8.23046875 59.41015625 C8.76414062 58.49556641 8.76414062 58.49556641 9.30859375 57.5625 C11.10297871 53.37306732 10.7553028 48.86800595 10.23046875 44.41015625 C8.69793718 40.98555303 8.69793718 40.98555303 6.23046875 38.41015625 C5.24820313 37.28867188 5.24820313 37.28867188 4.24609375 36.14453125 C0.32818815 32.25906461 -4.57988279 29.76018957 -9.33203125 27.03515625 C-10.80506714 26.17796997 -10.80506714 26.17796997 -12.30786133 25.3034668 C-15.12460248 23.66566417 -17.94659246 22.037245 -20.76953125 20.41015625 C-23.16718895 19.01742324 -25.56214858 17.62016149 -27.95703125 16.22265625 C-28.83746094 15.71347656 -29.71789062 15.20429687 -30.625 14.6796875 C-32.37345598 13.64462704 -34.07892288 12.53722849 -35.76953125 11.41015625 C-10.39177691 -4.61999265 -10.39177691 -4.61999265 0 0 Z " fill="#060606" transform="translate(256.76953125,101.58984375)"/>
<path d="M0 0 C2.66031543 1.22518431 5.20460681 2.61534253 7.75 4.0625 C8.45721191 4.4637207 9.16442383 4.86494141 9.89306641 5.27832031 C17.01320578 9.42670314 24.43259963 13.77179492 27 22 C27.99781159 28.43851058 27.09632822 32.9725489 23.38671875 38.30859375 C20.70786297 41.5760432 18.2651086 43.5459563 14.5 45.5 C10.70359663 47.51255118 6.96644151 49.58819128 3.26171875 51.765625 C2.42640625 52.25611328 1.59109375 52.74660156 0.73046875 53.25195312 C-0.93999433 54.23601241 -2.60804956 55.22417279 -4.2734375 56.21679688 C-11.32418186 60.35780242 -16.79329076 62.40360865 -25 62 C-28.37116564 60.87627812 -28.55882121 60.52837401 -30.125 57.5625 C-30.45757812 56.94503906 -30.79015625 56.32757813 -31.1328125 55.69140625 C-34.56301395 49.00096829 -33.86641779 40.12064784 -31.9375 32.9375 C-27.10246987 19.24199604 -19.11663473 8.09124349 -7.140625 -0.13671875 C-4.22578087 -1.31223071 -2.98972647 -0.98798432 0 0 Z " fill="#060707" transform="translate(345,242)"/>
<path d="M0 0 C11.97841217 4.85363796 21.51658899 16.01822707 26.75 27.625 C29.08056043 33.91751317 30.24437886 39.19259454 30.125 45.9375 C30.11597656 46.62134766 30.10695312 47.30519531 30.09765625 48.00976562 C30.07438958 49.67333287 30.03853167 51.33671631 30 53 C29.48091064 53.28721924 28.96182129 53.57443848 28.42700195 53.87036133 C26.05499613 55.1834974 23.68374289 56.49798679 21.3125 57.8125 C20.49587891 58.26431641 19.67925781 58.71613281 18.83789062 59.18164062 C17.64389648 59.84389648 17.64389648 59.84389648 16.42578125 60.51953125 C15.65000732 60.94758057 14.8742334 61.37562988 14.07495117 61.81665039 C12.45013031 62.74328961 10.87385477 63.75514112 9.3203125 64.796875 C4.60723658 67.24069214 -0.85097303 66.59012778 -6 66 C-9.5625 64.25 -9.5625 64.25 -12 62 C-12.7425 61.38125 -13.485 60.7625 -14.25 60.125 C-18.53648253 54.9199855 -18.3074998 48.84276245 -18.30078125 42.4375 C-18.30720894 41.07322876 -18.30720894 41.07322876 -18.31376648 39.68139648 C-18.31949016 37.76514516 -18.32002456 35.84887212 -18.31567383 33.93261719 C-18.31251016 31.00938766 -18.33601028 28.0871674 -18.36132812 25.1640625 C-18.36360103 23.29687627 -18.36430466 21.42968733 -18.36328125 19.5625 C-18.372491 18.69359131 -18.38170074 17.82468262 -18.39118958 16.92944336 C-18.34362748 10.6600138 -17.14989413 6.47563567 -12.9375 1.625 C-8.54916125 -0.80259165 -4.89807788 -0.92106712 0 0 Z " fill="#050605" transform="translate(170,276)"/>
<path d="M0 0 C5.16721057 2.38254876 10.04222598 5.25196958 14.90771484 8.19140625 C16.45652344 9.09632813 16.45652344 9.09632813 18.03662109 10.01953125 C20.34591119 11.38239098 22.62918386 12.77803177 24.90771484 14.19140625 C25.74302734 14.67738281 26.57833984 15.16335937 27.43896484 15.6640625 C29.69741379 17.06129911 31.65280076 18.51956685 33.65771484 20.25390625 C34.25068359 20.76050781 34.84365234 21.26710937 35.45458984 21.7890625 C38.04855468 24.29237802 38.14539818 26.45567544 38.28271484 29.94140625 C38.19619487 33.96170118 37.83628441 36.75354892 34.86083984 39.74609375 C21.20603301 49.85065081 7.31030765 50.35267845 -9.09228516 49.19140625 C-13.14409188 48.37512369 -16.52322923 47.26005405 -20.09228516 45.19140625 C-21.11233643 44.64363525 -22.1323877 44.09586426 -23.18334961 43.53149414 C-26.09228516 41.19140625 -26.09228516 41.19140625 -26.83691406 38.09448242 C-26.83095215 36.90314697 -26.82499023 35.71181152 -26.81884766 34.484375 C-26.81755859 33.17533203 -26.81626953 31.86628906 -26.81494141 30.51757812 C-26.79834473 29.83751709 -26.78174805 29.15745605 -26.76464844 28.45678711 C-26.71764551 26.39471557 -26.72349902 24.33785841 -26.73681641 22.27539062 C-26.64537081 13.80835954 -26.02520075 8.96334384 -20.62744141 2.4140625 C-14.63361514 -2.30786429 -7.04489866 -2.72260261 0 0 Z " fill="#050605" transform="translate(222.09228515625,121.80859375)"/>
<path d="M0 0 C0.99 0 1.98 0 3 0 C3 0.66 3 1.32 3 2 C3.721875 2.226875 4.44375 2.45375 5.1875 2.6875 C7.88607831 3.94683655 9.4880641 5.23826746 11.4921875 7.40625 C12.63881825 8.61823276 13.84292355 9.77612583 15.0703125 10.90625 C23.70967718 18.98918102 30.21772552 28.58600125 31.3359375 40.61328125 C31.42103289 48.67181494 30.90235144 54.90165747 27 62 C26.51402344 62.90363281 26.02804687 63.80726563 25.52734375 64.73828125 C14.06880424 84.32344452 -7.58860874 93.63023965 -28.63671875 99.28515625 C-41.2456793 102.46261431 -53.43008287 103.23880634 -66.4375 103.25 C-67.14487305 103.25067474 -67.85224609 103.25134949 -68.58105469 103.25204468 C-96.56021364 103.20976934 -120.79392909 96.26559822 -144.4609375 81.2265625 C-148.91159798 78.40003945 -153.45158437 75.72790438 -158 73.0625 C-158.81388184 72.57740967 -159.62776367 72.09231934 -160.46630859 71.5925293 C-161.62767334 70.91444214 -161.62767334 70.91444214 -162.8125 70.22265625 C-163.49957031 69.81797119 -164.18664062 69.41328613 -164.89453125 68.99633789 C-167.24576872 67.88369873 -169.44004156 67.41297759 -172 67 C-170.02 66.505 -170.02 66.505 -168 66 C-168 65.01 -168 64.02 -168 63 C-164.17574878 61.7433826 -162.08183444 61.558135 -158.30419922 63.10107422 C-155.12675577 64.79735065 -152.02954968 66.59012155 -148.9375 68.4375 C-147.82004395 69.08332031 -146.70258789 69.72914063 -145.55126953 70.39453125 C-141.58958534 72.6882894 -137.65141787 75.0202975 -133.71435547 77.35595703 C-120.63971842 85.10450044 -108.09756084 90.50303211 -93 93 C-91.79214844 93.20496094 -90.58429688 93.40992188 -89.33984375 93.62109375 C-57.8097144 98.2720284 -21.33301012 94.26289325 5 75 C13.13351873 68.892776 18.46581093 61.56250587 22 52 C23.41691697 41.42255009 22.26470636 32.85566516 16 24 C10.86479863 17.77813617 4.88282482 13.14922064 -2 9 C-1.67 8.2575 -1.34 7.515 -1 6.75 C0.22782871 3.86116688 0.22782871 3.86116688 0 0 Z " fill="#E1E2E2" transform="translate(291,112)"/>
<path d="M0 0 C0.66 0 1.32 0 2 0 C2 0.66 2 1.32 2 2 C2.99 2.268125 3.98 2.53625 5 2.8125 C9.09612784 3.976839 13.02843633 5.46711578 17 7 C16.505 5.515 16.505 5.515 16 4 C19.56302921 4.56528829 22.17306472 5.4548982 25.25 7.328125 C26.41015625 8.03388672 26.41015625 8.03388672 27.59375 8.75390625 C28.3878125 9.24761719 29.181875 9.74132812 30 10.25 C30.7940625 10.72824219 31.588125 11.20648438 32.40625 11.69921875 C39.08816069 15.80859382 45.41355656 20.82711313 49 28 C50.00088219 35.29757143 49.04352922 40.68549886 44.87109375 46.78515625 C38.03441305 54.8778451 25.96867425 60.07695154 15.49609375 61.29003906 C9.64061284 61.64110296 3.84530429 61.42366871 -2 61 C-3.04027344 60.938125 -4.08054688 60.87625 -5.15234375 60.8125 C-14.15013742 59.73005866 -25.78935004 54.64299224 -32 48 C-29.35261084 46.5393715 -28.10551666 46 -25 46 C-24.67 36.76 -24.34 27.52 -24 18 C-23.67 18 -23.34 18 -23 18 C-23.02525757 19.18758911 -23.02525757 19.18758911 -23.05102539 20.39916992 C-23.1013783 23.9963715 -23.08265902 27.59003133 -23.0625 31.1875 C-23.09021484 32.43337891 -23.11792969 33.67925781 -23.14648438 34.96289062 C-23.26639972 41.49766495 -23.26639972 41.49766495 -20.17138672 46.90869141 C-17.81658544 48.26978754 -15.58851242 49.17617779 -13 50 C-11.8965625 50.42796875 -10.793125 50.8559375 -9.65625 51.296875 C-4.5796968 52.27313523 0.34266667 52.289621 5.5 52.25 C7.01013672 52.26160156 7.01013672 52.26160156 8.55078125 52.2734375 C16.60340049 52.25232972 22.92189272 50.74980939 30.1875 47.1875 C31.19167969 46.70667969 32.19585937 46.22585937 33.23046875 45.73046875 C36.32538585 43.79669121 38.03931288 42.07189622 40 39 C40.9927156 34.32839716 40.7340059 30.25052857 38.3125 26.125 C34.30969919 22.44675061 30.49005565 19.57367395 25.5625 17.25 C20.14315079 14.6175528 14.92598653 11.74155742 9.72094727 8.71582031 C8.15109184 7.80398404 6.57575976 6.9015945 5 6 C4.32453125 5.60554688 3.6490625 5.21109375 2.953125 4.8046875 C0.37890624 3.74410937 -1.97955764 3.57288874 -4.75 3.375 C-6.22726563 3.26285156 -6.22726563 3.26285156 -7.734375 3.1484375 C-8.48203125 3.09945312 -9.2296875 3.05046875 -10 3 C-10 2.67 -10 2.34 -10 2 C-6.7 1.67 -3.4 1.34 0 1 C0 0.67 0 0.34 0 0 Z " fill="#DDDEDE" transform="translate(219,118)"/>
<path d="M0 0 C3.36389668 0.24917753 4.14041544 1.15841742 6.4375 3.75 C6.99244141 4.48476562 6.99244141 4.48476562 7.55859375 5.234375 C9.53966103 7.6610482 11.77886303 9.79192854 14 12 C41.63915441 40.9927307 51.82047535 78.1987388 51.25 117.1875 C51.22988147 119.60610481 51.21164028 122.024726 51.1953125 124.44335938 C51.15179491 130.29593778 51.08531718 136.14788922 51 142 C50.67 142 50.34 142 50 142 C49.98969254 141.38247864 49.97938507 140.76495728 49.96876526 140.12872314 C49.86063254 133.70484982 49.74603989 127.28111484 49.62768555 120.85742188 C49.58435845 118.45966485 49.54268178 116.0618774 49.50268555 113.6640625 C49.44492937 110.21865674 49.38124994 106.77340375 49.31640625 103.328125 C49.29969376 102.25508118 49.28298126 101.18203735 49.26576233 100.07647705 C49.2358445 98.57537384 49.2358445 98.57537384 49.20532227 97.04394531 C49.18200584 95.72490204 49.18200584 95.72490204 49.15821838 94.37921143 C49.00867313 92.13042229 48.62461828 90.16009502 48 88 C47.01 88 46.02 88 45 88 C44.67 88.66 44.34 89.32 44 90 C43.34 90 42.68 90 42 90 C41.93683594 89.37738281 41.87367188 88.75476563 41.80859375 88.11328125 C37.81931051 58.00469091 21.52809912 30.57324038 0.32177734 9.43188477 C-1 8 -1 8 -3 5 C-2.505 4.54625 -2.01 4.0925 -1.5 3.625 C0.22609337 2.12364481 0.22609337 2.12364481 0 0 Z " fill="#E1E1E1" transform="translate(200,240)"/>
<path d="M0 0 C2 1 2 1 2.9375 3 C3.8891846 5.34608221 3.8891846 5.34608221 7 6 C6.443125 6.37769531 5.88625 6.75539062 5.3125 7.14453125 C-5.46778216 14.92017395 -13.24446827 26.52897941 -16.64453125 39.44921875 C-17.08752755 42.62808228 -17.20818076 45.72787309 -17.25 48.9375 C-17.27578125 50.12214844 -17.3015625 51.30679688 -17.328125 52.52734375 C-16.96695265 56.34975113 -15.86994781 58.68037042 -14 62 C-13.67 62.99 -13.34 63.98 -13 65 C-12.01 65.33 -11.02 65.66 -10 66 C-10.99 66.99 -11.98 67.98 -13 69 C-11.02 69.66 -9.04 70.32 -7 71 C-7 71.66 -7 72.32 -7 73 C-5.35 73 -3.7 73 -2 73 C-2 73.33 -2 73.66 -2 74 C-7.99784104 74.62477511 -12.21965815 74.1369343 -17.2109375 70.6171875 C-22.59875033 65.74698114 -25.56009964 59.08225307 -26.18359375 51.87890625 C-26.34660138 46.34623562 -25.46230966 41.31833642 -24 36 C-23.82855469 35.31550781 -23.65710938 34.63101563 -23.48046875 33.92578125 C-19.4019763 19.69052695 -10.63563164 9.76013757 0 0 Z " fill="#E2E4E3" transform="translate(330,238)"/>
<path d="M0 0 C9.80528789 6.05007125 17.13620984 14.83986055 22.6875 24.8125 C23.05109619 25.44671875 23.41469238 26.0809375 23.78930664 26.734375 C25.37023064 29.73824967 26.11698243 31.45433358 25.39453125 34.82421875 C24 37 24 37 21 39 C20.67 39.99 20.34 40.98 20 42 C19.85304687 41.39414062 19.70609375 40.78828125 19.5546875 40.1640625 C15.64325117 25.55237505 6.15767424 13.524012 -6.890625 5.89453125 C-10.77186197 4.24859928 -14.86650261 4.53923858 -19 5 C-22.03465702 6.31227434 -22.03465702 6.31227434 -24 8 C-24 7.34 -24 6.68 -24 6 C-25.98 6.33 -27.96 6.66 -30 7 C-30.33 6.34 -30.66 5.68 -31 5 C-23.24142417 -6.63786374 -11.3715603 -5.48242607 0 0 Z " fill="#E2E2E2" transform="translate(179,272)"/>
<path d="M0 0 C0.66 0 1.32 0 2 0 C9.89818195 18.69516473 10.54315063 37.15231366 10.25 57.1875 C10.22988147 59.60610481 10.21164028 62.024726 10.1953125 64.44335938 C10.15179491 70.29593778 10.08531718 76.14788922 10 82 C9.67 82 9.34 82 9 82 C8.98969254 81.38247864 8.97938507 80.76495728 8.96876526 80.12872314 C8.86063254 73.70484982 8.74603989 67.28111484 8.62768555 60.85742188 C8.58435845 58.45966485 8.54268178 56.0618774 8.50268555 53.6640625 C8.44492937 50.21865674 8.38124994 46.77340375 8.31640625 43.328125 C8.29969376 42.25508118 8.28298126 41.18203735 8.26576233 40.07647705 C8.24581711 39.07574158 8.22587189 38.0750061 8.20532227 37.04394531 C8.18977798 36.16458313 8.1742337 35.28522095 8.15821838 34.37921143 C8.00867313 32.13042229 7.62461828 30.16009502 7 28 C6.01 28 5.02 28 4 28 C3.67 28.66 3.34 29.32 3 30 C2.34 30 1.68 30 1 30 C0.89042969 29.27296875 0.78085938 28.5459375 0.66796875 27.796875 C-0.37299892 21.19561661 -1.76164726 14.89292409 -3.70703125 8.49609375 C-3.80371094 7.67238281 -3.90039062 6.84867187 -4 6 C-2.63671875 4.34765625 -2.63671875 4.34765625 -1 3 C-0.67 2.01 -0.34 1.02 0 0 Z " fill="#CDCECD" transform="translate(241,300)"/>
<path d="M0 0 C5.5834128 0.51687137 11.05074419 1.50937748 16.55078125 2.58203125 C20.56042017 3.35737043 24.5724914 3.86753982 28.62890625 4.3359375 C28.62890625 4.6659375 28.62890625 4.9959375 28.62890625 5.3359375 C26.64890625 5.3359375 24.66890625 5.3359375 22.62890625 5.3359375 C22.64953125 6.1403125 22.67015625 6.9446875 22.69140625 7.7734375 C22.62890625 10.3359375 22.62890625 10.3359375 21.62890625 11.3359375 C15.05130807 11.74467202 9.30068429 10.56086894 2.94140625 8.9609375 C2.01779297 8.73921875 1.09417969 8.5175 0.14257812 8.2890625 C-4.16252305 7.23525804 -8.31515002 6.16324689 -12.37109375 4.3359375 C-8.41827012 -0.31715326 -5.84630827 -0.18650799 0 0 Z " fill="#DCDDDD" transform="translate(185.37109375,202.6640625)"/>
<path d="M0 0 C-0.33 1.98 -0.66 3.96 -1 6 C-0.34 6.33 0.32 6.66 1 7 C-4.316235 9.18546692 -9.03871015 9.30930488 -14.6875 9.25 C-16.01346191 9.24419922 -16.01346191 9.24419922 -17.36621094 9.23828125 C-23.72933179 9.154218 -29.81690599 8.58831773 -36 7 C-33.99918276 6.48729058 -32.04185322 6.00653957 -30 5.6875 C-27.81763637 5.13942492 -27.81763637 5.13942492 -26.4296875 3.00390625 C-22.86473495 0.06368011 -19.62119435 0.32990006 -15.125 0.25 C-13.93970703 0.20552734 -13.93970703 0.20552734 -12.73046875 0.16015625 C-8.48686954 0.01187741 -4.24621778 -0.02730687 0 0 Z " fill="#D5D5D5" transform="translate(242,170)"/>
<path d="M0 0 C0.33 0 0.66 0 1 0 C1 14.85 1 29.7 1 45 C-1.475 45.495 -1.475 45.495 -4 46 C-4.77521671 43.25104407 -5.12278847 40.81884931 -5.11352539 37.96582031 C-5.11344986 37.18531311 -5.11337433 36.40480591 -5.11329651 35.60064697 C-5.10813522 34.76821472 -5.10297394 33.93578247 -5.09765625 33.078125 C-5.0962413 32.21813904 -5.09482635 31.35815308 -5.09336853 30.47210693 C-5.08778097 27.73136891 -5.07523075 24.99071324 -5.0625 22.25 C-5.05748339 20.3893241 -5.05292077 18.52864691 -5.04882812 16.66796875 C-5.03781561 12.11194754 -5.02055951 7.55598772 -5 3 C-4.67 3 -4.34 3 -4 3 C-3.93941406 3.97582031 -3.87882813 4.95164062 -3.81640625 5.95703125 C-3.73261719 7.22933594 -3.64882812 8.50164062 -3.5625 9.8125 C-3.48128906 11.07707031 -3.40007812 12.34164063 -3.31640625 13.64453125 C-3.12815453 16.99181893 -3.12815453 16.99181893 -2 20 C-1.93941406 18.97519531 -1.87882813 17.95039063 -1.81640625 16.89453125 C-1.73194974 15.53384305 -1.64730433 14.17316657 -1.5625 12.8125 C-1.52318359 12.13896484 -1.48386719 11.46542969 -1.44335938 10.77148438 C-1.21072435 7.10300898 -0.82792989 3.58305794 0 0 Z " fill="#ECEEED" transform="translate(150,287)"/>
<path d="M0 0 C0.66 0.66 1.32 1.32 2 2 C2.99 2 3.98 2 5 2 C5.33 1.34 5.66 0.68 6 0 C7.24177006 5.76628171 7.12674309 11.43890837 7.09765625 17.3046875 C7.0962413 18.38380402 7.09482635 19.46292053 7.09336853 20.57473755 C7.08778844 24.00818702 7.07523955 27.44157036 7.0625 30.875 C7.05748243 33.20833239 7.05291997 35.5416658 7.04882812 37.875 C7.03782553 43.58335575 7.02110721 49.29167315 7 55 C6.67 55 6.34 55 6 55 C6 42.46 6 29.92 6 17 C4.68 17.33 3.36 17.66 2 18 C2 30.87 2 43.74 2 57 C1.67 57 1.34 57 1 57 C0.67 38.19 0.34 19.38 0 0 Z " fill="#EEF0EF" transform="translate(243,326)"/>
<path d="M0 0 C0.33 0 0.66 0 1 0 C1.33 2.31 1.66 4.62 2 7 C2.99 6.67 3.98 6.34 5 6 C5 8.31 5 10.62 5 13 C5.66 13 6.32 13 7 13 C7 12.34 7 11.68 7 11 C7.66 11 8.32 11 9 11 C10.52448631 13.9826906 11.93940067 16.818202 13 20 C13.99 20.33 14.98 20.66 16 21 C15.01 21.99 14.02 22.98 13 24 C14.98 24.66 16.96 25.32 19 26 C19 26.66 19 27.32 19 28 C20.65 28 22.3 28 24 28 C24 28.33 24 28.66 24 29 C18.00215896 29.62477511 13.78034185 29.1369343 8.7890625 25.6171875 C3.87586529 21.1760005 1.24382857 15.44529348 0 9 C-0.13985294 5.9907506 -0.12283178 3.00937857 0 0 Z " fill="#E1E3E2" transform="translate(304,283)"/>
<path d="M0 0 C0.66 0.33 1.32 0.66 2 1 C1.71848913 2.31471568 1.42446661 3.62675767 1.125 4.9375 C0.96257812 5.66839844 0.80015625 6.39929688 0.6328125 7.15234375 C0 9 0 9 -2 10 C-1.49396008 12.16874252 -1.00016187 13.99967627 0 16 C-0.66 16 -1.32 16 -2 16 C-2.33 16.99 -2.66 17.98 -3 19 C-6.54243452 17.63408831 -9.92627929 16.09068516 -13.3125 14.375 C-14.19550781 13.92898437 -15.07851562 13.48296875 -15.98828125 13.0234375 C-16.65214844 12.68570313 -17.31601563 12.34796875 -18 12 C-14.70779797 8.33556408 -11.11391279 6.07789721 -6.875 3.6875 C-5.92560547 3.1296582 -5.92560547 3.1296582 -4.95703125 2.56054688 C-3.34135328 1.63950752 -1.67336865 0.81152089 0 0 Z " fill="#070908" transform="translate(239,102)"/>
<path d="M0 0 C0.66 0 1.32 0 2 0 C1.67 3.96 1.34 7.92 1 12 C2.32 12.66 3.64 13.32 5 14 C4.67 19.94 4.34 25.88 4 32 C2.515 32.495 2.515 32.495 1 33 C0.67 30.69 0.34 28.38 0 26 C-0.33 26 -0.66 26 -1 26 C-1.33 30.95 -1.66 35.9 -2 41 C-2.33 41 -2.66 41 -3 41 C-3.56916996 10.70750988 -3.56916996 10.70750988 0 0 Z " fill="#DFE1E0" transform="translate(265,279)"/>
<path d="M0 0 C0.99 0.33 1.98 0.66 3 1 C2.29915283 1.37809814 1.59830566 1.75619629 0.8762207 2.14575195 C-2.31233312 3.86680587 -5.49992458 5.58963471 -8.6875 7.3125 C-9.79029297 7.90740234 -10.89308594 8.50230469 -12.02929688 9.11523438 C-13.09599609 9.69208984 -14.16269531 10.26894531 -15.26171875 10.86328125 C-16.24100342 11.39219971 -17.22028809 11.92111816 -18.22924805 12.46606445 C-20.85711323 13.92089545 -23.43473336 15.43791026 -26 17 C-25.67 15.68 -25.34 14.36 -25 13 C-24.34 13 -23.68 13 -23 13 C-23.33 12.01 -23.66 11.02 -24 10 C-23.67 9.34 -23.34 8.68 -23 8 C-22.01 8 -21.02 8 -20 8 C-21.32 7.01 -22.64 6.02 -24 5 C-22.35 5 -20.7 5 -19 5 C-19.33 4.34 -19.66 3.68 -20 3 C-18.08574219 2.80083984 -18.08574219 2.80083984 -16.1328125 2.59765625 C-14.46352004 2.41947335 -12.79425036 2.24107686 -11.125 2.0625 C-10.28324219 1.97548828 -9.44148438 1.88847656 -8.57421875 1.79882812 C-7.36572266 1.66831055 -7.36572266 1.66831055 -6.1328125 1.53515625 C-5.38918457 1.456604 -4.64555664 1.37805176 -3.87939453 1.29711914 C-1.91553684 1.08362653 -1.91553684 1.08362653 0 0 Z " fill="#111211" transform="translate(320,356)"/>
<path d="M0 0 C-0.99 0.99 -1.98 1.98 -3 3 C-2.01 3.66 -1.02 4.32 0 5 C0 5.66 0 6.32 0 7 C-0.60328125 7.25394531 -1.2065625 7.50789062 -1.828125 7.76953125 C-7.75675636 10.29568376 -7.75675636 10.29568376 -13 14 C-13 13.01 -13 12.02 -13 11 C-14.98 11.66 -16.96 12.32 -19 13 C-19.66 12.34 -20.32 11.68 -21 11 C-7.01438849 -2.3381295 -7.01438849 -2.3381295 0 0 Z " fill="#DBDBDB" transform="translate(142,219)"/>
<path d="M0 0 C5.17746754 2.08644214 6.84211937 6.08035424 9 11 C9.9375 14.875 9.9375 14.875 10 18 C9.34 18.99 8.68 19.98 8 21 C7.01 20.67 6.02 20.34 5 20 C4.67 19.01 4.34 18.02 4 17 C3.34 17 2.68 17 2 17 C-1.03950701 11.24711333 -2.73513226 7.40664221 -1 1 C-0.67 0.67 -0.34 0.34 0 0 Z " fill="#E0E3E2" transform="translate(311,131)"/>
<path d="M0 0 C0.99 0.99 1.98 1.98 3 3 C2.34 5.31 1.68 7.62 1 10 C1.66 10 2.32 10 3 10 C2.67 17.59 2.34 25.18 2 33 C0 29 0 29 -1 26 C-1.33 33.92 -1.66 41.84 -2 50 C-2.33 50 -2.66 50 -3 50 C-3.07471359 44.48652029 -3.12886615 38.97334178 -3.16479492 33.45947266 C-3.17978865 31.58767557 -3.2001905 29.71591306 -3.22631836 27.84423828 C-3.48676127 8.69402417 -3.48676127 8.69402417 0 0 Z " fill="#B6B8B7" transform="translate(147,278)"/>
<path d="M0 0 C-0.8125 2.9375 -0.8125 2.9375 -2 6 C-5.76300374 7.25433458 -9.27210909 7.10695422 -13.1875 7.0625 C-13.93708984 7.05798828 -14.68667969 7.05347656 -15.45898438 7.04882812 C-17.30602383 7.03706354 -19.15302213 7.01912865 -21 7 C-21 6.67 -21 6.34 -21 6 C-19.71802734 5.81824219 -19.71802734 5.81824219 -18.41015625 5.6328125 C-17.30542969 5.46523437 -16.20070312 5.29765625 -15.0625 5.125 C-13.96035156 4.96257812 -12.85820312 4.80015625 -11.72265625 4.6328125 C-10.82417969 4.42398438 -9.92570312 4.21515625 -9 4 C-8.67 3.34 -8.34 2.68 -8 2 C-8.82242188 2.0721875 -9.64484375 2.144375 -10.4921875 2.21875 C-21.1875408 3.10797106 -31.3275337 3.13623215 -42 2 C-42 1.67 -42 1.34 -42 1 C-37.62515941 0.82897275 -33.25010879 0.66401117 -28.875 0.5 C-27.65683594 0.45230469 -26.43867188 0.40460938 -25.18359375 0.35546875 C-16.78185664 0.0442933 -8.40696391 -0.05819087 0 0 Z " fill="#E9EBEA" transform="translate(250,207)"/>
<path d="M0 0 C0.66 0 1.32 0 2 0 C2 0.66 2 1.32 2 2 C2.99 2.268125 3.98 2.53625 5 2.8125 C9.09612784 3.976839 13.02843633 5.46711578 17 7 C16.67 6.01 16.34 5.02 16 4 C18.475 4.495 18.475 4.495 21 5 C20.67 6.65 20.34 8.3 20 10 C22.31 10.99 24.62 11.98 27 13 C26.67 14.32 26.34 15.64 26 17 C21.35019139 15.32570492 17.20810507 12.95041134 12.9375 10.5 C11.5304351 9.69706233 10.12289746 8.8949524 8.71484375 8.09375 C7.78853149 7.56297852 7.78853149 7.56297852 6.84350586 7.02148438 C2.81190448 4.78757891 -0.09242015 3.70768427 -4.75 3.375 C-6.22726563 3.26285156 -6.22726563 3.26285156 -7.734375 3.1484375 C-8.48203125 3.09945312 -9.2296875 3.05046875 -10 3 C-10 2.67 -10 2.34 -10 2 C-6.7 1.67 -3.4 1.34 0 1 C0 0.67 0 0.34 0 0 Z " fill="#DBDDDC" transform="translate(219,118)"/>
<path d="M0 0 C4.6182583 0.54792895 7.98149647 2.58964488 11.8125 5.0625 C12.40998047 5.43955078 13.00746094 5.81660156 13.62304688 6.20507812 C15.08636577 7.12989566 16.54379523 8.06402065 18 9 C17.34 10.98 16.68 12.96 16 15 C12.846502 14.29922267 9.91038896 13.4158649 7 12 C6.67 11.01 6.34 10.02 6 9 C6.66 9 7.32 9 8 9 C7.67 8.34 7.34 7.68 7 7 C4.6859378 6.26924352 2.35171131 5.59861742 0 5 C0 3.33333333 0 1.66666667 0 0 Z " fill="#E6E7E7" transform="translate(238,124)"/>
<path d="M0 0 C0.33 0.66 0.66 1.32 1 2 C3.02463255 2.65213292 3.02463255 2.65213292 5 3 C5.58305225 6.84814487 4.7002883 8.76308635 2.5 11.8125 C1.67780256 12.88364055 0.84795951 13.9491359 0 15 C-0.99 14.67 -1.98 14.34 -3 14 C-3.33 14.66 -3.66 15.32 -4 16 C-5.5 14.6875 -5.5 14.6875 -7 13 C-7 9.16235973 -5.73464665 7.88513915 -3.5 4.8125 C-2.8503125 3.91144531 -2.200625 3.01039063 -1.53125 2.08203125 C-1.0259375 1.39496094 -0.520625 0.70789063 0 0 Z " fill="#DBDBDB" transform="translate(293,222)"/>
<path d="M0 0 C5.01832715 1.79153261 9.55075652 4.40964051 14.1875 7 C15.00669922 7.45117188 15.82589844 7.90234375 16.66992188 8.3671875 C17.45302734 8.80289063 18.23613281 9.23859375 19.04296875 9.6875 C19.75477295 10.08324219 20.46657715 10.47898438 21.19995117 10.88671875 C23 12 23 12 25 14 C21.52176885 15.15941038 19.54104422 14.70820884 16 14 C17.32 14.33 18.64 14.66 20 15 C20 16.65 20 18.3 20 20 C19.01 20 18.02 20 17 20 C15.52734375 18.12890625 15.52734375 18.12890625 13.9375 15.5625 C10.53993907 10.4442859 6.61037106 6.67407025 1.94140625 2.71484375 C1.30074219 2.14894531 0.66007812 1.58304687 0 1 C0 0.67 0 0.34 0 0 Z " fill="#111312" transform="translate(300,118)"/>
<path d="M0 0 C0.66 0 1.32 0 2 0 C2.66 0.66 3.32 1.32 4 2 C4.66 1.67 5.32 1.34 6 1 C8 4 8 4 8 7 C9.32 7.66 10.64 8.32 12 9 C11.75 12.375 11.75 12.375 11 16 C8.953125 17.2265625 8.953125 17.2265625 7 18 C6.01407845 15.94072044 5.03652506 13.87743312 4.0625 11.8125 C3.51722656 10.66394531 2.97195312 9.51539063 2.41015625 8.33203125 C1.20539869 5.48533264 0.45223729 3.03972155 0 0 Z " fill="#E5E6E5" transform="translate(230,288)"/>
<path d="M0 0 C0 0.66 0 1.32 0 2 C-0.99 2 -1.98 2 -3 2 C-3 2.99 -3 3.98 -3 5 C-3.99 5.495 -3.99 5.495 -5 6 C-4.01 6.33 -3.02 6.66 -2 7 C-2 7.99 -2 8.98 -2 10 C-3.75 10.75 -3.75 10.75 -6 11 C-8.25 9.0625 -8.25 9.0625 -10 7 C-12.03833424 8.2739589 -14.03852126 9.61061923 -16 11 C-16 11.66 -16 12.32 -16 13 C-16.886875 12.814375 -17.77375 12.62875 -18.6875 12.4375 C-21.90861592 11.82599591 -21.90861592 11.82599591 -24.6875 12.5625 C-27 13 -27 13 -30 11 C-29.21238281 10.78085938 -28.42476563 10.56171875 -27.61328125 10.3359375 C-19.53941549 7.9854393 -7.9888475 0 0 0 Z " fill="#D8DAD9" transform="translate(290,192)"/>
<path d="M0 0 C0 0.99 0 1.98 0 3 C0.66 3.33 1.32 3.66 2 4 C2 4.66 2 5.32 2 6 C0.10614563 6.50744423 -1.79018666 7.00564574 -3.6875 7.5 C-4.74324219 7.7784375 -5.79898438 8.056875 -6.88671875 8.34375 C-9.71142672 8.9391715 -12.12836708 9.12786492 -15 9 C-14.01 8.34 -13.02 7.68 -12 7 C-12 6.01 -12 5.02 -12 4 C-11.34 4 -10.68 4 -10 4 C-10 3.34 -10 2.68 -10 2 C-11.98 2 -13.96 2 -16 2 C-16 1.67 -16 1.34 -16 1 C-14.0852312 0.63571223 -12.16807707 0.28394694 -10.25 -0.0625 C-9.18265625 -0.25972656 -8.1153125 -0.45695313 -7.015625 -0.66015625 C-4.25228095 -0.97156937 -2.59053383 -0.8991416 0 0 Z " fill="#DADBDB" transform="translate(260,205)"/>
<path d="M0 0 C0.66 0.33 1.32 0.66 2 1 C3.3817533 6.38202451 3.12752149 11.91321281 3.09765625 17.4296875 C3.0962413 18.42001984 3.09482635 19.41035217 3.09336853 20.43069458 C3.08779252 23.57882773 3.07524442 26.72688852 3.0625 29.875 C3.0574819 32.01562397 3.05291954 34.15624906 3.04882812 36.296875 C3.03783094 41.53127449 3.02111675 46.76563207 3 52 C2.67 52 2.34 52 2 52 C1.505 31.21 1.505 31.21 1 10 C0.67 10.66 0.34 11.32 0 12 C-0.66 12 -1.32 12 -2 12 C-3.10647808 9.78704384 -3.19588368 8.45327301 -3.25 6 C-3.27578125 5.29875 -3.3015625 4.5975 -3.328125 3.875 C-3.21984375 3.25625 -3.1115625 2.6375 -3 2 C-2.01 1.34 -1.02 0.68 0 0 Z " fill="#D1D3D2" transform="translate(205,308)"/>
<path d="M0 0 C0.33 1.32 0.66 2.64 1 4 C1.99 4 2.98 4 4 4 C4.33 3.34 4.66 2.68 5 2 C5.66 2 6.32 2 7 2 C7 6.95 7 11.9 7 17 C6.34 17 5.68 17 5 17 C4.67 14.36 4.34 11.72 4 9 C3.814375 9.804375 3.814375 9.804375 3.625 10.625 C2.87793984 13.4638286 1.94696636 16.22223202 1 19 C0.34 19 -0.32 19 -1 19 C-1.02683987 16.02077407 -1.04676037 13.04178705 -1.0625 10.0625 C-1.07087891 9.21236328 -1.07925781 8.36222656 -1.08789062 7.48632812 C-1.09111328 6.67744141 -1.09433594 5.86855469 -1.09765625 5.03515625 C-1.10289307 4.2862915 -1.10812988 3.53742676 -1.11352539 2.76586914 C-1 1 -1 1 0 0 Z " fill="#D3D5D5" transform="translate(315,147)"/>
<path d="M0 0 C0.66 1.32 1.32 2.64 2 4 C2.33 3.34 2.66 2.68 3 2 C3.66 2.33 4.32 2.66 5 3 C6.233342 6.80620776 6.73576429 10.49849584 4.9453125 14.15234375 C3.5625 16.0625 3.5625 16.0625 1 19 C-1 17 -1 17 -1.5 14.9375 C-1.665 14.298125 -1.83 13.65875 -2 13 C-2.66 12.67 -3.32 12.34 -4 12 C-3.525625 11.505 -3.05125 11.01 -2.5625 10.5 C-0.37832093 7.00531349 -0.34086089 4.09033064 0 0 Z " fill="#DADBDA" transform="translate(260,149)"/>
<path d="M0 0 C0.33 0.99 0.66 1.98 1 3 C-0.9375 5.6875 -0.9375 5.6875 -3 8 C-1.68 8 -0.36 8 1 8 C1 8.66 1 9.32 1 10 C-0.53125 11.2890625 -0.53125 11.2890625 -2.5 12.625 C-3.1496875 13.07101563 -3.799375 13.51703125 -4.46875 13.9765625 C-5.22671875 14.48316406 -5.22671875 14.48316406 -6 15 C-6 14.34 -6 13.68 -6 13 C-6.66 13 -7.32 13 -8 13 C-8.33 13.99 -8.66 14.98 -9 16 C-10.26467795 13.47064411 -9.7249339 12.65809097 -9 10 C-9 9.01 -9 8.02 -9 7 C-7.03125 5.17578125 -7.03125 5.17578125 -4.5 3.3125 C-3.6646875 2.68988281 -2.829375 2.06726563 -1.96875 1.42578125 C-1.3190625 0.95527344 -0.669375 0.48476562 0 0 Z " fill="#DCDDDD" transform="translate(323,193)"/>
<path d="M0 0 C0.33 0.66 0.66 1.32 1 2 C1.99 2 2.98 2 4 2 C4.49230769 9.26153846 4.49230769 9.26153846 2 13 C1.34 13.66 0.68 14.32 0 15 C0 14.34 0 13.68 0 13 C-1.32 12.67 -2.64 12.34 -4 12 C-4 11.34 -4 10.68 -4 10 C-4.66 9.67 -5.32 9.34 -6 9 C-5.071875 7.88625 -5.071875 7.88625 -4.125 6.75 C-2.39562719 4.51198812 -1.13893339 2.56260013 0 0 Z " fill="#DBDBDB" transform="translate(311,169)"/>
<path d="M0 0 C0.680625 -0.01417969 1.36125 -0.02835937 2.0625 -0.04296875 C4 0.1875 4 0.1875 7 2.1875 C6.01 4.1675 5.02 6.1475 4 8.1875 C2.02 8.1875 0.04 8.1875 -2 8.1875 C-2.3403125 7.2284375 -2.3403125 7.2284375 -2.6875 6.25 C-3.85250896 3.91556339 -3.85250896 3.91556339 -6.625 3.4375 C-7.40875 3.355 -8.1925 3.2725 -9 3.1875 C-6.21122917 0.39872917 -3.79375187 0.03592568 0 0 Z " fill="#D5D6D6" transform="translate(164,267.8125)"/>
<path d="M0 0 C0.66 0 1.32 0 2 0 C2.69670416 1.78810766 3.38211189 3.58062052 4.0625 5.375 C4.44535156 6.37273437 4.82820312 7.37046875 5.22265625 8.3984375 C6 11 6 11 5 13 C3.02 12.01 1.04 11.02 -1 10 C-1 11.98 -1 13.96 -1 16 C-2.88638485 12.73026626 -3.75896128 9.77627333 -4 6 C-2.625 4.3125 -2.625 4.3125 -1 3 C-0.67 2.01 -0.34 1.02 0 0 Z " fill="#D5D5D5" transform="translate(241,300)"/>
<path d="M0 0 C3 1 3 1 4.45703125 3.66015625 C7.2263818 10.61146554 8.90717355 14.93972138 6 22 C5.01 22 4.02 22 3 22 C2.01 20.02 1.02 18.04 0 16 C0.66 16 1.32 16 2 16 C3.42957868 10.67157038 2.31252548 7.90255401 0 3 C0 2.01 0 1.02 0 0 Z " fill="#E2E2E2" transform="translate(268,321)"/>
<path d="M0 0 C0.99 0.66 1.98 1.32 3 2 C4.65549531 2.38499891 6.3222433 2.72793135 8 3 C8 2.01 8 1.02 8 0 C8.99 0.33 9.98 0.66 11 1 C11.33 2.98 11.66 4.96 12 7 C12.99 7.33 13.98 7.66 15 8 C14.01 8.495 14.01 8.495 13 9 C12.67 9.66 12.34 10.32 12 11 C10.41499412 10.0653305 8.83206584 9.12713737 7.25 8.1875 C6.36828125 7.66542969 5.4865625 7.14335937 4.578125 6.60546875 C2.28027203 5.17453304 0.13493054 3.66105577 -2 2 C-1.34 1.34 -0.68 0.68 0 0 Z " fill="#DEDEDE" transform="translate(173,226)"/>
<path d="M0 0 C1.58294782 -0.05437607 3.16644256 -0.09296271 4.75 -0.125 C5.63171875 -0.14820313 6.5134375 -0.17140625 7.421875 -0.1953125 C10.1135858 0.00860498 11.69904974 0.63448279 14 2 C11.69 2 9.38 2 7 2 C7.33 2.99 7.66 3.98 8 5 C8.99 5 9.98 5 11 5 C11 5.66 11 6.32 11 7 C9.20793453 6.85915204 7.41635083 6.71216299 5.625 6.5625 C4.62726563 6.48128906 3.62953125 6.40007812 2.6015625 6.31640625 C0 6 0 6 -2 5 C-1.34 3.35 -0.68 1.7 0 0 Z " fill="#E9E9E9" transform="translate(288,351)"/>
<path d="M0 0 C0.33 0 0.66 0 1 0 C1.00586624 0.58802399 1.01173248 1.17604797 1.01777649 1.78189087 C1.08182009 7.91431517 1.16626806 14.04622 1.26245117 20.17822266 C1.29566006 22.46526226 1.32370451 24.75238303 1.34643555 27.03955078 C1.3800551 30.33140578 1.43237624 33.62251972 1.48828125 36.9140625 C1.49786613 38.44252304 1.49786613 38.44252304 1.50764465 40.00186157 C1.61933585 45.42185397 2.00235368 49.2889144 5 54 C3.125 53.6875 3.125 53.6875 1 53 C0.34 52.01 -0.32 51.02 -1 50 C-0.505 49.505 -0.505 49.505 0 49 C0.09319449 47.4651703 0.117458 45.92607918 0.11352539 44.38842773 C0.11344986 43.40748642 0.11337433 42.4265451 0.11329651 41.4158783 C0.10813522 40.3492244 0.10297394 39.2825705 0.09765625 38.18359375 C0.0962413 37.0974025 0.09482635 36.01121124 0.09336853 34.8921051 C0.08775048 31.40720925 0.07519492 27.92237658 0.0625 24.4375 C0.05748733 22.08138113 0.05292402 19.72526126 0.04882812 17.36914062 C0.03777519 11.57940536 0.02101951 5.78970719 0 0 Z " fill="#D2D3D3" transform="translate(116,262)"/>
<path d="M0 0 C1.546875 0.17015625 1.546875 0.17015625 3.125 0.34375 C5.66953306 0.6264759 8.21003646 0.92917585 10.75 1.25 C10.75 1.58 10.75 1.91 10.75 2.25 C2.83 2.745 2.83 2.745 -5.25 3.25 C-5.58 4.24 -5.91 5.23 -6.25 6.25 C-9.22 5.92 -12.19 5.59 -15.25 5.25 C-15.25 3.25 -15.25 3.25 -13.953125 1.078125 C-9.53804286 -1.9077976 -5.10862492 -0.64830265 0 0 Z " fill="#EDEDED" transform="translate(221.25,170.75)"/>
<path d="M0 0 C2.00720923 0.28674418 4.0085944 0.61866701 6 1 C5.01 2.32 4.02 3.64 3 5 C4.98 5.66 6.96 6.32 9 7 C9 7.66 9 8.32 9 9 C10.65 9 12.3 9 14 9 C14 9.33 14 9.66 14 10 C6.84593383 10.74521523 2.69776694 9.34707015 -3 5 C-1.125 1.125 -1.125 1.125 0 0 Z " fill="#D3D3D3" transform="translate(314,302)"/>
<path d="M0 0 C0.99 1.32 1.98 2.64 3 4 C2.375 5.9375 2.375 5.9375 1 8 C-2.63396678 9.02699061 -5.41871818 9.23967448 -9 8 C-9 7.34 -9 6.68 -9 6 C-7.35 5.34 -5.7 4.68 -4 4 C-4 3.34 -4 2.68 -4 2 C-2.68 2 -1.36 2 0 2 C0 1.34 0 0.68 0 0 Z " fill="#E6E7E6" transform="translate(350,293)"/>
<path d="M0 0 C0.99 0.33 1.98 0.66 3 1 C3 1.99 3 2.98 3 4 C3.66 4 4.32 4 5 4 C3.70700306 6.88437779 2.34058637 8.87219421 0 11 C-3 10 -3 10 -5 7 C-5 6.01 -5 5.02 -5 4 C-2.6875 1.75 -2.6875 1.75 0 0 Z " fill="#E9E9E9" transform="translate(312,202)"/>
<path d="M0 0 C5.4495668 2.7247834 9.68949958 5.7735323 13 11 C13 11.99 13 12.98 13 14 C10.625 13.8125 10.625 13.8125 8 13 C6.9375 10.625 6.9375 10.625 6 8 C4.00334686 6.31461399 4.00334686 6.31461399 2 5 C1.67 4.34 1.34 3.68 1 3 C0.34 2.67 -0.32 2.34 -1 2 C-0.67 1.34 -0.34 0.68 0 0 Z " fill="#161716" transform="translate(358,250)"/>
<path d="M0 0 C2.375 1.5625 2.375 1.5625 4 3 C2.35 3 0.7 3 -1 3 C-1 2.34 -1 1.68 -1 1 C-1.99 1 -2.98 1 -4 1 C-4 1.66 -4 2.32 -4 3 C-3.01 3.33 -2.02 3.66 -1 4 C-1 5.32 -1 6.64 -1 8 C-5 6.66666667 -9 5.33333333 -13 4 C-11.68 3.67 -10.36 3.34 -9 3 C-9 2.01 -9 1.02 -9 0 C-5.43564899 -1.188117 -3.62175183 -0.88695963 0 0 Z " fill="#DADADA" transform="translate(132,175)"/>
<path d="M0 0 C2.5 1.8125 2.5 1.8125 5 4 C5 4.99 5 5.98 5 7 C5.66 5.68 6.32 4.36 7 3 C7 3.66 7 4.32 7 5 C7.66 5 8.32 5 9 5 C9 8.63 9 12.26 9 16 C8.34 16.33 7.68 16.66 7 17 C6.67 14.69 6.34 12.38 6 10 C5.67 10.33 5.34 10.66 5 11 C4.34 11.66 3.68 12.32 3 13 C1.90154282 8.67940177 0.82187261 4.38332057 0 0 Z " fill="#ECEEED" transform="translate(258,142)"/>
<path d="M0 0 C0.99 0 1.98 0 3 0 C3 0.66 3 1.32 3 2 C5.475 2.99 5.475 2.99 8 4 C8 4.99 8 5.98 8 7 C7.34 6.67 6.68 6.34 6 6 C6 6.99 6 7.98 6 9 C0.25 10.125 0.25 10.125 -2 9 C-1.505 7.88625 -1.505 7.88625 -1 6.75 C0.22782871 3.86116688 0.22782871 3.86116688 0 0 Z " fill="#E2E4E3" transform="translate(291,112)"/>
<path d="M0 0 C0.66 0.33 1.32 0.66 2 1 C1.34 3.64 0.68 6.28 0 9 C-4.37103907 10.09275977 -5.12228038 9.78971675 -9 8 C-9.99 7.67 -10.98 7.34 -12 7 C-10.04754815 5.80285445 -8.08785003 4.61751926 -6.125 3.4375 C-5.03445312 2.77621094 -3.94390625 2.11492187 -2.8203125 1.43359375 C-1.88960937 0.96050781 -0.95890625 0.48742187 0 0 Z " fill="#121413" transform="translate(239,102)"/>
<path d="M0 0 C0.66 0 1.32 0 2 0 C3.18359375 1.42578125 3.18359375 1.42578125 4.4375 3.3125 C6.10948826 5.81262038 7.81408865 7.9288012 10 10 C9.01 10.495 9.01 10.495 8 11 C8.33 11.66 8.66 12.32 9 13 C5.63279613 11.60667426 4.0140476 10.0210714 2 7 C1.01 7.495 1.01 7.495 0 8 C-0.99 7.67 -1.98 7.34 -3 7 C-2.67 6.34 -2.34 5.68 -2 5 C-1.32650839 3.33607955 -0.6590841 1.66967972 0 0 Z " fill="#E1E1E1" transform="translate(275,337)"/>
<path d="M0 0 C0.639375 0.33 1.27875 0.66 1.9375 1 C3.76794567 2.07271225 3.76794567 2.07271225 5 2 C5.19466332 3.79090253 5.38051213 5.58276505 5.5625 7.375 C5.66691406 8.37273437 5.77132813 9.37046875 5.87890625 10.3984375 C6 13 6 13 5 15 C4.34 15 3.68 15 3 15 C2.67 13.02 2.34 11.04 2 9 C1.34 9 0.68 9 0 9 C-1.36623674 6.26752652 -1.128426 4.01801098 -1 1 C-0.67 0.67 -0.34 0.34 0 0 Z " fill="#EBECEB" transform="translate(306,281)"/>
<path d="M0 0 C0.33 0 0.66 0 1 0 C1.19683437 4.58298265 1.38085996 9.16639198 1.5625 13.75 C1.61857422 15.05195313 1.67464844 16.35390625 1.73242188 17.6953125 C1.78076172 18.94570312 1.82910156 20.19609375 1.87890625 21.484375 C1.9260376 22.63647461 1.97316895 23.78857422 2.02172852 24.97558594 C2.00313867 27.56312522 1.77962196 29.55350954 1 32 C-1.8125 32.6875 -1.8125 32.6875 -5 33 C-6.875 31.5625 -6.875 31.5625 -8 30 C-5.35261084 28.5393715 -4.10551666 28 -1 28 C-0.67 18.76 -0.34 9.52 0 0 Z " fill="#C4C6C5" transform="translate(195,136)"/>
<path d="M0 0 C4.23830976 2.82553984 3.97715348 5.12180888 5 10 C0.50202887 8.31326082 -3.72886302 6.18326108 -8 4 C-5.28790442 2.19193628 -3.10633303 0.93189991 0 0 Z " fill="#1B1C1B" transform="translate(240,378)"/>
<path d="M0 0 C-1.485 1.485 -1.485 1.485 -3 3 C-2.01 3.66 -1.02 4.32 0 5 C0 5.66 0 6.32 0 7 C-2.64 7.66 -5.28 8.32 -8 9 C-8 7.68 -8 6.36 -8 5 C-9.32 4.34 -10.64 3.68 -12 3 C-10.75823305 2.29773859 -9.50614401 1.61370891 -8.25 0.9375 C-7.20585937 0.36322266 -7.20585937 0.36322266 -6.140625 -0.22265625 C-3.63859372 -1.1312406 -2.4667645 -0.88336837 0 0 Z " fill="#D3D3D3" transform="translate(142,219)"/>
<path d="M0 0 C0.66 0 1.32 0 2 0 C3.19725883 2.28703308 4.38297018 4.57884862 5.5625 6.875 C5.90474609 7.52597656 6.24699219 8.17695313 6.59960938 8.84765625 C7.46082891 10.53529857 8.23686703 12.26579593 9 14 C8.67 14.66 8.34 15.32 8 16 C5.49387834 14.74693917 5.11615658 13.66521628 3.875 11.1875 C3.52179688 10.50042969 3.16859375 9.81335938 2.8046875 9.10546875 C2 7 2 7 2 3 C1.34 3 0.68 3 0 3 C0 2.01 0 1.02 0 0 Z M-3 5 C-0.03 6.98 -0.03 6.98 3 9 C2.67 9.66 2.34 10.32 2 11 C1.34 11 0.68 11 0 11 C0 10.01 0 9.02 0 8 C-0.99 8.33 -1.98 8.66 -3 9 C-3.33 8.01 -3.66 7.02 -4 6 C-3.67 5.67 -3.34 5.34 -3 5 Z " fill="#DFE0DF" transform="translate(232,280)"/>
<path d="M0 0 C-0.57344937 2.86724686 -0.8614515 3.8614515 -3 6 C-5.125 6.625 -5.125 6.625 -7 7 C-7.33 6.01 -7.66 5.02 -8 4 C-11.51190809 2.77030122 -11.51190809 2.77030122 -15 2 C-15 1.67 -15 1.34 -15 1 C-9.69276568 -0.42705634 -5.46108889 -1.4002792 0 0 Z " fill="#E5E5E5" transform="translate(337,303)"/>
<path d="M0 0 C4.04301175 1.48518799 7.61146256 3.42877998 11.3125 5.625 C12.38113281 6.25664063 13.44976562 6.88828125 14.55078125 7.5390625 C15.76314453 8.26222656 15.76314453 8.26222656 17 9 C16.01 10.485 16.01 10.485 15 12 C11.49997422 11.42433786 9.91241005 10.2479443 7.5 7.6875 C6.90058594 7.06101562 6.30117188 6.43453125 5.68359375 5.7890625 C5.12800781 5.19867188 4.57242187 4.60828125 4 4 C3.195625 3.195625 2.39125 2.39125 1.5625 1.5625 C1.046875 1.046875 0.53125 0.53125 0 0 Z " fill="#1B1D1C" transform="translate(300,118)"/>
<path d="M0 0 C2.90802461 2.21928194 4.95312762 3.92969143 7 7 C7 7.99 7 8.98 7 10 C6.34 10 5.68 10 5 10 C3.61061923 8.03852126 2.2739589 6.03833424 1 4 C1 6.15634036 1.4465236 7.92446352 2 10 C1.01 10 0.02 10 -1 10 C-2.25664978 7.09399739 -3 5.20395416 -3 2 C-2.34 2 -1.68 2 -1 2 C-0.67 1.34 -0.34 0.68 0 0 Z " fill="#E8EAE9" transform="translate(216,256)"/>
<path d="M0 0 C0.33 0 0.66 0 1 0 C1.33 2.31 1.66 4.62 2 7 C2.99 6.67 3.98 6.34 5 6 C5 8.31 5 10.62 5 13 C5.66 13 6.32 13 7 13 C7 12.34 7 11.68 7 11 C7.66 11 8.32 11 9 11 C9.33 12.32 9.66 13.64 10 15 C6.43855901 15.19785783 3.95545121 15.11103658 1 13 C-0.00171585 10.05301659 -0.10800819 7.34455671 -0.0625 4.25 C-0.05347656 3.45078125 -0.04445313 2.6515625 -0.03515625 1.828125 C-0.02355469 1.22484375 -0.01195312 0.6215625 0 0 Z " fill="#DADCDB" transform="translate(304,283)"/>
<path d="M0 0 C0.99 0 1.98 0 3 0 C2.5625 2.75 2.5625 2.75 1 6 C-1.86277393 7.72708482 -4.84980276 8.89807915 -8 10 C-7.67 7.69 -7.34 5.38 -7 3 C-6.01 3 -5.02 3 -4 3 C-2.66018514 2.6937566 -1.32488113 2.36548445 0 2 C0 1.34 0 0.68 0 0 Z " fill="#DFE1E0" transform="translate(120,241)"/>
<path d="M0 0 C-0.99 0.495 -0.99 0.495 -2 1 C-2 2.32 -2 3.64 -2 5 C-2.99 5.66 -3.98 6.32 -5 7 C-8.1875 6.125 -8.1875 6.125 -11 5 C-10.6875 3.0625 -10.6875 3.0625 -10 1 C-6.52674819 -0.1577506 -3.63932552 -0.06866652 0 0 Z " fill="#E8EAE9" transform="translate(149,218)"/>
<path d="M0 0 C0.33 0.66 0.66 1.32 1 2 C3.02463255 2.65213292 3.02463255 2.65213292 5 3 C5 4.65 5 6.3 5 8 C1.88772805 8 -0.94152152 7.54372951 -4 7 C-2.79618552 4.50638429 -1.54571278 2.31856917 0 0 Z " fill="#DADADA" transform="translate(293,222)"/>
<path d="M0 0 C2.64752004 2.57784846 4.94432065 4.91648098 7 8 C6.01 9.485 6.01 9.485 5 11 C4.34 10.67 3.68 10.34 3 10 C3.33 10.99 3.66 11.98 4 13 C3.01 13 2.02 13 1 13 C-0.6875 10.5 -0.6875 10.5 -2 8 C1.875 6 1.875 6 3 6 C2.2575 5.071875 2.2575 5.071875 1.5 4.125 C0 2 0 2 0 0 Z " fill="#D8D9D9" transform="translate(210,248)"/>
<path d="M0 0 C2.96404505 2.80804268 5.44499019 5.18315774 7 9 C4.69 9 2.38 9 0 9 C0 7.35 0 5.7 0 4 C-0.66 4 -1.32 4 -2 4 C-1.34 2.68 -0.68 1.36 0 0 Z " fill="#0D0F0E" transform="translate(211,261)"/>
<path d="M0 0 C0.33 0 0.66 0 1 0 C1.125 2.375 1.125 2.375 1 5 C0.34 5.66 -0.32 6.32 -1 7 C-1.99 7 -2.98 7 -4 7 C-4 7.66 -4 8.32 -4 9 C-5.98 9.99 -7.96 10.98 -10 12 C-9.67 10.68 -9.34 9.36 -9 8 C-8.34 8 -7.68 8 -7 8 C-6.67 6.68 -6.34 5.36 -6 4 C-5.38125 3.896875 -4.7625 3.79375 -4.125 3.6875 C-1.63473516 3.12474627 -1.63473516 3.12474627 0 0 Z " fill="#EAEBEA" transform="translate(124,234)"/>
<path d="M0 0 C0 0.66 0 1.32 0 2 C-1.95224208 3.28406399 -3.96340762 4.47941678 -6 5.625 C-7.11375 6.25664062 -8.2275 6.88828125 -9.375 7.5390625 C-10.24125 8.02117187 -11.1075 8.50328125 -12 9 C-12 8.01 -12 7.02 -12 6 C-11.01 5.67 -10.02 5.34 -9 5 C-9 4.34 -9 3.68 -9 3 C-6.22994106 -0.29768922 -4.27129034 -1.42376345 0 0 Z " fill="#0F1110" transform="translate(367,321)"/>
<path d="M0 0 C3.60415049 1.2013835 4.14706011 2.26143988 6.1875 5.375 C6.71730469 6.16648438 7.24710938 6.95796875 7.79296875 7.7734375 C9 10 9 10 9 13 C8.34 12.34 7.68 11.68 7 11 C6.01 12.485 6.01 12.485 5 14 C4.67 13.34 4.34 12.68 4 12 C3.34 12 2.68 12 2 12 C2.33 9.69 2.66 7.38 3 5 C2.01 4.34 1.02 3.68 0 3 C0 2.01 0 1.02 0 0 Z " fill="#EBEBEB" transform="translate(205,244)"/>
<path d="M0 0 C1.65 0.33 3.3 0.66 5 1 C5 2.65 5 4.3 5 6 C3.02 6.66 1.04 7.32 -1 8 C-1.66 7.34 -2.32 6.68 -3 6 C-2 4 -1 2 0 0 Z " fill="#E7E8E8" transform="translate(255,162)"/>
<path d="M0 0 C2.875 0.3125 2.875 0.3125 6 1 C6.66 1.99 7.32 2.98 8 4 C5.64031256 6.09749995 4.45383006 6.96905704 1.25 7.1875 C0.13625 7.0946875 0.13625 7.0946875 -1 7 C-0.67 4.69 -0.34 2.38 0 0 Z " fill="#121413" transform="translate(244,136)"/>
<path d="M0 0 C5.75 0.875 5.75 0.875 8 2 C8.33 1.34 8.66 0.68 9 0 C9.99 0.33 10.98 0.66 12 1 C10.66666667 3.66666667 9.33333333 6.33333333 8 9 C5.06799526 6.14723863 2.35684596 3.34920216 0 0 Z " fill="#D8DAD9" transform="translate(301,129)"/>
<path d="M0 0 C3.98381075 2.16264012 6.88983545 4.71211176 10 8 C8.9275 7.835 7.855 7.67 6.75 7.5 C2.96971248 6.91189085 2.96971248 6.91189085 -1 7 C-0.67 4.69 -0.34 2.38 0 0 Z " fill="#141414" transform="translate(186,237)"/>
<path d="M0 0 C0.33 0.66 0.66 1.32 1 2 C0.01 2.99 -0.98 3.98 -2 5 C-1.34 5 -0.68 5 0 5 C-0.33 6.32 -0.66 7.64 -1 9 C-3.64 8.34 -6.28 7.68 -9 7 C-9 6.34 -9 5.68 -9 5 C-6.03 3.35 -3.06 1.7 0 0 Z " fill="#252625" transform="translate(131,165)"/>
<path d="M0 0 C0.99 0.33 1.98 0.66 3 1 C3.33 2.98 3.66 4.96 4 7 C1.525 8.485 1.525 8.485 -1 10 C-1 6 -1 6 0 5 C-0.66 4.34 -1.32 3.68 -2 3 C-1.34 2.01 -0.68 1.02 0 0 Z " fill="#111312" transform="translate(194,303)"/>
<path d="M0 0 C-0.54339792 4.56454251 -1.79463821 7.9728176 -4 12 C-6.32590854 8.36576791 -6.16265833 5.22911669 -6 1 C-3.92446352 0.4465236 -2.15634036 0 0 0 Z " fill="#101211" transform="translate(279,242)"/>
<path d="M0 0 C0.99 0 1.98 0 3 0 C4.56633048 2.48770135 5.04100928 3.65552204 4.6875 6.625 C4 9 4 9 3 11 C2.34 11 1.68 11 1 11 C1.33 8.69 1.66 6.38 2 4 C1.01 4 0.02 4 -1 4 C-0.67 2.68 -0.34 1.36 0 0 Z " fill="#E6E8E7" transform="translate(313,167)"/>
<path d="M0 0 C0.66 0.33 1.32 0.66 2 1 C1.21625 1.598125 0.4325 2.19625 -0.375 2.8125 C-3.14574323 4.91085249 -3.14574323 4.91085249 -5 8 C-8 8.8125 -8 8.8125 -11 9 C-11.66 8.34 -12.32 7.68 -13 7 C-10.88002166 5.80266012 -8.75486324 4.61701287 -6.625 3.4375 C-6.02171875 3.09525391 -5.4184375 2.75300781 -4.796875 2.40039062 C-3.23021759 1.53872905 -1.61709138 0.76281817 0 0 Z " fill="#1E1F1E" transform="translate(349,301)"/>
<path d="M0 0 C0.99 0.99 1.98 1.98 3 3 C2.690625 3.639375 2.38125 4.27875 2.0625 4.9375 C0.68064597 8.92049104 0.3463457 12.81650849 0 17 C-0.33 17 -0.66 17 -1 17 C-2.51708428 5.47835991 -2.51708428 5.47835991 0 0 Z " fill="#DDDEDE" transform="translate(147,278)"/>
<path d="M0 0 C-0.33 0.99 -0.66 1.98 -1 3 C-2.66666667 3.66666667 -4.33333333 4.33333333 -6 5 C-6.33 5.99 -6.66 6.98 -7 8 C-9.31 8 -11.62 8 -14 8 C-11.72402354 5.50447597 -9.39278822 3.93377014 -6.4375 2.3125 C-5.65246094 1.87550781 -4.86742187 1.43851562 -4.05859375 0.98828125 C-2 0 -2 0 0 0 Z " fill="#D4D6D5" transform="translate(347,335)"/>
<path d="M0 0 C1.32 0 2.64 0 4 0 C4.98248524 4.0527516 5.08159574 7.83861737 5 12 C4.34 10.68 3.68 9.36 3 8 C2.01 8 1.02 8 0 8 C-0.33 8.66 -0.66 9.32 -1 10 C-0.67 6.7 -0.34 3.4 0 0 Z " fill="#D4D6D5" transform="translate(245,320)"/>
<path d="M0 0 C0.33 0.66 0.66 1.32 1 2 C1.66 2 2.32 2 3 2 C4.20628008 4.33214148 5.1654738 6.49642139 6 9 C5.01 9.99 4.02 10.98 3 12 C-1.06153846 5.72307692 -1.06153846 5.72307692 -0.75 2.0625 C-0.5025 1.381875 -0.255 0.70125 0 0 Z " fill="#0E0E0E" transform="translate(233,274)"/>
<path d="M0 0 C0.99 0 1.98 0 3 0 C3 0.66 3 1.32 3 2 C4.65 2 6.3 2 8 2 C7.814375 2.598125 7.62875 3.19625 7.4375 3.8125 C6.77906313 6.16408762 6.77906313 6.16408762 8 9 C6.35 8.67 4.7 8.34 3 8 C2.87625 7.195625 2.7525 6.39125 2.625 5.5625 C2.315625 4.2940625 2.315625 4.2940625 2 3 C1.34 2.67 0.68 2.34 0 2 C0 1.34 0 0.68 0 0 Z " fill="#E8E8E8" transform="translate(128,176)"/>
<path d="M0 0 C0.66 1.32 1.32 2.64 2 4 C1.071875 4.86625 1.071875 4.86625 0.125 5.75 C-2.28110212 8.08052993 -2.28110212 8.08052993 -4 12 C-4.66 9.03 -5.32 6.06 -6 3 C-5.195625 2.87625 -4.39125 2.7525 -3.5625 2.625 C-2.716875 2.41875 -1.87125 2.2125 -1 2 C-0.67 1.34 -0.34 0.68 0 0 Z " fill="#CED0CF" transform="translate(203,302)"/>
<path d="M0 0 C1.4540625 0.0309375 1.4540625 0.0309375 2.9375 0.0625 C2.9375 2.0425 2.9375 4.0225 2.9375 6.0625 C0.9575 7.0525 0.9575 7.0525 -1.0625 8.0625 C-1.18625 7.093125 -1.31 6.12375 -1.4375 5.125 C-1.64375 4.114375 -1.85 3.10375 -2.0625 2.0625 C-2.7225 1.7325 -3.3825 1.4025 -4.0625 1.0625 C-3.0625 0.0625 -3.0625 0.0625 0 0 Z " fill="#E5E5E5" transform="translate(132.0625,222.9375)"/>
<path d="M0 0 C1.32 0.66 2.64 1.32 4 2 C3.01 3.98 2.02 5.96 1 8 C-0.32 8 -1.64 8 -3 8 C-2.67 6.02 -2.34 4.04 -2 2 C-1.34 2 -0.68 2 0 2 C0 1.34 0 0.68 0 0 Z " fill="#0B0D0C" transform="translate(307,168)"/>
<path d="M0 0 C0.99 0.33 1.98 0.66 3 1 C3.33 2.98 3.66 4.96 4 7 C2.1875 8.0625 2.1875 8.0625 0 9 C-0.99 8.67 -1.98 8.34 -3 8 C-2.01 7.67 -1.02 7.34 0 7 C0 6.01 0 5.02 0 4 C-1.32 3.67 -2.64 3.34 -4 3 C-2.1875 1.4375 -2.1875 1.4375 0 0 Z " fill="#EAEAEA" transform="translate(336,300)"/>
<path d="M0 0 C0 1.32 0 2.64 0 4 C-7.28571429 7.42857143 -7.28571429 7.42857143 -12 7 C-3.55172414 0 -3.55172414 0 0 0 Z " fill="#DADBDA" transform="translate(344,231)"/>
<path d="M0 0 C1.0625 1.8125 1.0625 1.8125 2 4 C1.67 4.99 1.34 5.98 1 7 C-2.4375 8.625 -2.4375 8.625 -6 10 C-6.99 10.495 -6.99 10.495 -8 11 C-6.63629701 8.00779732 -5.05091917 5.70973471 -2.875 3.25 C-2.33617187 2.63640625 -1.79734375 2.0228125 -1.2421875 1.390625 C-0.62730469 0.70226562 -0.62730469 0.70226562 0 0 Z " fill="#1E1E1E" transform="translate(308,216)"/>
<path d="M0 0 C3.31006727 0.34242075 5.65364491 0.93434299 8.625 2.375 C8.625 2.705 8.625 3.035 8.625 3.375 C7.99851563 3.35179687 7.37203125 3.32859375 6.7265625 3.3046875 C5.90929687 3.28664062 5.09203125 3.26859375 4.25 3.25 C3.03183594 3.21519531 3.03183594 3.21519531 1.7890625 3.1796875 C-0.58842243 3.16129949 -0.58842243 3.16129949 -2.375 5.375 C-4.5 5 -4.5 5 -6.375 4.375 C-4.58580218 1.00709822 -3.88663009 0.43184779 0 0 Z " fill="#EAEAEA" transform="translate(177.375,200.625)"/>
<path d="M0 0 C1 2 1 2 0.0625 5.125 C-0.288125 6.07375 -0.63875 7.0225 -1 8 C-1.66 8 -2.32 8 -3 8 C-4.62514468 9.45833358 -4.62514468 9.45833358 -6 11 C-6.66 10.34 -7.32 9.68 -8 9 C-7.01 9 -6.02 9 -5 9 C-5.99 8.34 -6.98 7.68 -8 7 C-5.36 4.69 -2.72 2.38 0 0 Z " fill="#DBDBDB" transform="translate(304,180)"/>
<path d="M0 0 C2 2 2 2 2.125 5.125 C2.08375 6.07375 2.0425 7.0225 2 8 C2.66 8.33 3.32 8.66 4 9 C2 10 2 10 -0.5625 9.3125 C-3 8 -3 8 -4.0625 6.125 C-4 4 -4 4 -2.0625 1.75 C-1.381875 1.1725 -0.70125 0.595 0 0 Z " fill="#DADBDA" transform="translate(366,166)"/>
<path d="M0 0 C0.66 0.33 1.32 0.66 2 1 C-0.60253905 4.66283273 -2.52332675 6.96692156 -7 8 C-7.99 7.34 -8.98 6.68 -10 6 C-8.3811004 4.96951963 -6.75467511 3.95085322 -5.125 2.9375 C-4.22007812 2.36902344 -3.31515625 1.80054688 -2.3828125 1.21484375 C-1.20332031 0.61349609 -1.20332031 0.61349609 0 0 Z " fill="#D6D7D6" transform="translate(360,326)"/>
<path d="M0 0 C3 1 3 1 5 2 C5.99 1.67 6.98 1.34 8 1 C8.33 3.31 8.66 5.62 9 8 C5.7 6.35 2.4 4.7 -1 3 C-0.67 2.01 -0.34 1.02 0 0 Z " fill="#181A19" transform="translate(136,323)"/>
<path d="M0 0 C0.66 0.99 1.32 1.98 2 3 C1.34 3 0.68 3 0 3 C0.309375 3.804375 0.309375 3.804375 0.625 4.625 C1.13915384 7.88130764 0.24474588 9.98640472 -1 13 C-1.66 13.66 -2.32 14.32 -3 15 C-3.66 15.99 -4.32 16.98 -5 18 C-4.42934122 11.58008874 -2.32655091 5.98410537 0 0 Z " fill="#C5C5C5" transform="translate(271,260)"/>
<path d="M0 0 C3.7758544 0.52442422 6.22372155 1.32654667 9 4 C9 4.99 9 5.98 9 7 C7.02 6.34 5.04 5.68 3 5 C3 4.34 3 3.68 3 3 C1.68 2.67 0.36 2.34 -1 2 C-0.67 1.34 -0.34 0.68 0 0 Z " fill="#E8E8E8" transform="translate(189,287)"/>
<path d="M0 0 C1.32 0.66 2.64 1.32 4 2 C2.8553125 2.8971875 2.8553125 2.8971875 1.6875 3.8125 C-0.3483575 5.46959332 -2.1978279 7.10297674 -4 9 C-3.6875 5.625 -3.6875 5.625 -3 2 C-2.01 1.34 -1.02 0.68 0 0 Z " fill="#DEE0DF" transform="translate(202,120)"/>
<path d="M0 0 C1.32 0.33 2.64 0.66 4 1 C3.67 2.65 3.34 4.3 3 6 C2.34 6 1.68 6 1 6 C0.67 5.67 0.34 5.34 0 5 C-0.99 5.33 -1.98 5.66 -3 6 C-3.66 5.67 -4.32 5.34 -5 5 C-5 4.34 -5 3.68 -5 3 C-3.35 3 -1.7 3 0 3 C0 2.01 0 1.02 0 0 Z " fill="#E4E6E5" transform="translate(297,118)"/>
<path d="M0 0 C1.125 1.6875 1.125 1.6875 2 4 C1.125 6.75 1.125 6.75 0 9 C-0.66 9 -1.32 9 -2 9 C-5 5.53846154 -5 5.53846154 -5 3 C-4.01 2.67 -3.02 2.34 -2 2 C-1.34 2.33 -0.68 2.66 0 3 C0 2.01 0 1.02 0 0 Z " fill="#151615" transform="translate(319,294)"/>
<path d="M0 0 C1 3 1 3 0 6 C-0.66 6 -1.32 6 -2 6 C-2.66 7.65 -3.32 9.3 -4 11 C-4.99 10.67 -5.98 10.34 -7 10 C-6.02223933 8.51990357 -5.0427506 7.04094856 -4.0625 5.5625 C-3.51722656 4.73878906 -2.97195313 3.91507813 -2.41015625 3.06640625 C-1 1 -1 1 0 0 Z " fill="#D9DADA" transform="translate(320,248)"/>
<path d="M0 0 C0.99 0 1.98 0 3 0 C4.0625 2.375 4.0625 2.375 5 5 C4.67 5.66 4.34 6.32 4 7 C2.35 7 0.7 7 -1 7 C-0.67 4.69 -0.34 2.38 0 0 Z " fill="#E7E9E8" transform="translate(242,169)"/>
<path d="M0 0 C0.66 0 1.32 0 2 0 C2 0.66 2 1.32 2 2 C4.31 2.66 6.62 3.32 9 4 C7.25 5.125 7.25 5.125 5 6 C4.4121875 5.7009375 3.824375 5.401875 3.21875 5.09375 C0.50334509 3.75517011 -1.73993549 3.59000461 -4.75 3.375 C-6.22726563 3.26285156 -6.22726563 3.26285156 -7.734375 3.1484375 C-8.48203125 3.09945312 -9.2296875 3.05046875 -10 3 C-10 2.67 -10 2.34 -10 2 C-6.7 1.67 -3.4 1.34 0 1 C0 0.67 0 0.34 0 0 Z " fill="#B2B4B3" transform="translate(219,118)"/>
<path d="M0 0 C1.875 0.3125 1.875 0.3125 4 1 C6 4 6 4 6 7 C5.01 7 4.02 7 3 7 C3 6.01 3 5.02 3 4 C2.34 4.99 1.68 5.98 1 7 C0 6 0 6 -0.0625 2.9375 C-0.041875 1.968125 -0.02125 0.99875 0 0 Z " fill="#E5E5E5" transform="translate(184,278)"/>
<path d="M0 0 C0.66 1.32 1.32 2.64 2 4 C-2.39453125 8.00390625 -2.39453125 8.00390625 -4 9 C-4.99 8.67 -5.98 8.34 -7 8 C-4.69 5.36 -2.38 2.72 0 0 Z " fill="#1E201F" transform="translate(330,248)"/>
<path d="M0 0 C0.66 0.33 1.32 0.66 2 1 C-1.44615385 5.8 -1.44615385 5.8 -4.25 6.8125 C-5.11625 6.9053125 -5.11625 6.9053125 -6 7 C-6 7.66 -6 8.32 -6 9 C-7.98 9.66 -9.96 10.32 -12 11 C-8.19588166 7.08060535 -4.18423892 3.50897269 0 0 Z " fill="#181818" transform="translate(310,185)"/>
<path d="M0 0 C0.99 0.66 1.98 1.32 3 2 C3 2.99 3 3.98 3 5 C2.34 5 1.68 5 1 5 C1 5.66 1 6.32 1 7 C1.99 7.33 2.98 7.66 4 8 C3.34 8.66 2.68 9.32 2 10 C0.68 9.01 -0.64 8.02 -2 7 C-1.34 7 -0.68 7 0 7 C-0.66 5.35 -1.32 3.7 -2 2 C-1.34 1.34 -0.68 0.68 0 0 Z " fill="#DCDCDC" transform="translate(136,178)"/>
<path d="M0 0 C0.33 0.66 0.66 1.32 1 2 C1.99 2 2.98 2 4 2 C3.67 3.98 3.34 5.96 3 8 C2.01 7.34 1.02 6.68 0 6 C-0.33 6.66 -0.66 7.32 -1 8 C-1.99 7.67 -2.98 7.34 -4 7 C-2.68 4.69 -1.36 2.38 0 0 Z " fill="#D3D5D4" transform="translate(311,169)"/>
<path d="M0 0 C0.66 0.33 1.32 0.66 2 1 C1.071875 1.763125 0.14375 2.52625 -0.8125 3.3125 C-2.98276101 5.11848552 -5.05568065 6.9476629 -7 9 C-7.33 8.01 -7.66 7.02 -8 6 C-8.66 5.67 -9.32 5.34 -10 5 C-8.38007835 4.13624104 -6.75388139 3.28424146 -5.125 2.4375 C-4.22007812 1.96183594 -3.31515625 1.48617187 -2.3828125 0.99609375 C-1.20332031 0.50302734 -1.20332031 0.50302734 0 0 Z " fill="#CFD1D0" transform="translate(253,163)"/>
<path d="M0 0 C0.66 0.33 1.32 0.66 2 1 C1.375 2.875 1.375 2.875 0 5 C-3.03002866 6.38327396 -5.05717747 7.14886672 -8.375 6.625 C-8.91125 6.41875 -9.4475 6.2125 -10 6 C-7.35603236 3.35603236 -4.42496181 2.43225676 -1 1 C-0.67 0.67 -0.34 0.34 0 0 Z " fill="#0B0D0C" transform="translate(252,160)"/>
<path d="M0 0 C2.475 0.99 2.475 0.99 5 2 C4.34 3.98 3.68 5.96 3 8 C0.13275314 7.42655063 -0.8614515 7.1385485 -3 5 C-2.01 4.67 -1.02 4.34 0 4 C0 2.68 0 1.36 0 0 Z " fill="#EBEDEC" transform="translate(251,131)"/>
<path d="M0 0 C4 4.625 4 4.625 4 8 C3.4225 7.690625 2.845 7.38125 2.25 7.0625 C0.15705816 6.07416636 -1.74535275 5.4831387 -4 5 C-3.67 4.34 -3.34 3.68 -3 3 C-2.34 3 -1.68 3 -1 3 C-0.67 2.01 -0.34 1.02 0 0 Z " fill="#DCDCDC" transform="translate(306,207)"/>
<path d="M0 0 C0.99 0.33 1.98 0.66 3 1 C2.34 1 1.68 1 1 1 C0.773125 1.598125 0.54625 2.19625 0.3125 2.8125 C-1.37304841 5.62174735 -3.05002192 6.63293699 -6 8 C-6.99 7.67 -7.98 7.34 -9 7 C-3.25 2 -3.25 2 -1 2 C-0.67 1.34 -0.34 0.68 0 0 Z " fill="#EAEBEB" transform="translate(370,285)"/>
<path d="M0 0 C0.66 0.66 1.32 1.32 2 2 C1.34 2 0.68 2 0 2 C0.66 4.64 1.32 7.28 2 10 C-1 10 -1 10 -2.6875 8.625 C-4 7 -4 7 -4 5 C-3.34 4.67 -2.68 4.34 -2 4 C-0.86649466 1.98330173 -0.86649466 1.98330173 0 0 Z " fill="#D7D7D7" transform="translate(184,276)"/>
<path d="M0 0 C0.125 2.875 0.125 2.875 0 6 C-0.66 6.66 -1.32 7.32 -2 8 C-3.54571278 5.68143083 -4.79618552 3.49361571 -6 1 C-1.125 0 -1.125 0 0 0 Z " fill="#EAECEB" transform="translate(277,262)"/>
<path d="M0 0 C2.1385485 2.1385485 2.42655063 3.13275314 3 6 C2.01 6.495 2.01 6.495 1 7 C0.01 6.34 -0.98 5.68 -2 5 C-2 4.34 -2 3.68 -2 3 C-2.99 2.67 -3.98 2.34 -5 2 C-3.35 1.34 -1.7 0.68 0 0 Z " fill="#DFDFDF" transform="translate(302,215)"/>
<path d="M0 0 C2 3 2 3 1.75 5.0625 C1 7 1 7 -1 9 C-2.32 8.67 -3.64 8.34 -5 8 C-3.35 5.36 -1.7 2.72 0 0 Z " fill="#212121" transform="translate(317,174)"/>
<path d="M0 0 C-1 3 -1 3 -4 5 C-4 5.99 -4 6.98 -4 8 C-7 7 -7 7 -9 4 C-2.25 0 -2.25 0 0 0 Z " fill="#DBDDDC" transform="translate(319,359)"/>
<path d="M0 0 C0 0.66 0 1.32 0 2 C0.66 2 1.32 2 2 2 C2 2.66 2 3.32 2 4 C0.35 4.33 -1.3 4.66 -3 5 C-2.67 4.01 -2.34 3.02 -2 2 C-3.98 2.66 -5.96 3.32 -8 4 C-8.66 3.34 -9.32 2.68 -10 2 C-8.7090864 1.66376204 -7.41723903 1.33110751 -6.125 1 C-5.40570313 0.814375 -4.68640625 0.62875 -3.9453125 0.4375 C-2 0 -2 0 0 0 Z " fill="#D1D2D1" transform="translate(320,349)"/>
<path d="M0 0 C-0.33 0.99 -0.66 1.98 -1 3 C-6.75 4.125 -6.75 4.125 -9 3 C-9 2.34 -9 1.68 -9 1 C-6.04335481 -0.4783226 -3.25770263 -0.06032783 0 0 Z " fill="#E7E7E7" transform="translate(362,289)"/>
<path d="M0 0 C1.85776765 3.13498292 2.20140476 5.37471432 2 9 C1.34 8.67 0.68 8.34 0 8 C-0.66 8.66 -1.32 9.32 -2 10 C-3.39195915 5.82412255 -1.82323219 3.86525224 0 0 Z " fill="#1D1E1D" transform="translate(283,252)"/>
<path d="M0 0 C0.33 1.32 0.66 2.64 1 4 C-3.75 5.125 -3.75 5.125 -6 4 C-6 3.01 -6 2.02 -6 1 C-3 0 -3 0 0 0 Z " fill="#EBEBEB" transform="translate(295,228)"/>
<path d="M0 0 C0.33 0.66 0.66 1.32 1 2 C1.99 2.33 2.98 2.66 4 3 C1.69 4.98 -0.62 6.96 -3 9 C-2.5020163 5.26512223 -2.12508244 3.18762365 0 0 Z " fill="#D4D4D4" transform="translate(307,182)"/>
<path d="M0 0 C0.66 0.33 1.32 0.66 2 1 C1.67 1.66 1.34 2.32 1 3 C2.65 3.33 4.3 3.66 6 4 C4.8125 5.5625 4.8125 5.5625 3 7 C0.3125 6.6875 0.3125 6.6875 -2 6 C-1.34 5.67 -0.68 5.34 0 5 C-0.2784375 4.0409375 -0.2784375 4.0409375 -0.5625 3.0625 C-0.7790625 2.0415625 -0.7790625 2.0415625 -1 1 C-0.67 0.67 -0.34 0.34 0 0 Z " fill="#EDEDED" transform="translate(362,171)"/>
<path d="M0 0 C2.3431213 0.25561323 4.67843403 0.59270772 7 1 C7.33 1.66 7.66 2.32 8 3 C2.25 3.125 2.25 3.125 0 2 C0 1.34 0 0.68 0 0 Z M0 3 C0.66 3 1.32 3 2 3 C2 3.99 2 4.98 2 6 C1.01 6 0.02 6 -1 6 C-0.67 5.01 -0.34 4.02 0 3 Z " fill="#EAEBEB" transform="translate(121,172)"/>
<path d="M0 0 C2.62187494 1.04874998 3.79371361 1.64931313 5.25 4.125 C5.4975 4.74375 5.745 5.3625 6 6 C2.98968256 6.93423645 2.13349732 7.04449911 -1 6 C-0.67 4.02 -0.34 2.04 0 0 Z " fill="#E4E4E4" transform="translate(260,138)"/>
<path d="M0 0 C4.455 1.98 4.455 1.98 9 4 C8.67 4.66 8.34 5.32 8 6 C6.68428397 5.7452486 5.37239624 5.47065859 4.0625 5.1875 C3.33160156 5.03667969 2.60070312 4.88585937 1.84765625 4.73046875 C1.23792969 4.48941406 0.62820312 4.24835938 0 4 C-0.33 3.01 -0.66 2.02 -1 1 C-0.67 0.67 -0.34 0.34 0 0 Z " fill="#0C0E0D" transform="translate(219,121)"/>
<path d="M0 0 C-0.33 0.99 -0.66 1.98 -1 3 C-7.625 3.25 -7.625 3.25 -11 1 C-9.5437328 0.63743142 -8.08488815 0.28520207 -6.625 -0.0625 C-5.40683594 -0.35833984 -5.40683594 -0.35833984 -4.1640625 -0.66015625 C-2 -1 -2 -1 0 0 Z " fill="#D3D3D3" transform="translate(333,303)"/>
<path d="M0 0 C0.33 0 0.66 0 1 0 C1 2.64 1 5.28 1 8 C0.01 8 -0.98 8 -2 8 C-2.33 6.02 -2.66 4.04 -3 2 C-2.34 2 -1.68 2 -1 2 C-0.67 1.34 -0.34 0.68 0 0 Z " fill="#E8E8E8" transform="translate(229,277)"/>
<path d="M0 0 C2.31 0 4.62 0 7 0 C6.67 0.66 6.34 1.32 6 2 C7.32 2.66 8.64 3.32 10 4 C7.69 4.33 5.38 4.66 3 5 C2.67 4.01 2.34 3.02 2 2 C1.34 1.34 0.68 0.68 0 0 Z " fill="#EBECEB" transform="translate(155,271)"/>
<path d="M0 0 C1.32 0 2.64 0 4 0 C4.66 1.65 5.32 3.3 6 5 C5.01 5.33 4.02 5.66 3 6 C2.01 5.34 1.02 4.68 0 4 C0 2.68 0 1.36 0 0 Z " fill="#EAEAEA" transform="translate(259,204)"/>
<path d="M0 0 C2 1 2 1 5 3 C5 3.66 5 4.32 5 5 C5.66 5.33 6.32 5.66 7 6 C6.01 6.33 5.02 6.66 4 7 C4 6.34 4 5.68 4 5 C2.68 5 1.36 5 0 5 C0 4.34 0 3.68 0 3 C-0.99 2.67 -1.98 2.34 -3 2 C-2.01 1.34 -1.02 0.68 0 0 Z " fill="#DADBDB" transform="translate(329,189)"/>
<path d="M0 0 C0.33 0.99 0.66 1.98 1 3 C1.66 3.66 2.32 4.32 3 5 C-0.05263664 5.98120464 -1.94736336 5.98120464 -5 5 C-4.67 3.68 -4.34 2.36 -4 1 C-2.68 0.67 -1.36 0.34 0 0 Z " fill="#E8E8E8" transform="translate(335,187)"/>
<path d="M0 0 C0.99 0.33 1.98 0.66 3 1 C3.94921875 3.28515625 3.94921875 3.28515625 4.6875 6.0625 C4.93886719 6.98160156 5.19023437 7.90070313 5.44921875 8.84765625 C5.63097656 9.55792969 5.81273437 10.26820313 6 11 C5.01 10.67 4.02 10.34 3 10 C1.25327015 6.5065403 0 3.93154432 0 0 Z " fill="#D0D4D3" transform="translate(268,321)"/>
<path d="M0 0 C-0.3125 2.375 -0.3125 2.375 -1 5 C-1.99 5.66 -2.98 6.32 -4 7 C-4 5.68 -4 4.36 -4 3 C-4.66 2.67 -5.32 2.34 -6 2 C-2.25 0 -2.25 0 0 0 Z " fill="#E3E3E3" transform="translate(129,230)"/>
<path d="M0 0 C0.66 0 1.32 0 2 0 C2.33 0.33 2.66 0.66 3 1 C3.99 0.67 4.98 0.34 6 0 C6 1.32 6 2.64 6 4 C3.69 4.33 1.38 4.66 -1 5 C-0.67 3.35 -0.34 1.7 0 0 Z " fill="#EAEAEA" transform="translate(171,223)"/>
<path d="M0 0 C0.66 0 1.32 0 2 0 C2 0.99 2 1.98 2 3 C3.32 3 4.64 3 6 3 C6 3.66 6 4.32 6 5 C3.69 5.66 1.38 6.32 -1 7 C-1.33 6.34 -1.66 5.68 -2 5 C-1.0625 2.375 -1.0625 2.375 0 0 Z " fill="#E9E9E9" transform="translate(354,176)"/>
<path d="M0 0 C-1.62339805 1.70884005 -3.29319053 3.37446717 -5 5 C-5.66 5 -6.32 5 -7 5 C-7.33 4.34 -7.66 3.68 -8 3 C-8.66 2.67 -9.32 2.34 -10 2 C-6.3558226 -0.4294516 -4.28758728 -0.16179575 0 0 Z " fill="#232323" transform="translate(124,179)"/>
<path d="M0 0 C0.66 0.33 1.32 0.66 2 1 C0.35 2.98 -1.3 4.96 -3 7 C-4.65 6.67 -6.3 6.34 -8 6 C-5.38485683 3.87961365 -2.80362384 1.86908256 0 0 Z " fill="#202221" transform="translate(151,153)"/>
<path d="M0 0 C0.66 0 1.32 0 2 0 C2 0.66 2 1.32 2 2 C3.65 2.33 5.3 2.66 7 3 C6.34 4.32 5.68 5.64 5 7 C3.02 5.68 1.04 4.36 -1 3 C-0.67 2.01 -0.34 1.02 0 0 Z " fill="#D6D8D7" transform="translate(296,122)"/>
<path d="M0 0 C1.32 0.66 2.64 1.32 4 2 C3.01 2.495 3.01 2.495 2 3 C1.67 3.99 1.34 4.98 1 6 C-1.475 5.01 -1.475 5.01 -4 4 C-2.68 3.34 -1.36 2.68 0 2 C0 1.34 0 0.68 0 0 Z " fill="#131514" transform="translate(235,115)"/>
<path d="M0 0 C1.11375 0.3403125 1.11375 0.3403125 2.25 0.6875 C1.26 1.1825 1.26 1.1825 0.25 1.6875 C-0.41 1.3575 -1.07 1.0275 -1.75 0.6875 C-2.08 1.6775 -2.41 2.6675 -2.75 3.6875 C-5.8125 5.375 -5.8125 5.375 -8.75 6.6875 C-6.97710463 2.40300285 -4.94524284 -0.56195941 0 0 Z " fill="#1C1C1C" transform="translate(162.75,276.3125)"/>
<path d="M0 0 C2 1 2 1 2.9375 3 C3.8891846 5.34608221 3.8891846 5.34608221 7 6 C4.525 7.485 4.525 7.485 2 9 C1.87625 8.360625 1.7525 7.72125 1.625 7.0625 C1.315625 6.0415625 1.315625 6.0415625 1 5 C0.34 4.67 -0.32 4.34 -1 4 C-0.67 2.68 -0.34 1.36 0 0 Z " fill="#D2D3D3" transform="translate(330,238)"/>
<path d="M0 0 C0.33 1.32 0.66 2.64 1 4 C-1.31 5.32 -3.62 6.64 -6 8 C-6 7.34 -6 6.68 -6 6 C-5.34 6 -4.68 6 -4 6 C-4.33 5.01 -4.66 4.02 -5 3 C-3.35 2.67 -1.7 2.34 0 2 C0 1.34 0 0.68 0 0 Z " fill="#0B0D0C" transform="translate(344,226)"/>
<path d="M0 0 C1.32 0.66 2.64 1.32 4 2 C1.94766315 4.2477975 0.99332739 5.0022242 -2 6 C-2.33 4.68 -2.66 3.36 -3 2 C-2.01 2 -1.02 2 0 2 C0 1.34 0 0.68 0 0 Z " fill="#DEE0DF" transform="translate(142,154)"/>
<path d="M0 0 C0.66 0.33 1.32 0.66 2 1 C2 2.98 2 4.96 2 7 C-0.31 6.67 -2.62 6.34 -5 6 C-4.34 5.67 -3.68 5.34 -3 5 C-3 4.34 -3 3.68 -3 3 C-1.5 1.375 -1.5 1.375 0 0 Z " fill="#D9DBDA" transform="translate(250,130)"/>
<path d="M0 0 C2.625 0.9375 2.625 0.9375 5 2 C4.01 3.485 4.01 3.485 3 5 C1.0625 4.6875 1.0625 4.6875 -1 4 C-1.33 3.01 -1.66 2.02 -2 1 C-1.34 0.67 -0.68 0.34 0 0 Z " fill="#DDE1E0" transform="translate(329,130)"/>
<path d="M0 0 C-1.125 1.5 -1.125 1.5 -3 3 C-6.1875 3.1875 -6.1875 3.1875 -9 3 C-7.01532024 -0.96935951 -3.9567243 -1.41311582 0 0 Z " fill="#D8D9D9" transform="translate(293,376)"/>
<path d="M0 0 C0.33 0.66 0.66 1.32 1 2 C3.32156597 2.40729228 5.6568787 2.74438677 8 3 C7.01 3.99 6.02 4.98 5 6 C2.69 5.01 0.38 4.02 -2 3 C-1.34 2.67 -0.68 2.34 0 2 C0 1.34 0 0.68 0 0 Z " fill="#D5D6D5" transform="translate(173,275)"/>
<path d="M0 0 C0.66 0.66 1.32 1.32 2 2 C1.625 4.125 1.625 4.125 1 6 C-0.32 6.33 -1.64 6.66 -3 7 C-3 5.02 -3 3.04 -3 1 C-2.01 1.495 -2.01 1.495 -1 2 C-0.67 1.34 -0.34 0.68 0 0 Z " fill="#EBEBEB" transform="translate(199,238)"/>
<path d="M0 0 C2.475 0.99 2.475 0.99 5 2 C5 2.99 5 3.98 5 5 C2.03 4.505 2.03 4.505 -1 4 C-0.67 2.68 -0.34 1.36 0 0 Z " fill="#0E0E0E" transform="translate(179,233)"/>
<path d="M0 0 C1.98 0.99 3.96 1.98 6 3 C6 3.99 6 4.98 6 6 C0.25 4.25 0.25 4.25 -2 2 C-1.34 1.34 -0.68 0.68 0 0 Z " fill="#D7D7D7" transform="translate(173,226)"/>
<path d="M0 0 C2.475 0.495 2.475 0.495 5 1 C4.67 2.65 4.34 4.3 4 6 C2.68 5.34 1.36 4.68 0 4 C0 2.68 0 1.36 0 0 Z " fill="#111111" transform="translate(187,225)"/>
<path d="M0 0 C1.65 0.33 3.3 0.66 5 1 C5 1.66 5 2.32 5 3 C2.36 3.66 -0.28 4.32 -3 5 C-2.01 3.35 -1.02 1.7 0 0 Z " fill="#DBDBDB" transform="translate(137,223)"/>
<path d="M0 0 C3.45925163 1.2491742 6.14693203 2.67527795 9 5 C8.01 5.33 7.02 5.66 6 6 C2.8125 4.1875 2.8125 4.1875 0 2 C0 1.34 0 0.68 0 0 Z " fill="#181818" transform="translate(129,183)"/>
<path d="M0 0 C0.66 0.33 1.32 0.66 2 1 C2.625 3.0625 2.625 3.0625 3 5 C2.01 5.495 2.01 5.495 1 6 C-1.625 5.0625 -1.625 5.0625 -4 4 C-2.68 2.68 -1.36 1.36 0 0 Z " fill="#222423" transform="translate(225,110)"/>
<path d="M0 0 C0.99 0 1.98 0 3 0 C3 0.66 3 1.32 3 2 C5.475 2.99 5.475 2.99 8 4 C8 4.99 8 5.98 8 7 C6.66144944 6.21718695 5.32926356 5.42348123 4 4.625 C3.2575 4.18414062 2.515 3.74328125 1.75 3.2890625 C1.1725 2.86367187 0.595 2.43828125 0 2 C0 1.34 0 0.68 0 0 Z " fill="#C2C4C3" transform="translate(291,112)"/>
<path d="M0 0 C1.98 0.66 3.96 1.32 6 2 C6 3.32 6 4.64 6 6 C3.5625 5.25 3.5625 5.25 1 4 C0.1875 1.875 0.1875 1.875 0 0 Z " fill="#181919" transform="translate(213,367)"/>
<path d="M0 0 C0.66 0.99 1.32 1.98 2 3 C1.01 3.99 0.02 4.98 -1 6 C-2.32 4.35 -3.64 2.7 -5 1 C-3.35 0.67 -1.7 0.34 0 0 Z " fill="#D5D5D5" transform="translate(277,343)"/>
<path d="M0 0 C0.33 0.99 0.66 1.98 1 3 C0.01 3.99 -0.98 4.98 -2 6 C-3.5 4.625 -3.5 4.625 -5 3 C-5 2.34 -5 1.68 -5 1 C-3 0 -3 0 0 0 Z " fill="#121413" transform="translate(159,331)"/>
<path d="M0 0 C0.33 0 0.66 0 1 0 C1.39036513 1.60049704 1.76178619 3.20562371 2.125 4.8125 C2.33382813 5.70582031 2.54265625 6.59914063 2.7578125 7.51953125 C3 10 3 10 1 13 C0.1276588 10.00519083 -0.10829766 7.36424089 -0.0625 4.25 C-0.05347656 3.45078125 -0.04445313 2.6515625 -0.03515625 1.828125 C-0.02355469 1.22484375 -0.01195312 0.6215625 0 0 Z " fill="#B9BAB9" transform="translate(304,283)"/>
<path d="M0 0 C0.99 0 1.98 0 3 0 C3.33 0.66 3.66 1.32 4 2 C3.25 4.0625 3.25 4.0625 2 6 C1.01 6.33 0.02 6.66 -1 7 C-0.67 4.69 -0.34 2.38 0 0 Z " fill="#D8DAD9" transform="translate(113,244)"/>
<path d="M0 0 C0.66 0.33 1.32 0.66 2 1 C2 1.66 2 2.32 2 3 C1.34 3 0.68 3 0 3 C0 3.99 0 4.98 0 6 C-2.5 7.6875 -2.5 7.6875 -5 9 C-3.7508258 5.54074837 -2.32472205 2.85306797 0 0 Z " fill="#232323" transform="translate(294,234)"/>
<path d="M0 0 C0 0.66 0 1.32 0 2 C-0.99 2 -1.98 2 -3 2 C-3 2.99 -3 3.98 -3 5 C-5.31 5 -7.62 5 -10 5 C-7.30495181 2.30495181 -3.91639523 0 0 0 Z " fill="#C5C7C6" transform="translate(290,192)"/>
<path d="M0 0 C-4.58031088 2.99481865 -4.58031088 2.99481865 -7 4 C-9.4375 3.25 -9.4375 3.25 -11 2 C-11 1.67 -11 1.34 -11 1 C-3.375 -1.125 -3.375 -1.125 0 0 Z " fill="#323433" transform="translate(323,357)"/>
<path d="M0 0 C0.33 1.32 0.66 2.64 1 4 C1.66 4 2.32 4 3 4 C2.34 5.32 1.68 6.64 1 8 C-0.32 7.67 -1.64 7.34 -3 7 C-2.67 6.34 -2.34 5.68 -2 5 C-1.32650839 3.33607955 -0.6590841 1.66967972 0 0 Z " fill="#ECECEC" transform="translate(275,337)"/>
<path d="M0 0 C3.16115776 1.36983503 3.9927092 1.9890638 6 5 C4.35 5 2.7 5 1 5 C1 4.34 1 3.68 1 3 C0.34 3 -0.32 3 -1 3 C-0.67 2.01 -0.34 1.02 0 0 Z " fill="#D6D8D7" transform="translate(154,335)"/>
<path d="M0 0 C0.99 0.33 1.98 0.66 3 1 C3.8125 2.875 3.8125 2.875 4 5 C3.01 6.485 3.01 6.485 2 8 C1.01 5.69 0.02 3.38 -1 1 C-0.67 0.67 -0.34 0.34 0 0 Z " fill="#121312" transform="translate(275,331)"/>
<path d="M0 0 C0.33 0 0.66 0 1 0 C1 1.98 1 3.96 1 6 C0.01 6.33 -0.98 6.66 -2 7 C-2.66 5.35 -3.32 3.7 -4 2 C-3.01 2 -2.02 2 -1 2 C-0.67 1.34 -0.34 0.68 0 0 Z " fill="#111111" transform="translate(230,265)"/>
<path d="M0 0 C0.99 0.33 1.98 0.66 3 1 C4.1875 3.5625 4.1875 3.5625 5 6 C2.36 5.34 -0.28 4.68 -3 4 C-2.01 2.68 -1.02 1.36 0 0 Z " fill="#272727" transform="translate(171,265)"/>
<path d="M0 0 C1.65 0 3.3 0 5 0 C5 0.99 5 1.98 5 3 C4.01 3.66 3.02 4.32 2 5 C1.34 4.34 0.68 3.68 0 3 C0 2.01 0 1.02 0 0 Z " fill="#1D1F1E" transform="translate(320,241)"/>
<path d="M0 0 C0.66 0.33 1.32 0.66 2 1 C1 3 1 3 -2.0625 4.125 C-3.5165625 4.558125 -3.5165625 4.558125 -5 5 C-5.66 4.34 -6.32 3.68 -7 3 C-4.69631264 1.93347808 -2.35981813 0.93578995 0 0 Z " fill="#1E1E1E" transform="translate(140,226)"/>
<path d="M0 0 C1.32 0 2.64 0 4 0 C4 0.66 4 1.32 4 2 C5.32 2 6.64 2 8 2 C8 2.66 8 3.32 8 4 C6.00045254 4.04254356 3.99958364 4.04080783 2 4 C1.67 3.67 1.34 3.34 1 3 C0.34 3 -0.32 3 -1 3 C-0.67 2.01 -0.34 1.02 0 0 Z " fill="#ECEEED" transform="translate(325,192)"/>
<path d="M0 0 C4.29 0 8.58 0 13 0 C13.33 0.99 13.66 1.98 14 3 C9.38 2.34 4.76 1.68 0 1 C0 0.67 0 0.34 0 0 Z " fill="#A4A6A5" transform="translate(154,152)"/>
<path d="M0 0 C2.9375 0.75 2.9375 0.75 6 2 C6.875 4.125 6.875 4.125 7 6 C3.62496331 4.8141763 1.35277269 3.72426311 -1 1 C-0.67 0.67 -0.34 0.34 0 0 Z " fill="#D1D3D2" transform="translate(337,136)"/>
<path d="M0 0 C0 0.66 0 1.32 0 2 C-2.97 2 -5.94 2 -9 2 C-8.67 1.34 -8.34 0.68 -8 0 C-4.71585695 -0.95067299 -3.30306592 -1.10102197 0 0 Z " fill="#DFE1E0" transform="translate(318,356)"/>
<path d="M0 0 C0.99 0.33 1.98 0.66 3 1 C2.67 1.99 2.34 2.98 2 4 C1.34 4 0.68 4 0 4 C-0.33 4.66 -0.66 5.32 -1 6 C-0.67 4.02 -0.34 2.04 0 0 Z M-4 5 C-3.01 5.33 -2.02 5.66 -1 6 C-1.66 6.66 -2.32 7.32 -3 8 C-3.33 7.01 -3.66 6.02 -4 5 Z " fill="#DADBDB" transform="translate(272,332)"/>
<path d="M0 0 C0.66 0.33 1.32 0.66 2 1 C2 2.98 2 4.96 2 7 C1.67 6.34 1.34 5.68 1 5 C-0.98 5.99 -0.98 5.99 -3 7 C-3.33 6.34 -3.66 5.68 -4 5 C-3.525625 4.54625 -3.05125 4.0925 -2.5625 3.625 C-0.90972192 2.06741796 -0.90972192 2.06741796 0 0 Z " fill="#161616" transform="translate(197,280)"/>
<path d="M0 0 C2.52588702 2.36292656 3.88820837 3.66462511 5 7 C3.35 7 1.7 7 0 7 C0 4.69 0 2.38 0 0 Z " fill="#212322" transform="translate(213,263)"/>
<path d="M0 0 C1.32 0.66 2.64 1.32 4 2 C2.68 2.99 1.36 3.98 0 5 C-0.99 4.01 -1.98 3.02 -3 2 C-2.01 1.34 -1.02 0.68 0 0 Z " fill="#E0E0E0" transform="translate(200,243)"/>
<path d="M0 0 C3.375 0.3125 3.375 0.3125 7 1 C7.66 1.99 8.32 2.98 9 4 C2.25 3.125 2.25 3.125 0 2 C0 1.34 0 0.68 0 0 Z " fill="#C6C6C6" transform="translate(176,206)"/>
<path d="M0 0 C0.99 0.99 1.98 1.98 3 3 C2.67 3.99 2.34 4.98 2 6 C1.67 5.34 1.34 4.68 1 4 C0.34 4 -0.32 4 -1 4 C-1.33 4.99 -1.66 5.98 -2 7 C-2.125 4.625 -2.125 4.625 -2 2 C-1.34 1.34 -0.68 0.68 0 0 Z " fill="#191B1A" transform="translate(307,136)"/>
<path d="M0 0 C0.99 0 1.98 0 3 0 C3.33 1.32 3.66 2.64 4 4 C2.68 4.33 1.36 4.66 0 5 C-0.5625 3.0625 -0.5625 3.0625 -1 1 C-0.67 0.67 -0.34 0.34 0 0 Z " fill="#E2E2E2" transform="translate(199,298)"/>
<path d="M0 0 C2.50298434 2.93828597 3.46930939 5.17902761 4 9 C3.01 9.495 3.01 9.495 2 10 C-0.09350689 6.5980513 -0.17942163 3.94727588 0 0 Z " fill="#EAECEB" transform="translate(306,293)"/>
<path d="M0 0 C2 1 2 1 2.8125 3.375 C2.874375 4.24125 2.93625 5.1075 3 6 C2.01 6.99 1.02 7.98 0 9 C0 6.03 0 3.06 0 0 Z " fill="#EEF0EF" transform="translate(373,288)"/>
<path d="M0 0 C0.66 0 1.32 0 2 0 C3.06775224 1.96466413 4.06553465 3.96855359 5 6 C4.67 6.66 4.34 7.32 4 8 C1.44971017 6.72485508 1.06918289 5.59658703 0 3 C0 2.01 0 1.02 0 0 Z " fill="#C4C6C5" transform="translate(236,288)"/>
<path d="M0 0 C0.66 0 1.32 0 2 0 C5 5.75 5 5.75 5 8 C4.01 7.67 3.02 7.34 2 7 C2 5.68 2 4.36 2 3 C1.34 3 0.68 3 0 3 C0 2.01 0 1.02 0 0 Z " fill="#D5D5D5" transform="translate(232,280)"/>
<path d="M0 0 C0.66 0.99 1.32 1.98 2 3 C1.01 4.32 0.02 5.64 -1 7 C-1.66 6.67 -2.32 6.34 -3 6 C-2.67 5.01 -2.34 4.02 -2 3 C-1.34 3 -0.68 3 0 3 C0 2.01 0 1.02 0 0 Z M-5 6 C-4.34 6 -3.68 6 -3 6 C-3.33 6.66 -3.66 7.32 -4 8 C-4.33 7.34 -4.66 6.68 -5 6 Z " fill="#D5D5D5" transform="translate(229,273)"/>
<path d="M0 0 C0.66 1.32 1.32 2.64 2 4 C0.35 5.32 -1.3 6.64 -3 8 C-2.67 6.02 -2.34 4.04 -2 2 C-1.34 2 -0.68 2 0 2 C0 1.34 0 0.68 0 0 Z " fill="#EFEFEF" transform="translate(307,212)"/>
<path d="M0 0 C-0.33 1.32 -0.66 2.64 -1 4 C-0.34 4 0.32 4 1 4 C1 4.66 1 5.32 1 6 C-0.32 5.67 -1.64 5.34 -3 5 C-3 4.34 -3 3.68 -3 3 C-3.66 2.67 -4.32 2.34 -5 2 C-2 0 -2 0 0 0 Z " fill="#D3D4D4" transform="translate(338,185)"/>
<path d="M0 0 C0.99 0.99 1.98 1.98 3 3 C2.67 3.99 2.34 4.98 2 6 C1.01 6 0.02 6 -1 6 C-1.042721 4.33388095 -1.04063832 2.66617115 -1 1 C-0.67 0.67 -0.34 0.34 0 0 Z " fill="#E6E6E6" transform="translate(149,187)"/>
<path d="M0 0 C0.66 0.33 1.32 0.66 2 1 C1.34 1.66 0.68 2.32 0 3 C0 3.99 0 4.98 0 6 C-0.99 6.33 -1.98 6.66 -3 7 C-3.66 6.34 -4.32 5.68 -5 5 C-3.35 3.35 -1.7 1.7 0 0 Z " fill="#D5D5D5" transform="translate(146,184)"/>
<path d="M0 0 C0.99 0.99 1.98 1.98 3 3 C2.34 4.98 1.68 6.96 1 9 C0.34 8.34 -0.32 7.68 -1 7 C-1 6.01 -1 5.02 -1 4 C-0.34 4 0.32 4 1 4 C0.67 2.68 0.34 1.36 0 0 Z " fill="#1F2120" transform="translate(257,144)"/>
<path d="M0 0 C0.33 0.66 0.66 1.32 1 2 C2.32 2 3.64 2 5 2 C5 2.99 5 3.98 5 5 C-0.75 3.25 -0.75 3.25 -3 1 C-2.01 0.67 -1.02 0.34 0 0 Z " fill="#CECFCF" transform="translate(347,141)"/>
<path d="M0 0 C2.88575819 0.39803561 3.82189513 0.79009069 5.75 3.0625 C6.1625 3.701875 6.575 4.34125 7 5 C4 5 4 5 1.8125 3.0625 C0 1 0 1 0 0 Z " fill="#121212" transform="translate(295,126)"/>
<path d="M0 0 C2.475 0.495 2.475 0.495 5 1 C5.33 1.99 5.66 2.98 6 4 C3.03 3.505 3.03 3.505 0 3 C0 2.01 0 1.02 0 0 Z " fill="#0B0D0C" transform="translate(289,124)"/>
<path d="M0 0 C2.1875 0.3125 2.1875 0.3125 4 1 C3.34 1 2.68 1 2 1 C2 1.99 2 2.98 2 4 C0.35 3.67 -1.3 3.34 -3 3 C-1.75 1.4375 -1.75 1.4375 0 0 Z " fill="#1C1E1D" transform="translate(207,121)"/>
<path d="M0 0 C1.32 0.66 2.64 1.32 4 2 C3.01 3.485 3.01 3.485 2 5 C0.68 4.34 -0.64 3.68 -2 3 C-1.34 2.01 -0.68 1.02 0 0 Z " fill="#121212" transform="translate(275,113)"/>
<path d="M0 0 C0.66 0.33 1.32 0.66 2 1 C1.67 2.32 1.34 3.64 1 5 C-1.97 4.505 -1.97 4.505 -5 4 C-3.35 2.68 -1.7 1.36 0 0 Z " fill="#1D1F1E" transform="translate(239,102)"/>
<path d="M0 0 C-5.94 -0.99 -5.94 -0.99 -12 -2 C-12 -2.33 -12 -2.66 -12 -3 C-4.5 -4.5 -4.5 -4.5 0 0 Z " fill="#C0C1C0" transform="translate(258,102)"/>
</svg>
