<?xml version="1.0" encoding="UTF-8"?>
<svg version="1.1" xmlns="http://www.w3.org/2000/svg" width="480" height="480">
<path d="M0 0 C5.27801826 1.97925685 10.36793725 4.41233226 15.1953125 7.32421875 C19.03042719 9.61567307 22.95397957 11.73479397 26.875 13.875 C34.76049134 18.19508956 42.61039932 22.57500914 50.4375 27 C51.41380371 27.55155762 52.39010742 28.10311523 53.39599609 28.67138672 C58.58958672 31.612511 58.58958672 31.612511 61 33 C61.86761963 33.49757812 62.73523926 33.99515625 63.62915039 34.5078125 C67.58977804 37.00058937 70.26321846 39.74107638 71.7109375 44.1796875 C72.4444743 48.29026165 72.32637484 50.39560215 70.3125 54.125 C66.01159638 58.43781748 60.30617446 61.13427323 55 64 C54.10925781 64.48210937 53.21851563 64.96421875 52.30078125 65.4609375 C51.43839844 65.92757812 50.57601562 66.39421875 49.6875 66.875 C40.26951217 71.97982239 30.7444617 77.22139875 22.41796875 84.00390625 C21 85 21 85 19 85 C19 85.66 19 86.32 19 87 C17.49609375 88.48046875 17.49609375 88.48046875 15.4375 90.1875 C8.43725635 96.16301663 1.18099291 102.63801418 -3 111 C-3.66 111 -4.32 111 -5 111 C-5.25394531 111.70382813 -5.50789062 112.40765625 -5.76953125 113.1328125 C-7.12727606 116.29657343 -8.81636227 118.98558103 -10.6875 121.875 C-20.86551751 138.08968285 -27.35701133 156.23467705 -31 175 C-31.18304688 175.90492188 -31.36609375 176.80984375 -31.5546875 177.7421875 C-33.91568916 195.01477862 -32.60890175 214.51873454 -22 229 C-14.70093793 237.58401492 -6.55783699 241.37289499 4.625 242.30078125 C10.65778661 242.42429736 16.31136029 242.06841268 22.1328125 240.4375 C24 240 24 240 28 240 C28 240.66 28 241.32 28 242 C26.21240234 243.27270508 26.21240234 243.27270508 23.7109375 244.70703125 C22.7940918 245.23893066 21.87724609 245.77083008 20.93261719 246.31884766 C19.96485352 246.87362793 18.99708984 247.4284082 18 248 C16.15794349 249.08569595 14.31680305 250.1729476 12.4765625 251.26171875 C-0.23582217 258.71667213 -13.00933821 266.03916098 -26 273 C-27.07894531 273.59425781 -28.15789062 274.18851562 -29.26953125 274.80078125 C-33.43172563 276.62881226 -36.70030759 276.26694436 -41 275 C-44 273 -44 273 -46 270 C-47.35073109 262.19764028 -47.04750613 254.33633222 -46.96008301 246.44766235 C-46.65648409 215.2225135 -50.93075727 188.86993829 -66.75 161.46875 C-68 159 -68 159 -68 156 C-68.66 156 -69.32 156 -70 156 C-71.40234375 153.91796875 -71.40234375 153.91796875 -72.9375 151.1875 C-74.72289575 148.02310293 -76.34335036 145.47225493 -79 143 C-80.13524876 141.73831358 -81.25968022 140.46683739 -82.375 139.1875 C-82.99246094 138.48238281 -83.60992187 137.77726563 -84.24609375 137.05078125 C-85.68901342 135.36362574 -87.07211405 133.62549481 -88.4375 131.875 C-91.1784798 128.79975437 -94.04686452 126.62027061 -97.42578125 124.296875 C-98.20501953 123.65492188 -98.20501953 123.65492188 -99 123 C-99 122.34 -99 121.68 -99 121 C-99.54785156 120.74089844 -100.09570312 120.48179687 -100.66015625 120.21484375 C-103.36254159 118.81176889 -105.87868915 117.2127733 -108.4375 115.5625 C-110.28871792 114.37040835 -112.14282814 113.18279456 -114 112 C-115.21042969 111.21302734 -115.21042969 111.21302734 -116.4453125 110.41015625 C-119.37781554 108.79145044 -122.22996391 107.83461621 -125.4375 106.875 C-126.52933594 106.54242188 -127.62117188 106.20984375 -128.74609375 105.8671875 C-139.63335284 102.96566107 -150.34942484 102.61564371 -160.79296875 107.125 C-163 108 -163 108 -166 108 C-166 108.66 -166 109.32 -166 110 C-168.475 110.99 -168.475 110.99 -171 112 C-171 112.66 -171 113.32 -171 114 C-171.66 114 -172.32 114 -173 114 C-173.29003906 114.72832031 -173.58007812 115.45664063 -173.87890625 116.20703125 C-174.56506918 117.91646154 -175.25861528 119.62298014 -175.96484375 121.32421875 C-178.07266499 126.4456318 -179.7802454 131.48745318 -181.09375 136.87109375 C-182.21544528 139.50611069 -183.61713602 140.4814125 -186 142 C-187.84022101 140.15977899 -187.13737089 137.18914262 -187.14526367 134.72363281 C-187.14862228 134.06827545 -187.1519809 133.41291809 -187.15544128 132.73770142 C-187.16498103 130.55949026 -187.16689624 128.38135579 -187.16796875 126.203125 C-187.17118046 124.69195524 -187.17454446 123.1807858 -187.17805481 121.6696167 C-187.1840545 118.49523193 -187.18589397 115.32087442 -187.18530273 112.14648438 C-187.18520134 108.0832978 -187.1988259 104.02028689 -187.21607494 99.95714188 C-187.22721038 96.83269452 -187.22922143 93.70828932 -187.22869301 90.58382416 C-187.22987186 89.0863459 -187.23428834 87.58886651 -187.24202538 86.09140778 C-187.25185163 83.99213006 -187.24893648 81.89322944 -187.24291992 79.79394531 C-187.24434494 78.60005188 -187.24576996 77.40615845 -187.24723816 76.17608643 C-187.00295943 73.03801762 -186.34142916 70.82689241 -185 68 C-184.34 68 -183.68 68 -183 68 C-182.566875 67.0409375 -182.566875 67.0409375 -182.125 66.0625 C-181 64 -181 64 -179 63 C-172.97959576 62.12202438 -169.79777406 63.96087916 -164.79052734 67.23144531 C-162.20510444 68.8700108 -159.59657181 70.34984566 -156.8984375 71.79296875 C-152.96917242 73.9160394 -149.07703463 76.08815176 -145.2109375 78.32421875 C-143.76847656 79.15469727 -143.76847656 79.15469727 -142.296875 80.00195312 C-140.33801679 81.13196291 -138.38230773 82.2674482 -136.4296875 83.40820312 C-130.73802949 86.67096138 -125.31589156 89.2317496 -119 91 C-118.2668457 91.21760986 -117.53369141 91.43521973 -116.77832031 91.65942383 C-81.60388304 101.92562889 -39.06063442 101.76048035 -6 84 C2.13991736 78.94544235 10.36479081 73.30418943 15.6875 65.1875 C16.450625 64.135625 17.21375 63.08375 18 62 C18.66 62 19.32 62 20 62 C20.4797727 59.87529234 20.9563571 57.74982087 21.41796875 55.62109375 C21.79109082 53.94079234 22.18753194 52.26540037 22.61328125 50.59765625 C25.06118895 40.32310489 23.46604427 30.85315729 20 21 C19.34 21 18.68 21 18 21 C14 15.58823529 14 15.58823529 14 13 C13.34 13 12.68 13 12 13 C12 12.34 12 11.68 12 11 C11.34 11 10.68 11 10 11 C10 10.34 10 9.68 10 9 C9.34 9 8.68 9 8 9 C8 8.34 8 7.68 8 7 C7.01 7 6.02 7 5 7 C2.3125 4.625 2.3125 4.625 0 2 C0 1.34 0 0.68 0 0 Z " fill="#ECEBEC" transform="translate(296,115)"/>
<path d="M0 0 C0.07437576 5.44430582 0.12870866 10.88831329 0.16479492 16.33300781 C0.17984471 18.18364619 0.20028933 20.03424911 0.22631836 21.88476562 C0.2628698 24.55087045 0.27976454 27.21650208 0.29296875 29.8828125 C0.30845261 30.70492218 0.32393646 31.52703186 0.33988953 32.37405396 C0.34154098 38.06143718 -0.63071631 42.21866698 -4.4375 46.6875 C-9.73540074 51.13773662 -16.88404748 57 -24 57 C-24 57.66 -24 58.32 -24 59 C-26.95449913 60.6735337 -29.9142018 62.33763985 -32.875 64 C-33.71675781 64.47695312 -34.55851562 64.95390625 -35.42578125 65.4453125 C-36.63427734 66.12207031 -36.63427734 66.12207031 -37.8671875 66.8125 C-38.61081543 67.23144531 -39.35444336 67.65039062 -40.12060547 68.08203125 C-42 69 -42 69 -44 69 C-44.495 70.485 -44.495 70.485 -45 72 C-46.46572214 73.20185093 -47.93307698 74.40184668 -49.41357422 75.58544922 C-51.98230425 77.8758804 -53.76373667 80.66292258 -55.5625 83.5625 C-55.94599609 84.1702124 -56.32949219 84.7779248 -56.72460938 85.40405273 C-64.22542447 97.60239606 -66.89128299 108.76968512 -66 123 C-65.28201474 125.95122774 -64.30589534 128.23150187 -63 131 C-62.84144531 131.70382812 -62.68289063 132.40765625 -62.51953125 133.1328125 C-62.17373748 135.18353179 -62.17373748 135.18353179 -60.125 136.1875 C-52.9041009 138.94843201 -45.40678711 139.62053244 -38.1484375 136.53125 C-33.99078158 134.54888378 -29.99964148 132.27973928 -26 130 C-24.58213872 129.22268377 -23.16286213 128.44794362 -21.7421875 127.67578125 C-14.60997881 123.7689663 -7.64322978 119.70562109 -1 115 C0.64469981 119.93409943 0.26833769 125.02050966 0.3125 130.1875 C0.35600586 131.85522461 0.35600586 131.85522461 0.40039062 133.55664062 C0.45104146 140.13735275 0.4101998 145.81786002 -4 151 C-11.04887984 157.24140893 -19.40078806 161.70020188 -27.625 166.1875 C-28.69234375 166.77724609 -29.7596875 167.36699219 -30.859375 167.97460938 C-32.94111775 169.12417125 -35.02510604 170.26967826 -37.11157227 171.41064453 C-38.94482928 172.419393 -40.77171536 173.43987848 -42.58959961 174.47607422 C-46.43426203 176.66720852 -50.00868353 178.59480213 -54.3125 179.75 C-55.11300781 179.97171875 -55.91351563 180.1934375 -56.73828125 180.421875 C-57.48464844 180.61265625 -58.23101562 180.8034375 -59 181 C-59.63164062 181.18433594 -60.26328125 181.36867188 -60.9140625 181.55859375 C-70.04569559 183.49094307 -78.68037304 181.97138987 -87 178 C-88.485 177.01 -88.485 177.01 -90 176 C-90 175.34 -90 174.68 -90 174 C-90.59683594 173.75636719 -91.19367188 173.51273438 -91.80859375 173.26171875 C-98.09859151 169.64020489 -101.77875493 160.41645229 -103.62109375 153.75390625 C-110.20655601 123.91494966 -99.04372552 91.80006537 -83.1875 66.8125 C-82.13302899 65.20304424 -81.07187674 63.59791652 -80 62 C-79.34 61.01 -78.68 60.02 -78 59 C-77.34 59 -76.68 59 -76 59 C-75.67 57.68 -75.34 56.36 -75 55 C-74.34 55 -73.68 55 -73 55 C-72.938125 54.443125 -72.87625 53.88625 -72.8125 53.3125 C-71.66098245 50.03510391 -69.4965414 48.3804232 -67 46 C-66.278125 45.071875 -65.55625 44.14375 -64.8125 43.1875 C-64.214375 42.465625 -63.61625 41.74375 -63 41 C-62.34 41 -61.68 41 -61 41 C-61 40.34 -61 39.68 -61 39 C-51.44646123 30.08215297 -40.847278 23.15148003 -29.1015625 17.578125 C-26.43834797 16.22303852 -24.35036648 14.80906996 -22 13 C-20.16144804 11.9513049 -18.30615101 10.93157149 -16.4375 9.9375 C-13.51877355 8.38110991 -10.75474337 6.83649558 -8 5 C-7.01 5 -6.02 5 -5 5 C-5 4.34 -5 3.68 -5 3 C-1.42307692 0 -1.42307692 0 0 0 Z " fill="#F2F1F1" transform="translate(373,171)"/>
<path d="M0 0 C0.86625 0.6290625 1.7325 1.258125 2.625 1.90625 C2.625 2.56625 2.625 3.22625 2.625 3.90625 C4.275 4.56625 5.925 5.22625 7.625 5.90625 C7.625 6.56625 7.625 7.22625 7.625 7.90625 C8.223125 8.174375 8.82125 8.4425 9.4375 8.71875 C11.62347854 9.90542406 13.03832594 11.00224113 14.625 12.90625 C14.625 13.56625 14.625 14.22625 14.625 14.90625 C15.285 14.90625 15.945 14.90625 16.625 14.90625 C16.625 15.56625 16.625 16.22625 16.625 16.90625 C17.22183594 17.16792969 17.81867188 17.42960937 18.43359375 17.69921875 C23.54772621 20.51609385 26.7928153 25.94992678 29.625 30.90625 C30.55576187 32.30658542 31.49414138 33.70186945 32.4375 35.09375 C33.50119995 36.69712125 34.56369784 38.3012906 35.625 39.90625 C36.32109375 40.92912109 36.32109375 40.92912109 37.03125 41.97265625 C52.18520084 65.50337436 57.03781804 91.43313304 56.6875 118.90625 C56.65048354 122.3645533 56.6202763 125.82282241 56.59765625 129.28125 C56.59206696 130.1067334 56.58647766 130.9322168 56.58071899 131.78271484 C56.56330506 138.86143367 56.96476726 145.85598574 57.625 152.90625 C51.68785169 151.23380259 47.04991074 149.07763091 42.01171875 145.5078125 C39.44434771 143.78502669 36.80938488 142.38576372 34.0625 140.96875 C27.76372668 137.59819855 21.50278295 133.68723171 18.625 126.90625 C18.36671448 124.80433655 18.36671448 124.80433655 18.35375977 122.52758789 C18.33847984 121.23958031 18.33847984 121.23958031 18.32289124 119.92555237 C18.32075119 119.00265915 18.31861115 118.07976593 18.31640625 117.12890625 C18.29121835 115.15038803 18.26582079 113.17187248 18.24023438 111.19335938 C18.2116775 108.09335201 18.18765062 104.99339159 18.16870117 101.89331055 C18.01991305 81.50933718 15.93027485 65.27902338 2.625 48.90625 C2.026875 48.04 1.42875 47.17375 0.8125 46.28125 C-4.5711106 40.43618707 -12.51932565 35.34490565 -20.48828125 34.625 C-28.92834222 34.34514837 -28.92834222 34.34514837 -36.375 37.90625 C-37.77966953 39.95718145 -37.77966953 39.95718145 -38.375 41.90625 C-39.035 41.90625 -39.695 41.90625 -40.375 41.90625 C-41.1897952 48.42751126 -41.57156955 54.84202908 -41.69140625 61.41015625 C-41.71218735 62.3740477 -41.73296844 63.33793915 -41.75437927 64.33103943 C-41.81918896 67.37687818 -41.87843716 70.42279495 -41.9375 73.46875 C-41.98075062 75.54753376 -42.02436688 77.62630994 -42.06835938 79.70507812 C-42.17479888 84.7720577 -42.27625453 89.83911488 -42.375 94.90625 C-47.63366768 94.90625 -51.89658634 91.47036135 -56.375 88.90625 C-57.28894531 88.40351563 -58.20289063 87.90078125 -59.14453125 87.3828125 C-65.19479909 83.95402503 -70.08304193 80.78212422 -72.375 73.90625 C-72.47206755 72.29255604 -72.51314944 70.67518884 -72.52026367 69.05859375 C-72.52664352 68.0732666 -72.53302338 67.08793945 -72.53959656 66.07275391 C-72.54070938 65.00718262 -72.5418222 63.94161133 -72.54296875 62.84375 C-72.54629715 61.74208496 -72.54962555 60.64041992 -72.55305481 59.50537109 C-72.55812293 57.16846128 -72.56046317 54.83154421 -72.56030273 52.49462891 C-72.56247436 48.94811742 -72.58059022 45.40192456 -72.59960938 41.85546875 C-72.60254642 39.58073022 -72.60452913 37.30599023 -72.60546875 35.03125 C-72.61265427 33.98187256 -72.61983978 32.93249512 -72.62724304 31.85131836 C-72.59864837 22.45916072 -72.01117129 13.50224882 -66.875 5.40625 C-66.2665625 4.4265625 -65.658125 3.446875 -65.03125 2.4375 C-63.82113139 0.58807345 -62.60097097 -1.25479355 -61.375 -3.09375 C-60.715 -3.09375 -60.055 -3.09375 -59.375 -3.09375 C-59.045 -4.08375 -58.715 -5.07375 -58.375 -6.09375 C-40.28991778 -20.95880538 -17.24139669 -10.69605165 0 0 Z " fill="#F6F6F6" transform="translate(188.375,236.09375)"/>
<path d="M0 0 C1.17818063 0.72080179 2.35721397 1.44021172 3.53710938 2.15820312 C5.80866479 3.54055756 8.07655969 4.92826204 10.3425293 6.31982422 C13.03046372 7.94187189 15.73789781 9.49066109 18.4921875 10.99609375 C30.57124393 17.60721894 40.93244749 27.71017119 45.03515625 41.14453125 C47.1704438 51.98681658 44.14857163 60.06944109 38.4375 69.1875 C26.69131376 85.96417286 4.81255423 94.42464172 -14.5625 98.375 C-15.38105469 98.54209473 -16.19960937 98.70918945 -17.04296875 98.88134766 C-36.99520228 102.73143087 -57.71794489 102.39200848 -77.5625 98.1875 C-78.23216797 98.04828125 -78.90183594 97.9090625 -79.59179688 97.765625 C-94.16958679 94.61996803 -106.50021876 88.04677435 -119.08203125 80.3125 C-128.88858789 74.28752192 -139.25458113 69.28325914 -149.5625 64.1875 C-148.11426205 59.84278615 -144.79719403 58.65511948 -141 56.5 C-140.24001709 56.06518311 -139.48003418 55.63036621 -138.69702148 55.18237305 C-136.32578529 53.83799418 -133.94450018 52.51269036 -131.5625 51.1875 C-130.83321289 50.77113281 -130.10392578 50.35476562 -129.35253906 49.92578125 C-127.29096238 48.75531328 -125.21290216 47.62269438 -123.125 46.5 C-122.20642212 45.97369995 -122.20642212 45.97369995 -121.26928711 45.43676758 C-115.94901995 42.676084 -111.31892125 42.60693034 -105.5625 44.1875 C-101.36997314 46.05150747 -97.48549891 48.31557126 -93.5625 50.6875 C-92.00982422 51.59822266 -92.00982422 51.59822266 -90.42578125 52.52734375 C-88.52638938 53.64215022 -86.63131747 54.76437533 -84.7421875 55.89648438 C-83.37517814 56.70615569 -81.98356502 57.47696749 -80.5625 58.1875 C-80.5625 58.8475 -80.5625 59.5075 -80.5625 60.1875 C-79.72332031 60.36152344 -79.72332031 60.36152344 -78.8671875 60.5390625 C-76.27571812 61.26818778 -74.09357963 62.35580353 -71.6875 63.5625 C-56.67582034 70.45867774 -41.26506714 70.7816225 -25.5625 66.1875 C-22.52437456 64.96497288 -19.59847609 63.64341109 -16.671875 62.17578125 C-14.5625 61.1875 -14.5625 61.1875 -12.5625 61.1875 C-12.5625 60.5275 -12.5625 59.8675 -12.5625 59.1875 C-11.9025 59.1875 -11.2425 59.1875 -10.5625 59.1875 C-10.5625 58.5275 -10.5625 57.8675 -10.5625 57.1875 C-9.9025 57.1875 -9.2425 57.1875 -8.5625 57.1875 C-8.5625 56.5275 -8.5625 55.8675 -8.5625 55.1875 C-7.9025 55.1875 -7.2425 55.1875 -6.5625 55.1875 C-4.37307258 47.53355125 -3.51784813 40.93602843 -7.4375 33.75 C-9.48444725 31.03269628 -9.48444725 31.03269628 -12.5625 29.1875 C-12.5625 28.5275 -12.5625 27.8675 -12.5625 27.1875 C-13.8825 26.8575 -15.2025 26.5275 -16.5625 26.1875 C-16.5625 25.5275 -16.5625 24.8675 -16.5625 24.1875 C-17.66718628 24.01093872 -17.66718628 24.01093872 -18.79418945 23.83081055 C-21.55633665 23.18893226 -23.42751998 22.32969412 -25.85546875 20.89453125 C-26.64655029 20.43151611 -27.43763184 19.96850098 -28.25268555 19.49145508 C-29.07679932 18.9992749 -29.90091309 18.50709473 -30.75 18 C-31.59409424 17.50330811 -32.43818848 17.00661621 -33.30786133 16.49487305 C-35.73066997 15.06665919 -38.14754877 13.62895013 -40.5625 12.1875 C-41.17609375 11.82269531 -41.7896875 11.45789063 -42.421875 11.08203125 C-45.14344649 9.46362102 -47.85841891 7.83497357 -50.5625 6.1875 C-49.7578125 4.234375 -49.7578125 4.234375 -48.5625 2.1875 C-45.4375 1.4375 -45.4375 1.4375 -42.5625 1.1875 C-42.5625 0.5275 -42.5625 -0.1325 -42.5625 -0.8125 C-40.14868654 -2.13049019 -37.73172404 -3.44200918 -35.3125 -4.75 C-34.63058594 -5.12318359 -33.94867188 -5.49636719 -33.24609375 -5.88085938 C-32.25029297 -6.41743164 -32.25029297 -6.41743164 -31.234375 -6.96484375 C-30.32316895 -7.4597229 -30.32316895 -7.4597229 -29.39355469 -7.96459961 C-18.80031521 -12.8699757 -8.83628243 -5.5029881 0 0 Z " fill="#EDEDED" transform="translate(270.5625,107.8125)"/>
<path d="M0 0 C3.55778168 1.76536808 6.92675749 3.80229455 10.3125 5.875 C11.69018555 6.68904297 11.69018555 6.68904297 13.09570312 7.51953125 C19.87215076 11.61645229 19.87215076 11.61645229 21 15 C21.99 15.33 22.98 15.66 24 16 C27.17262881 21.52272423 27.89556567 26.69033279 27 33 C23.65960745 43.1007108 12.64624067 48.2245219 4.0625 53.125 C3.01642578 53.73214844 1.97035156 54.33929688 0.89257812 54.96484375 C-17.93668786 65.82924738 -17.93668786 65.82924738 -25.0625 64.375 C-29.9197597 62.10138908 -32.74856601 59.09657664 -34.8125 54.1875 C-38.20883179 43.68619826 -34.2421464 33.53409007 -29.8125 23.875 C-25.30201085 15.35364512 -18.73701698 7.74916879 -11 2 C-10.154375 1.360625 -9.30875 0.72125 -8.4375 0.0625 C-5.03457387 -1.42082677 -3.62404869 -0.96884523 0 0 Z " fill="#EEEEEE" transform="translate(346,241)"/>
<path d="M0 0 C5.72444812 2.55943389 10.63729654 6.822124 14.89453125 11.375 C14.89453125 12.035 14.89453125 12.695 14.89453125 13.375 C15.55453125 13.375 16.21453125 13.375 16.89453125 13.375 C20.33230405 17.06742263 22.45395838 21.19842793 24.51953125 25.75 C24.81859375 26.38421875 25.11765625 27.0184375 25.42578125 27.671875 C28.99745413 35.41576753 31.91464488 43.82746717 29.89453125 52.375 C27.12301071 55.69828778 23.69300091 57.38954224 19.89453125 59.375 C18.67421783 60.09149593 17.4568919 60.81309799 16.2421875 61.5390625 C9.52744337 65.45907227 2.93073923 69.2695414 -5.10546875 68.375 C-11.45688509 66.4695751 -16.55924484 63.24465956 -19.75244141 57.31835938 C-21.58315784 52.77715281 -21.53721037 48.37100653 -21.50390625 43.53125 C-21.50677643 42.60332642 -21.50964661 41.67540283 -21.51260376 40.71936035 C-21.51463652 38.76618842 -21.50916208 36.81299576 -21.49658203 34.85986328 C-21.48051719 31.88397349 -21.49645769 28.90944171 -21.515625 25.93359375 C-21.51364243 24.02864286 -21.50979847 22.12369281 -21.50390625 20.21875 C-21.50997894 19.33626587 -21.51605164 18.45378174 -21.52230835 17.54455566 C-21.46049778 12.06862618 -20.71403001 8.21980474 -18.10546875 3.375 C-12.88568246 -1.59016256 -6.7295598 -1.99764298 0 0 Z " fill="#F1F0F1" transform="translate(172.10546875,275.625)"/>
<path d="M0 0 C1.01501587 0.53040894 1.01501587 0.53040894 2.05053711 1.0715332 C32.09896364 16.98641477 32.09896364 16.98641477 35.96484375 24.66796875 C37.12453921 28.46540292 36.73986562 31.87385837 35.5625 35.625 C30.67390578 43.02772839 23.30051773 47.32524629 14.72314453 49.27929688 C0.28325505 51.58967919 -14.76051196 50.74406941 -27.73828125 43.87890625 C-30.05197505 41.85311722 -30.42530061 40.69527188 -30.95996094 37.61547852 C-31.1397539 33.8094277 -31.10683682 30.05863895 -31 26.25 C-30.99806641 24.94804687 -30.99613281 23.64609375 -30.99414062 22.3046875 C-30.80478426 8.55881786 -30.80478426 8.55881786 -25.7890625 2.69921875 C-17.25717591 -4.1533146 -9.82988183 -5.34951855 0 0 Z " fill="#ECECEC" transform="translate(225.4375,122.375)"/>
<path d="M0 0 C5.25355576 1.97008341 10.32983713 4.3861653 15.1328125 7.2890625 C19.31741974 9.7861442 23.59989835 12.09965159 27.875 14.4375 C33.6119964 17.57717085 39.33354162 20.73445246 45 24 C42.18185434 25.40907283 40.82722796 24.50872691 37.875 23.5625 C36.50988281 23.13130859 36.50988281 23.13130859 35.1171875 22.69140625 C34.41851562 22.46324219 33.71984375 22.23507813 33 22 C33.495 20.515 33.495 20.515 34 19 C32.02 18.34 30.04 17.68 28 17 C28 17.66 28 18.32 28 19 C26.35 19.66 24.7 20.32 23 21 C23.46798496 24.19789723 24.05429443 27.17457746 25.015625 30.265625 C27.81855093 40.89894719 26.17003498 51.00308578 22 61 C21.34 61 20.68 61 20 61 C20.20496094 60.34515625 20.40992188 59.6903125 20.62109375 59.015625 C23.65999893 48.72115196 25.0195391 39.40490863 22 29 C21.62069507 27.48023462 21.24548939 25.95943845 20.875 24.4375 C20.58625 23.303125 20.2975 22.16875 20 21 C19.34 21 18.68 21 18 21 C14 15.58823529 14 15.58823529 14 13 C13.34 13 12.68 13 12 13 C12 12.34 12 11.68 12 11 C11.34 11 10.68 11 10 11 C10 10.34 10 9.68 10 9 C9.34 9 8.68 9 8 9 C8 8.34 8 7.68 8 7 C7.01 7 6.02 7 5 7 C2.3125 4.625 2.3125 4.625 0 2 C0 1.34 0 0.68 0 0 Z " fill="#666465" transform="translate(296,115)"/>
<path d="M0 0 C0.8125 1.625 0.8125 1.625 1 4 C-0.19955993 5.55618585 -1.40984513 7.10840095 -2.72265625 8.5703125 C-8.66569323 15.22215206 -7.18487446 26.37560857 -7.23828125 34.70703125 C-7.246353 35.90937912 -7.25442474 37.11172699 -7.26274109 38.35050964 C-7.27651476 40.87941064 -7.28726665 43.40832969 -7.29516602 45.93725586 C-7.30676229 48.52975895 -7.32733216 51.1222368 -7.35668945 53.71459961 C-7.39910128 57.46224162 -7.41549089 61.20917997 -7.42578125 64.95703125 C-7.44328934 66.11950882 -7.46079742 67.28198639 -7.47883606 68.47969055 C-7.47591049 69.55478378 -7.47298492 70.62987701 -7.4699707 71.73754883 C-7.47583694 72.68382645 -7.48170319 73.63010406 -7.48774719 74.60505676 C-7.22496352 77.15444299 -7.22496352 77.15444299 -5.04875183 78.66093445 C-4.37266373 79.10282608 -3.69657562 79.54471771 -3 80 C-1.75 82.6875 -1.75 82.6875 -1 85 C-4.80489745 83.50521886 -6.66190835 81.30557786 -9 78 C-9.97302425 75.08092724 -10.13188772 73.19181153 -10.14526367 70.15234375 C-10.15164352 69.1670166 -10.15802338 68.18168945 -10.16459656 67.16650391 C-10.16570938 66.10093262 -10.1668222 65.03536133 -10.16796875 63.9375 C-10.17296135 62.28500244 -10.17296135 62.28500244 -10.17805481 60.59912109 C-10.18312293 58.26221128 -10.18546317 55.92529421 -10.18530273 53.58837891 C-10.18747436 50.04186742 -10.20559022 46.49567456 -10.22460938 42.94921875 C-10.22754642 40.67448022 -10.22952913 38.39974023 -10.23046875 36.125 C-10.23765427 35.07562256 -10.24483978 34.02624512 -10.25224304 32.94506836 C-10.2233754 23.46325352 -9.58450451 14.5199466 -4.4375 6.375 C-3.81746094 5.37210938 -3.19742188 4.36921875 -2.55859375 3.3359375 C-1 1 -1 1 0 0 Z " fill="#7F7E7E" transform="translate(126,235)"/>
<path d="M0 0 C2.78988809 2.78988809 3.42456862 6.05442671 4.5 9.75 C4.71269531 10.43449219 4.92539063 11.11898438 5.14453125 11.82421875 C9.1620832 25.45431832 9.24180844 38.93802979 9.0625 53 C9.02548354 56.4583033 8.9952763 59.91657241 8.97265625 63.375 C8.96706696 64.2004834 8.96147766 65.0259668 8.95571899 65.87646484 C8.93830506 72.95518367 9.33976726 79.94973574 10 87 C3.06640625 84.8515625 3.06640625 84.8515625 1 84 C0.67 83.34 0.34 82.68 0 82 C2.31 82.66 4.62 83.32 7 84 C6.90707184 76.24425938 6.79968727 68.4888119 6.68261719 60.73339844 C6.64451714 58.09932911 6.60963248 55.46521112 6.578125 52.83105469 C6.53206007 49.02781875 6.47413611 45.22491246 6.4140625 41.421875 C6.40251129 40.25887878 6.39096008 39.09588257 6.37905884 37.89764404 C6.20261491 27.94971202 5.03833854 18.39236743 1.875 8.9375 C0 3.2919708 0 3.2919708 0 0 Z " fill="#141414" transform="translate(236,302)"/>
<path d="M0 0 C1.41681634 0.31182069 2.83344651 0.62448737 4.25 0.9375 C5.43335938 1.19853516 5.43335938 1.19853516 6.640625 1.46484375 C8.06320989 1.78751615 9.47987776 2.14166869 10.87890625 2.5546875 C18.37833027 4.12915221 26.79050127 3.49448992 34.1328125 1.4375 C36 1 36 1 40 1 C40 1.66 40 2.32 40 3 C38.3046875 4.2265625 38.3046875 4.2265625 35.875 5.625 C34.97523438 6.14449219 34.07546875 6.66398437 33.1484375 7.19921875 C32.10945313 7.79347656 31.07046875 8.38773437 30 9 C28.76211026 9.73414386 27.52516904 10.46988889 26.2890625 11.20703125 C25.02634933 11.95104324 23.76333082 12.69453727 22.5 13.4375 C21.88882324 13.80375488 21.27764648 14.17000977 20.64794922 14.54736328 C19.13299235 15.42694715 17.56937011 16.22164305 16 17 C15.34 16.67 14.68 16.34 14 16 C15 13 15 13 16.9375 11.75 C17.618125 11.5025 18.29875 11.255 19 11 C19.66 11.33 20.32 11.66 21 12 C20.67 11.01 20.34 10.02 20 9 C20.99 8.34 21.98 7.68 23 7 C21.84242188 6.81824219 20.68484375 6.63648438 19.4921875 6.44921875 C17.95304092 6.19582267 16.41398298 5.94188781 14.875 5.6875 C14.11445313 5.56955078 13.35390625 5.45160156 12.5703125 5.33007812 C7.9004451 4.54505731 4.16835732 3.37716224 0 1 C0 0.67 0 0.34 0 0 Z " fill="#7E7C7D" transform="translate(284,354)"/>
<path d="M0 0 C0.66 0.33 1.32 0.66 2 1 C1.51202438 2.04386116 1.51202438 2.04386116 1.01419067 3.10881042 C-0.12319355 6.35119224 -0.2410251 8.82833875 -0.22705078 12.2590332 C-0.22689972 13.49994217 -0.22674866 14.74085114 -0.22659302 16.0193634 C-0.21638143 17.36317101 -0.20594946 18.70697695 -0.1953125 20.05078125 C-0.19157931 21.4336883 -0.18873378 22.81659802 -0.18673706 24.19950867 C-0.17912462 27.8278034 -0.15949691 31.45593637 -0.1373291 35.08416748 C-0.11681899 38.79111544 -0.10772433 42.4980897 -0.09765625 46.20507812 C-0.07624855 53.47012559 -0.04214175 60.73504007 0 68 C0.20061035 67.3093042 0.4012207 66.6186084 0.60791016 65.90698242 C0.87394043 65.00310791 1.1399707 64.0992334 1.4140625 63.16796875 C1.67654785 62.27102295 1.9390332 61.37407715 2.20947266 60.44995117 C3.12323597 57.61807506 4.28946002 55.43422998 6 53 C6.42925781 52.38898438 6.85851562 51.77796875 7.30078125 51.1484375 C8.52091358 49.42306727 9.75906906 47.71047237 11 46 C11.33 46.66 11.66 47.32 12 48 C11.14453125 49.92578125 11.14453125 49.92578125 9.8125 52.3125 C7.1007413 57.45135764 5.54132733 62.60288648 4.08984375 68.21484375 C2.8820125 71.30152362 1.80591189 72.32578646 -1 74 C-2.84022101 72.15977899 -2.13737089 69.18914262 -2.14526367 66.72363281 C-2.14862228 66.06827545 -2.1519809 65.41291809 -2.15544128 64.73770142 C-2.16498103 62.55949026 -2.16689624 60.38135579 -2.16796875 58.203125 C-2.17118046 56.69195524 -2.17454446 55.1807858 -2.17805481 53.6696167 C-2.1840545 50.49523193 -2.18589397 47.32087442 -2.18530273 44.14648438 C-2.18520134 40.0832978 -2.1988259 36.02028689 -2.21607494 31.95714188 C-2.22721038 28.83269452 -2.22922143 25.70828932 -2.22869301 22.58382416 C-2.22987186 21.0863459 -2.23428834 19.58886651 -2.24202538 18.09140778 C-2.25185163 15.99213006 -2.24893648 13.89322944 -2.24291992 11.79394531 C-2.24434494 10.60005188 -2.24576996 9.40615845 -2.24723816 8.17608643 C-2.00295943 5.03801762 -1.34142916 2.82689241 0 0 Z " fill="#272525" transform="translate(111,183)"/>
<path d="M0 0 C0 0.66 0 1.32 0 2 C-2.5 3.625 -2.5 3.625 -5 5 C-4.01 6.485 -4.01 6.485 -3 8 C-4.093125 7.95875 -5.18625 7.9175 -6.3125 7.875 C-10.08892229 7.67925334 -10.08892229 7.67925334 -13 10 C-12.01 10.99 -11.02 11.98 -10 13 C-10.99 13.66 -11.98 14.32 -13 15 C-11.02 15.66 -9.04 16.32 -7 17 C-7 17.66 -7 18.32 -7 19 C-5.35 19 -3.7 19 -2 19 C-1.67 20.65 -1.34 22.3 -1 24 C-5.6029598 22.27502493 -9.93255824 20.0904129 -14.3125 17.875 C-15.05306641 17.50246094 -15.79363281 17.12992188 -16.55664062 16.74609375 C-18.37201217 15.83255194 -20.18613282 14.91652513 -22 14 C-20.84292868 10.52878605 -20.30118332 10.29669595 -17.25390625 8.5546875 C-16.49916016 8.11769531 -15.74441406 7.68070313 -14.96679688 7.23046875 C-14.17337891 6.78316406 -13.37996094 6.33585938 -12.5625 5.875 C-11.37817383 5.19244141 -11.37817383 5.19244141 -10.16992188 4.49609375 C-2.34511777 0 -2.34511777 0 0 0 Z " fill="#C8C8C8" transform="translate(143,158)"/>
<path d="M0 0 C1.13955133 3.418654 0.70514218 5.50976797 0 9 C-0.20801828 12.3685123 -0.25620399 15.73928852 -0.31640625 19.11328125 C-0.33718735 20.08283249 -0.35796844 21.05238373 -0.37937927 22.05131531 C-0.44458941 25.13830707 -0.5036268 28.22538152 -0.5625 31.3125 C-0.60571237 33.40951364 -0.64932752 35.50651903 -0.69335938 37.60351562 C-0.80024151 42.73559307 -0.90158896 47.86775341 -1 53 C-4.10551666 53 -5.35261084 52.4606285 -8 51 C-6.68 50.34 -5.36 49.68 -4 49 C-3.98541748 47.87094238 -3.97083496 46.74188477 -3.95581055 45.57861328 C-3.8973788 41.34767638 -3.82015276 37.11724699 -3.73754883 32.88671875 C-3.70450893 31.06356101 -3.67641341 29.24030612 -3.65356445 27.41699219 C-3.40326983 7.96856768 -3.40326983 7.96856768 0 0 Z " fill="#4E4D4D" transform="translate(147,278)"/>
<path d="M0 0 C4.18670764 2.47144856 5.72857116 5.96205693 7.625 10.25 C8.07359375 11.21486328 8.07359375 11.21486328 8.53125 12.19921875 C12.05081334 19.93914344 15.10083162 28.48124322 13 37 C8.81512509 41.66960945 3.07684769 44.5607466 -3 46 C-3 45.34 -3 44.68 -3 44 C-3.66 43.67 -4.32 43.34 -5 43 C-1.62902617 41.50178941 0.20442119 41 4 41 C4 40.01 4 39.02 4 38 C6.97 37.505 6.97 37.505 10 37 C10.92842334 23.23870298 7.51115643 13.37403688 0 2 C0 1.34 0 0.68 0 0 Z " fill="#4E4C4D" transform="translate(189,291)"/>
<path d="M0 0 C2.76762547 1.52644805 5.39669131 3.20939935 8 5 C5 6 5 6 2 5 C1.525625 4.505 1.05125 4.01 0.5625 3.5 C-1.40538273 1.61083258 -2.24410742 1 -5 1 C-8.53078163 3.42741237 -10.9526478 5.71217193 -13.25 9.3125 C-13.8275 10.199375 -14.405 11.08625 -15 12 C-15.66 12 -16.32 12 -17 12 C-17 12.66 -17 13.32 -17 14 C-17.598125 14.061875 -18.19625 14.12375 -18.8125 14.1875 C-21.85754676 15.31851737 -22.44490515 17.24324095 -24 20 C-24.66 20 -25.32 20 -26 20 C-26 20.99 -26 21.98 -26 23 C-26.66 23 -27.32 23 -28 23 C-24.97591737 14.38827231 -18.21712169 7.40395319 -11 2 C-10.154375 1.360625 -9.30875 0.72125 -8.4375 0.0625 C-5.06465634 -1.4077139 -3.51166702 -1.10169946 0 0 Z " fill="#8E8D8E" transform="translate(346,241)"/>
<path d="M0 0 C0 3.64605591 -0.99115511 6.20488528 -2.25 9.625 C-2.87648438 11.37683594 -2.87648438 11.37683594 -3.515625 13.1640625 C-5 16 -5 16 -7.171875 16.8984375 C-7.77515625 16.93195313 -8.3784375 16.96546875 -9 17 C-9.1546875 18.3303125 -9.1546875 18.3303125 -9.3125 19.6875 C-10.03133527 23.150979 -11.18611125 25.00010707 -13 28 C-16.3601447 36.75623915 -18.54812255 45.96074515 -21 55 C-21.33 55 -21.66 55 -22 55 C-20.38750695 35.32758474 -11.48481985 15.90205825 0 0 Z " fill="#3A3939" transform="translate(292,235)"/>
<path d="M0 0 C6.32724142 2.37271553 12.25174601 5.46261293 18 9 C20.3271126 10.3444453 22.66370804 11.67152026 25 13 C21.79937313 14.60031344 19.27728194 13.03173691 16 12 C17.32 14.97 18.64 17.94 20 21 C19.34 21 18.68 21 18 21 C14 15.58823529 14 15.58823529 14 13 C13.34 13 12.68 13 12 13 C12 12.34 12 11.68 12 11 C11.34 11 10.68 11 10 11 C10 10.34 10 9.68 10 9 C9.34 9 8.68 9 8 9 C8 8.34 8 7.68 8 7 C7.01 7 6.02 7 5 7 C2.3125 4.625 2.3125 4.625 0 2 C0 1.34 0 0.68 0 0 Z " fill="#8A8889" transform="translate(296,115)"/>
<path d="M0 0 C1.9453125 1.0859375 1.9453125 1.0859375 4.8203125 3.0234375 C3.8303125 3.6834375 2.8403125 4.3434375 1.8203125 5.0234375 C1.8203125 4.3634375 1.8203125 3.7034375 1.8203125 3.0234375 C0.9540625 3.4875 0.9540625 3.4875 0.0703125 3.9609375 C-2.06339817 4.9685231 -3.8411779 5.71163622 -6.1796875 6.0234375 C-6.8396875 5.3634375 -7.4996875 4.7034375 -8.1796875 4.0234375 C-8.1796875 3.3634375 -8.1796875 2.7034375 -8.1796875 2.0234375 C-11.46664983 1.22390612 -12.88991942 0.92684814 -16.1796875 2.0234375 C-16.1796875 3.3434375 -16.1796875 4.6634375 -16.1796875 6.0234375 C-17.8296875 6.3534375 -19.4796875 6.6834375 -21.1796875 7.0234375 C-20.8496875 6.0334375 -20.5196875 5.0434375 -20.1796875 4.0234375 C-21.4996875 4.3534375 -22.8196875 4.6834375 -24.1796875 5.0234375 C-22.42328109 1.51062468 -18.70515854 0.53890016 -15.23046875 -0.984375 C-9.86115195 -2.73060607 -5.13637887 -2.30124502 0 0 Z " fill="#BCBABB" transform="translate(167.1796875,152.9765625)"/>
<path d="M0 0 C0 3.92823101 -1.51754449 5.06618894 -4 8 C-4.33 8.66 -4.66 9.32 -5 10 C-5.66 10 -6.32 10 -7 10 C-7.24492187 10.68449219 -7.48984375 11.36898437 -7.7421875 12.07421875 C-9.22754063 15.52927929 -11.12405162 18.6413857 -13.125 21.8125 C-13.49753906 22.40998047 -13.87007813 23.00746094 -14.25390625 23.62304688 C-15.1657048 25.08426251 -16.08235976 26.54244585 -17 28 C-18.44571275 25.1085745 -17.61370836 23.12991264 -17 20 C-16.814375 19.05125 -16.62875 18.1025 -16.4375 17.125 C-16.293125 16.42375 -16.14875 15.7225 -16 15 C-14.02 14.34 -12.04 13.68 -10 13 C-9.896875 11.88625 -9.79375 10.7725 -9.6875 9.625 C-9.460625 8.42875 -9.23375 7.2325 -9 6 C-8.01 5.34 -7.02 4.68 -6 4 C-5.34 3.01 -4.68 2.02 -4 1 C-1.875 0.3125 -1.875 0.3125 0 0 Z " fill="#9F9F9F" transform="translate(298,216)"/>
<path d="M0 0 C2.64 0 5.28 0 8 0 C8 0.66 8 1.32 8 2 C9.43725871 2.16873478 10.87481838 2.33490737 12.3125 2.5 C13.11300781 2.5928125 13.91351563 2.685625 14.73828125 2.78125 C17.11896555 3.04813463 17.11896555 3.04813463 20 3 C20.33 3 20.66 3 21 3 C21 5.31 21 7.62 21 10 C12.93644351 8.79046653 6.74422135 5.55320528 0 1 C0 0.67 0 0.34 0 0 Z " fill="#C6C5C5" transform="translate(222,376)"/>
<path d="M0 0 C2.54425853 1.2449341 5.08534361 2.49573888 7.625 3.75 C8.33785156 4.09804687 9.05070313 4.44609375 9.78515625 4.8046875 C14.08214456 6.9334707 18.15870526 9.11599953 22 12 C22 12.66 22 13.32 22 14 C23.65 14.66 25.3 15.32 27 16 C27 16.66 27 17.32 27 18 C27.598125 18.268125 28.19625 18.53625 28.8125 18.8125 C30.97224808 19.98493467 32.35790256 21.19369282 34 23 C33.67 23.66 33.34 24.32 33 25 C31.88625 23.7934375 31.88625 23.7934375 30.75 22.5625 C28.09917553 20.09241356 27.36990663 19.52654791 24 19 C22.3255761 18.3530635 20.65697379 17.69040574 19 17 C19 15.68 19 14.36 19 13 C17.68 13 16.36 13 15 13 C15 11.68 15 10.36 15 9 C14.28457031 8.72414062 13.56914062 8.44828125 12.83203125 8.1640625 C10.04261145 7.01751478 7.37709642 5.73772885 4.6875 4.375 C3.80449219 3.92898437 2.92148438 3.48296875 2.01171875 3.0234375 C1.34785156 2.68570313 0.68398437 2.34796875 0 2 C0 1.34 0 0.68 0 0 Z " fill="#6A6A6A" transform="translate(169,226)"/>
<path d="M0 0 C6.20621687 2.72108428 9.72283894 8.26496814 13 14 C14.58472427 16.3463747 16.18375283 18.68207527 17.79296875 21.01171875 C19 23 19 23 19 25 C18.34 25 17.68 25 17 25 C16.67 25.66 16.34 26.32 16 27 C14.93224776 25.03533587 13.93446535 23.03144641 13 21 C13.33 20.34 13.66 19.68 14 19 C12.71034824 17.62437146 11.37310707 16.29233607 10 15 C9.34 15 8.68 15 8 15 C8 15.66 8 16.32 8 17 C7.34 17 6.68 17 6 17 C6 16.34 6 15.68 6 15 C5.34 14.67 4.68 14.34 4 14 C4.66 14 5.32 14 6 14 C6.33 13.01 6.66 12.02 7 11 C4.98463473 7.0412468 2.77862859 3.47328574 0 0 Z " fill="#8D8C8C" transform="translate(205,253)"/>
<path d="M0 0 C0.33 0 0.66 0 1 0 C1.02505615 1.01723145 1.0501123 2.03446289 1.07592773 3.08251953 C1.17146168 6.92570563 1.27130026 10.76877077 1.37231445 14.61181641 C1.4151206 16.26217787 1.45682248 17.91256842 1.49731445 19.56298828 C1.74779772 29.73693811 2.15851283 39.85465902 3 50 C-3.93359375 47.8515625 -3.93359375 47.8515625 -6 47 C-6.33 46.34 -6.66 45.68 -7 45 C-4.69 45.66 -2.38 46.32 0 47 C0 31.49 0 15.98 0 0 Z " fill="#4D4C4D" transform="translate(243,339)"/>
<path d="M0 0 C-3.48453099 0.98618802 -5.4464958 0.71070084 -9 0 C-14.94134827 -0.41693672 -21.43183078 -0.32421349 -27 2 C-27.33 2.99 -27.66 3.98 -28 5 C-30.24508043 7.80635053 -32.61046988 8.89840271 -36 10 C-36.99 10 -37.98 10 -39 10 C-39 9.34 -39 8.68 -39 8 C-38.34 8 -37.68 8 -37 8 C-36.67 7.01 -36.34 6.02 -36 5 C-25.73176094 -3.43999162 -12.28155564 -3.85303706 0 0 Z " fill="#6C6C6C" transform="translate(166,225)"/>
<path d="M0 0 C1.64469981 4.93409943 1.26833769 10.02050966 1.3125 15.1875 C1.34150391 16.29931641 1.37050781 17.41113281 1.40039062 18.55664062 C1.44973268 24.96731286 1.29551171 30.88199685 -3 36 C-5.1394043 37.20776367 -5.1394043 37.20776367 -7 38 C-7 36.68 -7 35.36 -7 34 C-6.01 34 -5.02 34 -4 34 C-0.78685139 27.91947468 -0.63124881 22.86174336 -0.8125 16.0625 C-0.82603516 15.09248047 -0.83957031 14.12246094 -0.85351562 13.12304688 C-0.88861323 10.74810871 -0.93777725 8.37435622 -1 6 C-1.33 6.33 -1.66 6.66 -2 7 C-4.33297433 7.04092937 -6.66705225 7.04241723 -9 7 C-6.03716687 4.61327331 -3.05729491 2.2646629 0 0 Z " fill="#2B2A2B" transform="translate(372,286)"/>
<path d="M0 0 C0.07437576 5.44430582 0.12870866 10.88831329 0.16479492 16.33300781 C0.17984471 18.18364619 0.20028933 20.03424911 0.22631836 21.88476562 C0.2628698 24.55087045 0.27976454 27.21650208 0.29296875 29.8828125 C0.30845261 30.70492218 0.32393646 31.52703186 0.33988953 32.37405396 C0.34132648 37.32273581 -0.23862928 40.71591019 -3 45 C-3.99 45.495 -3.99 45.495 -5 46 C-5 43.36 -5 40.72 -5 38 C-3.68 38 -2.36 38 -1 38 C-1 26.78 -1 15.56 -1 4 C-2.32 4.33 -3.64 4.66 -5 5 C-5 4.34 -5 3.68 -5 3 C-1.42307692 0 -1.42307692 0 0 0 Z " fill="#727071" transform="translate(373,171)"/>
<path d="M0 0 C0 0.66 0 1.32 0 2 C-0.85980469 2.4228125 -1.71960938 2.845625 -2.60546875 3.28125 C-5.89142417 4.9450249 -9.10987581 6.68132425 -12.3125 8.5 C-13.36050781 9.0878125 -14.40851563 9.675625 -15.48828125 10.28125 C-18.27455251 11.81642075 -18.27455251 11.81642075 -19 15 C-19.66 15 -20.32 15 -21 15 C-21 15.66 -21 16.32 -21 17 C-24.33333333 17 -27.66666667 17 -31 17 C-26.25645726 13.96258162 -21.45474535 11.10246125 -16.51171875 8.40234375 C-12.45881288 6.13952383 -8.48580744 3.74054111 -4.50390625 1.35546875 C-2 0 -2 0 0 0 Z " fill="#5A5859" transform="translate(362,179)"/>
<path d="M0 0 C0.33 0 0.66 0 1 0 C1.33 2.97 1.66 5.94 2 9 C2.66 8.67 3.32 8.34 4 8 C4.33 10.31 4.66 12.62 5 15 C5.66 15 6.32 15 7 15 C7 15.99 7 16.98 7 18 C8.175625 18.0928125 8.175625 18.0928125 9.375 18.1875 C10.24125 18.455625 11.1075 18.72375 12 19 C13.3125 21.5625 13.3125 21.5625 14 24 C8.65478385 22.49665796 4.86491984 18.82879909 1 15 C-0.44207941 12.11584117 -0.09394887 9.58278472 -0.0625 6.375 C-0.05347656 5.18648438 -0.04445312 3.99796875 -0.03515625 2.7734375 C-0.02355469 1.85820312 -0.01195312 0.94296875 0 0 Z " fill="#C7C7C7" transform="translate(208,352)"/>
<path d="M0 0 C0.33 0.66 0.66 1.32 1 2 C0.14453125 3.92578125 0.14453125 3.92578125 -1.1875 6.3125 C-3.92300635 11.50996206 -5.55579194 16.75878168 -7.10546875 22.41015625 C-8 25 -8 25 -10 26 C-10.53016824 15.92680348 -6.31860461 9.3123102 -1 1 C-0.67 0.67 -0.34 0.34 0 0 Z " fill="#1D1C1C" transform="translate(122,229)"/>
<path d="M0 0 C2.64 0.33 5.28 0.66 8 1 C5.10256238 3.40111729 2.61778194 4.62128611 -1 5.625 C-1.845625 5.86476563 -2.69125 6.10453125 -3.5625 6.3515625 C-4.7690625 6.67253906 -4.7690625 6.67253906 -6 7 C-6.62777344 7.18949219 -7.25554687 7.37898438 -7.90234375 7.57421875 C-10.80525366 8.16345 -13.60284099 8.17066462 -16.5625 8.1875 C-17.69816406 8.20167969 -18.83382813 8.21585937 -20.00390625 8.23046875 C-23 8 -23 8 -26 6 C-25.18917969 6.02320313 -24.37835938 6.04640625 -23.54296875 6.0703125 C-12.588377 6.38695921 -12.588377 6.38695921 -2 4 C-0.65807402 2.0169404 -0.65807402 2.0169404 0 0 Z " fill="#313131" transform="translate(320,345)"/>
<path d="M0 0 C0.66 0 1.32 0 2 0 C6.29143049 6.61595535 5.52559309 13.37924759 4.4375 20.875 C2.44987754 25.1959184 0.02530713 26.54009009 -4 29 C-4.33 28.34 -4.66 27.68 -5 27 C-4.34 27 -3.68 27 -3 27 C-3 26.34 -3 25.68 -3 25 C-2.34 25 -1.68 25 -1 25 C-1 24.34 -1 23.68 -1 23 C-0.34 23 0.32 23 1 23 C3.29859987 14.96439879 3.72776812 7.70405412 0 0 Z " fill="#515051" transform="translate(263,140)"/>
<path d="M0 0 C0.1875 2.375 0.1875 2.375 0 5 C-3 7 -3 7 -5.0078125 6.609375 C-5.70648438 6.32578125 -6.40515625 6.0421875 -7.125 5.75 C-7.82882813 5.47671875 -8.53265625 5.2034375 -9.2578125 4.921875 C-11 4 -11 4 -12 2 C-11.443125 1.87625 -10.88625 1.7525 -10.3125 1.625 C-7.91529254 1.03879694 -7.91529254 1.03879694 -5.4375 -0.125 C-3 -1 -3 -1 0 0 Z " fill="#F6F4F5" transform="translate(144,322)"/>
<path d="M0 0 C-3.05099404 3.32366742 -6.23449516 5.54224226 -10.125 7.8125 C-11.17945313 8.43769531 -12.23390625 9.06289063 -13.3203125 9.70703125 C-14.64675781 10.34705078 -14.64675781 10.34705078 -16 11 C-16.66 10.67 -17.32 10.34 -18 10 C-17.01 9.67 -16.02 9.34 -15 9 C-14.26676204 6.98491642 -14.26676204 6.98491642 -14 5 C-13.030625 4.87625 -12.06125 4.7525 -11.0625 4.625 C-10.051875 4.41875 -9.04125 4.2125 -8 4 C-7.67 3.34 -7.34 2.68 -7 2 C-7.66 1.67 -8.32 1.34 -9 1 C-3.375 -1.125 -3.375 -1.125 0 0 Z " fill="#848384" transform="translate(365,324)"/>
<path d="M0 0 C1 3 1 3 2 6 C-1.222107 9.8665284 -4.14922412 10.88059018 -9 12 C-8.52575143 7.73176286 -6.04238597 5.82507269 -3 3 C-2.401875 2.401875 -1.80375 1.80375 -1.1875 1.1875 C-0.795625 0.795625 -0.40375 0.40375 0 0 Z " fill="#B5B5B5" transform="translate(309,214)"/>
<path d="M0 0 C1.8871875 0.061875 1.8871875 0.061875 3.8125 0.125 C3.4825 1.115 3.1525 2.105 2.8125 3.125 C3.8025 3.455 4.7925 3.785 5.8125 4.125 C5.8125 5.115 5.8125 6.105 5.8125 7.125 C0.95286821 6.51754603 -2.9280518 4.39741033 -7.1875 2.125 C-4.09861478 0.06574319 -3.47814073 -0.1140374 0 0 Z " fill="#BCBABB" transform="translate(170.1875,192.875)"/>
<path d="M0 0 C6.75 0.875 6.75 0.875 9 2 C8.67 3.32 8.34 4.64 8 6 C7.01 6 6.02 6 5 6 C4.67 6.99 4.34 7.98 4 9 C0 3.375 0 3.375 0 0 Z " fill="#F0EEEF" transform="translate(312,127)"/>
<path d="M0 0 C3.59391114 1.33488128 6.75490696 2.96022723 10 5 C7.61426621 6.89213369 5.92824652 8.02391783 3 9 C2.67 8.34 2.34 7.68 2 7 C-0.01669827 5.86649466 -0.01669827 5.86649466 -2 5 C-1.34 4.34 -0.68 3.68 0 3 C0 2.01 0 1.02 0 0 Z " fill="#B7B4B5" transform="translate(354,247)"/>
<path d="M0 0 C0 0.66 0 1.32 0 2 C-1.175625 2.12375 -1.175625 2.12375 -2.375 2.25 C-5.11631339 2.70995268 -5.11631339 2.70995268 -6.125 4.875 C-6.558125 5.926875 -6.558125 5.926875 -7 7 C-8.625 8.75 -8.625 8.75 -10 10 C-10 9.34 -10 8.68 -10 8 C-11.093125 8.515625 -12.18625 9.03125 -13.3125 9.5625 C-17 11 -17 11 -20 10 C-17.04550087 8.3264663 -14.0857982 6.66236015 -11.125 5 C-10.28324219 4.52304687 -9.44148438 4.04609375 -8.57421875 3.5546875 C-7.76855469 3.10351562 -6.96289062 2.65234375 -6.1328125 2.1875 C-5.38918457 1.76855469 -4.64555664 1.34960938 -3.87939453 0.91796875 C-2 0 -2 0 0 0 Z " fill="#727172" transform="translate(354,298)"/>
<path d="M0 0 C0.33 0.66 0.66 1.32 1 2 C1.66 2 2.32 2 3 2 C2.42365861 6.75481646 0.44931479 9.97048212 -2 14 C-2.33 14 -2.66 14 -3 14 C-3.15569823 4.81380417 -3.15569823 4.81380417 -2 1 C-1.34 0.67 -0.68 0.34 0 0 Z " fill="#A2A0A1" transform="translate(277,242)"/>
<path d="M0 0 C-0.65902299 3.57040303 -2.16229158 6.17732255 -4.0625 9.25 C-4.61035156 10.14203125 -5.15820312 11.0340625 -5.72265625 11.953125 C-6.14417969 12.62859375 -6.56570313 13.3040625 -7 14 C-8.44571275 11.1085745 -7.61370836 9.12991264 -7 6 C-6.855625 5.071875 -6.71125 4.14375 -6.5625 3.1875 C-6.376875 2.465625 -6.19125 1.74375 -6 1 C-4 0 -4 0 0 0 Z " fill="#939393" transform="translate(288,230)"/>
<path d="M0 0 C0 0.66 0 1.32 0 2 C-2.5 3.625 -2.5 3.625 -5 5 C-4.01 6.485 -4.01 6.485 -3 8 C-3.59167969 7.97679687 -4.18335938 7.95359375 -4.79296875 7.9296875 C-9.33801959 7.82588536 -12.85940059 7.86291643 -17 10 C-14.07647233 6.81321628 -11.18387159 4.78276705 -7.375 2.75 C-6.41335937 2.22921875 -5.45171875 1.7084375 -4.4609375 1.171875 C-2 0 -2 0 0 0 Z " fill="#858485" transform="translate(143,158)"/>
<path d="M0 0 C6.54580357 2.92838581 11.60263609 8.77149949 15 15 C14.67 15.99 14.34 16.98 14 18 C14 17.34 14 16.68 14 16 C10.95086772 14.98888907 10.95086772 14.98888907 8 16 C8.25652344 15.10925781 8.51304687 14.21851563 8.77734375 13.30078125 C9.36394103 9.9207974 9.36394103 9.9207974 7.12890625 7.48046875 C6.28199219 6.72378906 5.43507813 5.96710938 4.5625 5.1875 C3.03684363 3.79693992 1.51469331 2.40249381 0 1 C0 0.67 0 0.34 0 0 Z " fill="#5F5D5E" transform="translate(297,125)"/>
<path d="M0 0 C3.57757693 4.19440054 7 8.30488053 7 14 C6.01 14.33 5.02 14.66 4 15 C3.67 14.01 3.34 13.02 3 12 C2.34 12 1.68 12 1 12 C1.020625 11.13375 1.04125 10.2675 1.0625 9.375 C1.00261044 6.14096352 0.60419067 3.17200103 0 0 Z " fill="#969596" transform="translate(226,281)"/>
<path d="M0 0 C0.33 0 0.66 0 1 0 C1.04254356 1.99954746 1.04080783 4.00041636 1 6 C0.67 6.33 0.34 6.66 0 7 C-0.15825258 8.99782126 -0.25119171 11.00088834 -0.31640625 13.00390625 C-0.35830078 14.21884766 -0.40019531 15.43378906 -0.44335938 16.68554688 C-0.48267578 17.96494141 -0.52199219 19.24433594 -0.5625 20.5625 C-0.60568359 21.84576172 -0.64886719 23.12902344 -0.69335938 24.45117188 C-0.799848 27.63399853 -0.90185962 30.81690674 -1 34 C-1.33 34 -1.66 34 -2 34 C-2.04962653 29.96154588 -2.08582632 25.92321113 -2.10986328 21.88452148 C-2.11988926 20.51209417 -2.13351356 19.13968805 -2.15087891 17.76733398 C-2.17527627 15.78899473 -2.18544484 13.81049633 -2.1953125 11.83203125 C-2.20578613 10.64327393 -2.21625977 9.4545166 -2.22705078 8.22973633 C-2.00370033 5.05263614 -1.36116639 2.85656545 0 0 Z " fill="#605E5F" transform="translate(197,129)"/>
<path d="M0 0 C1.32 0.66 2.64 1.32 4 2 C-0.56626665 5.50080443 -5.37090965 6.18355729 -11 6 C-13.6202481 5.27060469 -15.58979492 4.30989407 -18 3 C-17.34 2.67 -16.68 2.34 -16 2 C-15.01 2.33 -14.02 2.66 -13 3 C-10.77181559 3.06937062 -8.54165476 3.08457084 -6.3125 3.0625 C-5.13300781 3.05347656 -3.95351562 3.04445313 -2.73828125 3.03515625 C-1.83464844 3.02355469 -0.93101562 3.01195312 0 3 C0 2.01 0 1.02 0 0 Z " fill="#5E5C5D" transform="translate(178,338)"/>
<path d="M0 0 C5.94 0.99 5.94 0.99 12 2 C12.33 2.99 12.66 3.98 13 5 C14.65 5 16.3 5 18 5 C18.33 6.65 18.66 8.3 19 10 C14.75707468 8.39369175 10.72974893 6.4231838 6.6875 4.375 C6.04232422 4.05015625 5.39714844 3.7253125 4.73242188 3.390625 C3.15402459 2.59558044 1.57688306 1.79804366 0 1 C0 0.67 0 0.34 0 0 Z " fill="#6A6A6A" transform="translate(123,172)"/>
<path d="M0 0 C0 0.33 0 0.66 0 1 C-1.093125 1.309375 -2.18625 1.61875 -3.3125 1.9375 C-5.55407994 2.58337897 -7.7869351 3.2623117 -10 4 C-10 5.32 -10 6.64 -10 8 C-11.65 8.33 -13.3 8.66 -15 9 C-14.67 8.01 -14.34 7.02 -14 6 C-15.32 6.33 -16.64 6.66 -18 7 C-16.57011007 4.14022014 -14.68812859 3.7022132 -11.8125 2.375 C-10.87019531 1.92898437 -9.92789063 1.48296875 -8.95703125 1.0234375 C-5.78516868 -0.07435377 -3.33129021 -0.1875393 0 0 Z " fill="#939192" transform="translate(161,151)"/>
<path d="M0 0 C6.26418531 1.48362284 10.91513505 5.24162156 16 9 C15.67 9.66 15.34 10.32 15 11 C12.25 10.875 12.25 10.875 9 10 C7.59886384 8.04690112 6.26660533 6.04291182 5 4 C2.38142305 2.21037181 2.38142305 2.21037181 0 1 C0 0.67 0 0.34 0 0 Z " fill="#817F80" transform="translate(242,133)"/>
<path d="M0 0 C0 3.66113117 -1.02529178 6.20003889 -2.3125 9.625 C-2.74175781 10.79289063 -3.17101562 11.96078125 -3.61328125 13.1640625 C-4.07089844 14.09992188 -4.52851563 15.03578125 -5 16 C-5.99 16.33 -6.98 16.66 -8 17 C-7.68028731 10.92545895 -4.32686711 4.32686711 0 0 Z " fill="#717070" transform="translate(292,235)"/>
<path d="M0 0 C4.10801767 1.18676066 5.89448334 1.89448334 9 5 C4.545 4.01 4.545 4.01 0 3 C0 2.01 0 1.02 0 0 Z M-4 2 C-2.140625 2.21484375 -2.140625 2.21484375 0 3 C1.265625 5.06640625 1.265625 5.06640625 2.25 7.5625 C2.58515625 8.38878906 2.9203125 9.21507812 3.265625 10.06640625 C3.50796875 10.70449219 3.7503125 11.34257812 4 12 C3.34 12 2.68 12 2 12 C-2 6.58823529 -2 6.58823529 -2 4 C-2.66 4 -3.32 4 -4 4 C-4 3.34 -4 2.68 -4 2 Z " fill="#646164" transform="translate(312,124)"/>
<path d="M0 0 C0.66 0.33 1.32 0.66 2 1 C1.01 1.66 0.02 2.32 -1 3 C-1 3.66 -1 4.32 -1 5 C1.24883311 6.59395916 1.24883311 6.59395916 4 8.125 C5.3921875 8.93324219 5.3921875 8.93324219 6.8125 9.7578125 C7.534375 10.16773437 8.25625 10.57765625 9 11 C8.01 11.495 8.01 11.495 7 12 C4.3984375 10.78515625 4.3984375 10.78515625 1.375 9.0625 C0.37210938 8.49660156 -0.63078125 7.93070312 -1.6640625 7.34765625 C-2.43492187 6.90292969 -3.20578125 6.45820312 -4 6 C-4 4.68 -4 3.36 -4 2 C-2.125 0.9375 -2.125 0.9375 0 0 Z " fill="#242224" transform="translate(225,109)"/>
<path d="M0 0 C0.556875 0.350625 1.11375 0.70125 1.6875 1.0625 C4.53886783 2.21845993 6.08517222 1.80967438 9 1 C9 2.98 9 4.96 9 7 C9.99 7 10.98 7 12 7 C12.33 8.98 12.66 10.96 13 13 C8.16371342 9.06348767 3.48834201 5.23251302 0 0 Z " fill="#7F7F7F" transform="translate(182,275)"/>
<path d="M0 0 C3.06090103 3.06090103 3.15633509 5.79256701 3.1875 9.9375 C3.20167969 10.79214844 3.21585937 11.64679688 3.23046875 12.52734375 C2.98703556 15.13909303 2.3178268 16.75500652 1 19 C0.34 17.68 -0.32 16.36 -1 15 C-0.34 14.67 0.32 14.34 1 14 C0.67 9.38 0.34 4.76 0 0 Z " fill="#686666" transform="translate(370,259)"/>
<path d="M0 0 C0.63671875 1.83984375 0.63671875 1.83984375 1 4 C-0.17463283 5.37599845 -1.35738177 6.74614314 -2.5859375 8.07421875 C-5.38175183 11.88177804 -6.5787234 16.53766788 -8 21 C-9.58326003 16.52780445 -8.03409578 13.74305822 -6.2578125 9.55078125 C-4.51968567 6.02594641 -2.41973871 3.09188835 0 0 Z " fill="#565556" transform="translate(126,235)"/>
<path d="M0 0 C4.06787318 1.39833141 7.45200597 3.45397616 11.03515625 5.78125 C12.9746601 6.98428221 14.94439291 8.01111106 17 9 C14.45297384 10.27351308 13.5717055 9.80191925 10.875 9.0625 C10.15054688 8.86785156 9.42609375 8.67320312 8.6796875 8.47265625 C8.12539062 8.31667969 7.57109375 8.16070312 7 8 C7 7.34 7 6.68 7 6 C6.030625 5.7525 5.06125 5.505 4.0625 5.25 C3.051875 4.8375 2.04125 4.425 1 4 C0.125 1.875 0.125 1.875 0 0 Z " fill="#6C6C6C" transform="translate(128,181)"/>
<path d="M0 0 C4 5 4 5 3.734375 7.89453125 C3.40953125 8.85746094 3.0846875 9.82039062 2.75 10.8125 C2.43546875 11.78832031 2.1209375 12.76414063 1.796875 13.76953125 C1.40242188 14.87361328 1.40242188 14.87361328 1 16 C0.67 16 0.34 16 0 16 C0 10.72 0 5.44 0 0 Z " fill="#F8F7F8" transform="translate(111,234)"/>
<path d="M0 0 C2.475 0.99 2.475 0.99 5 2 C2.76136124 5.53469279 0.90705182 6.63253186 -3 8 C-3.99 8.66 -4.98 9.32 -6 10 C-4.34832443 6.4213696 -2.21713508 3.25179812 0 0 Z " fill="#969696" transform="translate(314,177)"/>
<path d="M0 0 C0 0.66 0 1.32 0 2 C-0.99 2 -1.98 2 -3 2 C-3 3.65 -3 5.3 -3 7 C-6.28696233 7.79953138 -7.71023192 8.09658936 -11 7 C-9.87720538 6.01830524 -8.75168527 5.03972702 -7.625 4.0625 C-6.68527344 3.24458984 -6.68527344 3.24458984 -5.7265625 2.41015625 C-3.71547429 0.76761588 -2.62199195 0 0 0 Z " fill="#939192" transform="translate(331,197)"/>
<path d="M0 0 C-0.33 0.99 -0.66 1.98 -1 3 C-1.66 3 -2.32 3 -3 3 C-3 3.66 -3 4.32 -3 5 C-6.33333333 5 -9.66666667 5 -13 5 C-4.738041 -0.74031891 -4.738041 -0.74031891 0 0 Z " fill="#A0A0A0" transform="translate(344,191)"/>
<path d="M0 0 C0.66 0.33 1.32 0.66 2 1 C1.67 2.65 1.34 4.3 1 6 C0.07767578 6.09087891 0.07767578 6.09087891 -0.86328125 6.18359375 C-1.67152344 6.26738281 -2.47976562 6.35117188 -3.3125 6.4375 C-4.11300781 6.51871094 -4.91351563 6.59992188 -5.73828125 6.68359375 C-8.16087179 6.95265693 -8.16087179 6.95265693 -11 8 C-11 7.34 -11 6.68 -11 6 C-9.21385682 4.96953278 -7.42089982 3.95086764 -5.625 2.9375 C-4.62726563 2.36902344 -3.62953125 1.80054687 -2.6015625 1.21484375 C-1.74304688 0.81394531 -0.88453125 0.41304688 0 0 Z " fill="#7B7979" transform="translate(239,101)"/>
<path d="M0 0 C1.32 0 2.64 0 4 0 C4 0.66 4 1.32 4 2 C2.3203125 3.32421875 2.3203125 3.32421875 0.125 4.6875 C-0.59429687 5.14511719 -1.31359375 5.60273438 -2.0546875 6.07421875 C-2.69664062 6.37972656 -3.33859375 6.68523437 -4 7 C-6 6 -6 6 -8 3 C-5.36 2.67 -2.72 2.34 0 2 C0 1.34 0 0.68 0 0 Z " fill="#969394" transform="translate(320,355)"/>
<path d="M0 0 C0.556875 0.474375 1.11375 0.94875 1.6875 1.4375 C3.90571482 3.18164247 3.90571482 3.18164247 6.625 3.375 C7.800625 3.684375 7.800625 3.684375 9 4 C10.3125 6.5625 10.3125 6.5625 11 9 C8.00667261 8.0022242 7.05233685 7.2477975 5 5 C5 5.66 5 6.32 5 7 C5.66 7.33 6.32 7.66 7 8 C6.34 8.66 5.68 9.32 5 10 C4.16121545 8.71186658 3.32913217 7.41936744 2.5 6.125 C2.0359375 5.40570313 1.571875 4.68640625 1.09375 3.9453125 C0 2 0 2 0 0 Z " fill="#9E9E9E" transform="translate(195,288)"/>
<path d="M0 0 C4.76560621 1.40164889 7.95882443 4.15411474 11 8 C11 8.66 11 9.32 11 10 C11.66 10 12.32 10 13 10 C13 10.66 13 11.32 13 12 C12.01 12.33 11.02 12.66 10 13 C9.7525 12.2575 9.505 11.515 9.25 10.75 C7.8864843 7.75026545 6.54127785 6.07922733 4 4 C3.01 4 2.02 4 1 4 C0.67 2.68 0.34 1.36 0 0 Z " fill="#656565" transform="translate(176,279)"/>
<path d="M0 0 C0.66 0 1.32 0 2 0 C2 0.99 2 1.98 2 3 C2.78375 3.061875 3.5675 3.12375 4.375 3.1875 C5.24125 3.455625 6.1075 3.72375 7 4 C8.3125 6.5625 8.3125 6.5625 9 9 C4.40693504 7.5140084 1.56430755 5.14985318 -2 2 C-1.34 1.34 -0.68 0.68 0 0 Z " fill="#8B898A" transform="translate(213,367)"/>
<path d="M0 0 C6.29613338 1.84277075 11.32145154 4.32145154 16 9 C10.06 7.515 10.06 7.515 4 6 C4.33 5.01 4.66 4.02 5 3 C2.525 2.01 2.525 2.01 0 1 C0 0.67 0 0.34 0 0 Z " fill="#727070" transform="translate(325,131)"/>
<path d="M0 0 C0.99 0.33 1.98 0.66 3 1 C4.25 7.625 4.25 7.625 2 11 C1.01 7.7 0.02 4.4 -1 1 C-0.67 0.67 -0.34 0.34 0 0 Z " fill="#E3E1E2" transform="translate(274,328)"/>
<path d="M0 0 C0.33 0.66 0.66 1.32 1 2 C0.18789963 3.91423658 -0.52072017 5.52072017 -2 7 C-4.33297433 7.04092937 -6.66705225 7.04241723 -9 7 C-6.03716687 4.61327331 -3.05729491 2.2646629 0 0 Z " fill="#989697" transform="translate(372,286)"/>
<path d="M0 0 C-2.36595933 2.61500768 -4.86049226 4.38999603 -8 6 C-8.66 5.67 -9.32 5.34 -10 5 C-9.01 4.01 -8.02 3.02 -7 2 C-7.33 1.34 -7.66 0.68 -8 0 C-4.71023192 -1.09658936 -3.28696233 -0.79953138 0 0 Z " fill="#969596" transform="translate(282,380)"/>
<path d="M0 0 C1.98 0.495 1.98 0.495 4 1 C4 1.66 4 2.32 4 3 C4.99 2.67 5.98 2.34 7 2 C8.32 3.65 9.64 5.3 11 7 C9.56068883 6.54738642 8.12361001 6.08767021 6.6875 5.625 C5.88699219 5.36976563 5.08648437 5.11453125 4.26171875 4.8515625 C2 4 2 4 -1 2 C-0.67 1.34 -0.34 0.68 0 0 Z " fill="#848484" transform="translate(169,218)"/>
<path d="M0 0 C-0.33 0.99 -0.66 1.98 -1 3 C-4.0625 4.1875 -4.0625 4.1875 -7 5 C-7 4.34 -7 3.68 -7 3 C-7.66 2.67 -8.32 2.34 -9 2 C-5.62902617 0.50178941 -3.79557881 0 0 0 Z " fill="#9B9B9B" transform="translate(193,332)"/>
<path d="M0 0 C0.33 0 0.66 0 1 0 C1.33 3.63 1.66 7.26 2 11 C2.33 11 2.66 11 3 11 C3 12.65 3 14.3 3 16 C2.01 16 1.02 16 0 16 C0 10.72 0 5.44 0 0 Z " fill="#313131" transform="translate(109,240)"/>
<path d="M0 0 C0.66 0.33 1.32 0.66 2 1 C1.38125 1.2475 0.7625 1.495 0.125 1.75 C-2.16137472 2.81105913 -2.16137472 2.81105913 -2.875 5.0625 C-3.24625 5.701875 -3.6175 6.34125 -4 7 C-7.125 7.75 -7.125 7.75 -10 8 C-6.97727468 4.74475735 -3.74281699 2.38179263 0 0 Z " fill="#5B5B5B" transform="translate(300,192)"/>
<path d="M0 0 C0 1.32 0 2.64 0 4 C-2.35171131 3.40138258 -4.6859378 2.73075648 -7 2 C-7.33 1.34 -7.66 0.68 -8 0 C-4.71023192 -1.09658936 -3.28696233 -0.79953138 0 0 Z " fill="#A3A0A2" transform="translate(171,194)"/>
<path d="M0 0 C0.33 0 0.66 0 1 0 C1.66 4.95 2.32 9.9 3 15 C2.01 14.67 1.02 14.34 0 14 C0 9.38 0 4.76 0 0 Z " fill="#E0DFDF" transform="translate(312,280)"/>
<path d="M0 0 C0 0.99 0 1.98 0 3 C-3 5.1875 -3 5.1875 -6 7 C-6.33 5.35 -6.66 3.7 -7 2 C-4.69 1.34 -2.38 0.68 0 0 Z " fill="#939192" transform="translate(328,240)"/>
<path d="M0 0 C0.66 0.33 1.32 0.66 2 1 C2 2.32 2 3.64 2 5 C-0.31 6.32 -2.62 7.64 -5 9 C-4.34 7.35 -3.68 5.7 -3 4 C-2.34 4 -1.68 4 -1 4 C-0.67 2.68 -0.34 1.36 0 0 Z " fill="#828282" transform="translate(298,226)"/>
<path d="M0 0 C1.32 0 2.64 0 4 0 C3.6875 2.875 3.6875 2.875 3 6 C2.01 6.66 1.02 7.32 0 8 C0 5.36 0 2.72 0 0 Z " fill="#979697" transform="translate(368,209)"/>
<path d="M0 0 C0.66 0.66 1.32 1.32 2 2 C-0.75 8.875 -0.75 8.875 -3 10 C-4 7 -4 7 -3.22265625 5.17578125 C-2.1484375 3.45052083 -1.07421875 1.72526042 0 0 Z " fill="#C2C1C1" transform="translate(309,169)"/>
<path d="M0 0 C1.9609375 0.234375 1.9609375 0.234375 4.375 0.75 C5.56222656 0.98976563 5.56222656 0.98976563 6.7734375 1.234375 C9.22084966 2.07594129 10.33944448 3.05018642 12 5 C6.25 3.125 6.25 3.125 4 2 C4 2.66 4 3.32 4 4 C3.34 4 2.68 4 2 4 C2 3.34 2 2.68 2 2 C1.01 1.67 0.02 1.34 -1 1 C-0.67 0.67 -0.34 0.34 0 0 Z " fill="#A6A4A5" transform="translate(223,124)"/>
<path d="M0 0 C3.45925163 1.2491742 6.14693203 2.67527795 9 5 C7.02 5.33 5.04 5.66 3 6 C0 2.25 0 2.25 0 0 Z " fill="#E7E5E6" transform="translate(256,102)"/>
<path d="M0 0 C0.763125 0.20625 1.52625 0.4125 2.3125 0.625 C-2.83035714 5.05357143 -2.83035714 5.05357143 -6.6875 5.625 C-6.375 3.75 -6.375 3.75 -5.6875 1.625 C-2.6875 -0.375 -2.6875 -0.375 0 0 Z " fill="#8F8E8F" transform="translate(304.6875,365.375)"/>
<path d="M0 0 C5.78930308 3.44894652 5.78930308 3.44894652 6.8125 6.125 C6.874375 6.74375 6.93625 7.3625 7 8 C7.33 8.66 7.66 9.32 8 10 C4.20401451 8.50871999 2.28279601 6.34266559 0 3 C0 2.01 0 1.02 0 0 Z " fill="#757374" transform="translate(117,310)"/>
<path d="M0 0 C-2.97 2.475 -2.97 2.475 -6 5 C-6.66 4.67 -7.32 4.34 -8 4 C-5.97675095 -0.48005146 -4.79569304 -1.43870791 0 0 Z " fill="#989898" transform="translate(368,282)"/>
<path d="M0 0 C0.33 0.66 0.66 1.32 1 2 C-0.3125 4.625 -0.3125 4.625 -2 7 C-2.66 7 -3.32 7 -4 7 C-4 7.99 -4 8.98 -4 10 C-4.66 10 -5.32 10 -6 10 C-4.6302836 6.00499382 -2.74277578 3.19990508 0 0 Z " fill="#848484" transform="translate(324,254)"/>
<path d="M0 0 C-0.66 1.65 -1.32 3.3 -2 5 C-4.46800047 3.84826645 -6.04783565 2.95216435 -8 1 C-3.375 -1.125 -3.375 -1.125 0 0 Z " fill="#B4B4B4" transform="translate(192,226)"/>
<path d="M0 0 C2.64 0.33 5.28 0.66 8 1 C5.64031256 3.09749995 4.45383006 3.96905704 1.25 4.1875 C0.13625 4.0946875 0.13625 4.0946875 -1 4 C-0.67 2.68 -0.34 1.36 0 0 Z " fill="#929292" transform="translate(320,345)"/>
<path d="M0 0 C-1.8125 2 -1.8125 2 -4 4 C-4.99 4 -5.98 4 -7 4 C-7 3.34 -7 2.68 -7 2 C-7.66 1.67 -8.32 1.34 -9 1 C-3.375 -1.125 -3.375 -1.125 0 0 Z " fill="#B6B4B5" transform="translate(365,324)"/>
<path d="M0 0 C0.75 1.625 0.75 1.625 1 4 C-0.75 7.25 -0.75 7.25 -3 10 C-3.99 10 -4.98 10 -6 10 C-6 9.01 -6 8.02 -6 7 C-5.01 7 -4.02 7 -3 7 C-2.01 4.69 -1.02 2.38 0 0 Z " fill="#767475" transform="translate(371,313)"/>
<path d="M0 0 C1.32 0.33 2.64 0.66 4 1 C1.69 3.31 -0.62 5.62 -3 8 C-3 4.42424104 -1.91159393 2.94704065 0 0 Z " fill="#7B7B7B" transform="translate(309,202)"/>
<path d="M0 0 C-1 2 -1 2 -4.0625 3.125 C-5.5165625 3.558125 -5.5165625 3.558125 -7 4 C-7.33 2.68 -7.66 1.36 -8 0 C-5.13822943 -1.43088528 -3.06624227 -0.59991697 0 0 Z " fill="#A5A3A4" transform="translate(347,180)"/>
<path d="M0 0 C3 2 3 2 3.6875 4.125 C3.790625 4.74375 3.89375 5.3625 4 6 C2.33333333 6 0.66666667 6 -1 6 C-1.33 5.01 -1.66 4.02 -2 3 C-1.34 2.01 -0.68 1.02 0 0 Z " fill="#F2F2F2" transform="translate(196,282)"/>
<path d="M0 0 C1.5 1.375 1.5 1.375 3 3 C3 3.66 3 4.32 3 5 C4.45833358 6.62514468 4.45833358 6.62514468 6 8 C2.66272214 6.82744291 0.22562513 5.81131596 -2 3 C-2 2.34 -2 1.68 -2 1 C-1.34 0.67 -0.68 0.34 0 0 Z " fill="#9F9F9F" transform="translate(174,266)"/>
<path d="M0 0 C2.475 0.99 2.475 0.99 5 2 C4.67 2.99 4.34 3.98 4 5 C2.35 4.67 0.7 4.34 -1 4 C-0.67 2.68 -0.34 1.36 0 0 Z " fill="#EEEEEE" transform="translate(179,233)"/>
<path d="M0 0 C0.66 0.33 1.32 0.66 2 1 C1.34 2.98 0.68 4.96 0 7 C-1.32 6.34 -2.64 5.68 -4 5 C-3 2 -3 2 0 0 Z " fill="#E7E5E6" transform="translate(227,109)"/>
<path d="M0 0 C2.8125 -0.25 2.8125 -0.25 6 0 C7.875 2 7.875 2 9 4 C3.46153846 3.38461538 3.46153846 3.38461538 1.125 1.4375 C0.75375 0.963125 0.3825 0.48875 0 0 Z " fill="#6B6B6B" transform="translate(285,347)"/>
<path d="M0 0 C0.66 0.33 1.32 0.66 2 1 C1.979375 1.94875 1.95875 2.8975 1.9375 3.875 C1.77448174 6.90666283 1.77448174 6.90666283 3 9 C2.01 8.67 1.02 8.34 0 8 C-0.38063221 5.6739143 -0.71269945 3.33944736 -1 1 C-0.67 0.67 -0.34 0.34 0 0 Z " fill="#C9C8C9" transform="translate(125,313)"/>
<path d="M0 0 C0.66 0 1.32 0 2 0 C2.66 2.31 3.32 4.62 4 7 C3.01 7.495 3.01 7.495 2 8 C1.67 6.35 1.34 4.7 1 3 C0.01 2.67 -0.98 2.34 -2 2 C-1.34 1.34 -0.68 0.68 0 0 Z " fill="#E1E0E0" transform="translate(240,132)"/>
<path d="M0 0 C0 1.32 0 2.64 0 4 C-2.02045442 3.39816251 -4.02111039 2.72693904 -6 2 C-6.33 1.34 -6.66 0.68 -7 0 C-3.98968256 -0.93423645 -3.13349732 -1.04449911 0 0 Z " fill="#949394" transform="translate(139,324)"/>
<path d="M0 0 C1.88391785 3.26545761 2.49287967 6.28111761 3 10 C2.01 10 1.02 10 0 10 C-0.5625 8.0625 -0.5625 8.0625 -1 6 C-0.67 5.67 -0.34 5.34 0 5 C0.04063832 3.33382885 0.042721 1.66611905 0 0 Z " fill="#E2E2E2" transform="translate(237,308)"/>
<path d="M0 0 C0.99 0 1.98 0 3 0 C2.67 2.31 2.34 4.62 2 7 C1.34 7 0.68 7 0 7 C-0.38133299 5.0085944 -0.71325582 3.00720923 -1 1 C-0.67 0.67 -0.34 0.34 0 0 Z " fill="#ECEBEC" transform="translate(261,285)"/>
<path d="M0 0 C0.33 0.66 0.66 1.32 1 2 C1.66 2 2.32 2 3 2 C2.67 3.32 2.34 4.64 2 6 C0.68 5.67 -0.64 5.34 -2 5 C-1.34 3.35 -0.68 1.7 0 0 Z " fill="#B1B1B1" transform="translate(148,272)"/>
<path d="M0 0 C0.66 0 1.32 0 2 0 C2.6875 2.3125 2.6875 2.3125 3 5 C1.5625 6.8125 1.5625 6.8125 0 8 C0 5.36 0 2.72 0 0 Z " fill="#8B898A" transform="translate(274,248)"/>
<path d="M0 0 C0.66 0.33 1.32 0.66 2 1 C2 1.66 2 2.32 2 3 C1.34 3 0.68 3 0 3 C0 3.99 0 4.98 0 6 C-1.98 6.99 -1.98 6.99 -4 8 C-2.87548273 5.0280615 -1.77706209 2.66559313 0 0 Z " fill="#DFDFDF" transform="translate(294,234)"/>
<path d="M0 0 C0.66 0 1.32 0 2 0 C2 0.66 2 1.32 2 2 C2.66 2.66 3.32 3.32 4 4 C2.35 4.66 0.7 5.32 -1 6 C-1.33 5.01 -1.66 4.02 -2 3 C-1.34 2.01 -0.68 1.02 0 0 Z " fill="#ADADAD" transform="translate(291,186)"/>
<path d="M0 0 C4.875 1.75 4.875 1.75 6 4 C4.02 4 2.04 4 0 4 C0 2.68 0 1.36 0 0 Z M-2 4 C-1.34 4 -0.68 4 0 4 C0 4.66 0 5.32 0 6 C-0.66 6 -1.32 6 -2 6 C-2 5.34 -2 4.68 -2 4 Z " fill="#989697" transform="translate(291,121)"/>
<path d="M0 0 C0.66 0.33 1.32 0.66 2 1 C1.01 1.66 0.02 2.32 -1 3 C-1 3.99 -1 4.98 -1 6 C-2.32 5.67 -3.64 5.34 -5 5 C-4.1875 3.0625 -4.1875 3.0625 -3 1 C-2.01 0.67 -1.02 0.34 0 0 Z " fill="#424041" transform="translate(225,109)"/>
<path d="M0 0 C2.7972908 2.06756277 3.02692273 3.14440371 3.6875 6.6875 C3.790625 7.780625 3.89375 8.87375 4 10 C3.34 10 2.68 10 2 10 C0.68373308 6.38026598 0 3.90432869 0 0 Z " fill="#8E8D8D" transform="translate(226,281)"/>
<path d="M0 0 C1.32 1.32 2.64 2.64 4 4 C2.35 4.33 0.7 4.66 -1 5 C-1.33 3.68 -1.66 2.36 -2 1 C-1.34 0.67 -0.68 0.34 0 0 Z " fill="#EFEDEE" transform="translate(215,267)"/>
<path d="M0 0 C0.33 0 0.66 0 1 0 C0.74438677 2.3431213 0.40729228 4.67843403 0 7 C-0.99 7.495 -0.99 7.495 -2 8 C-2.125 5.125 -2.125 5.125 -2 2 C-1.34 1.34 -0.68 0.68 0 0 Z " fill="#110B10" transform="translate(114,247)"/>
<path d="M0 0 C2 2 2 2 2.125 4.625 C2.08375 5.40875 2.0425 6.1925 2 7 C0.68 7.33 -0.64 7.66 -2 8 C-1.34 5.36 -0.68 2.72 0 0 Z " fill="#313030" transform="translate(114,241)"/>
<path d="M0 0 C3.71888239 0.50712033 6.73454239 1.11608215 10 3 C7.45297384 4.27351308 6.5717055 3.80191925 3.875 3.0625 C3.15054688 2.86785156 2.42609375 2.67320312 1.6796875 2.47265625 C1.12539062 2.31667969 0.57109375 2.16070312 0 2 C0 1.34 0 0.68 0 0 Z " fill="#979797" transform="translate(135,187)"/>
<path d="M0 0 C2.475 0.99 2.475 0.99 5 2 C4.67 2.99 4.34 3.98 4 5 C3.01 5 2.02 5 1 5 C1 4.01 1 3.02 1 2 C0.34 1.67 -0.32 1.34 -1 1 C-0.67 0.67 -0.34 0.34 0 0 Z " fill="#E6E6E6" transform="translate(259,168)"/>
<path d="M0 0 C0.33 1.32 0.66 2.64 1 4 C-0.65 4.66 -2.3 5.32 -4 6 C-3.6875 4.125 -3.6875 4.125 -3 2 C-2.01 1.34 -1.02 0.68 0 0 Z " fill="#F0EDEE" transform="translate(252,160)"/>
<path d="M0 0 C2.02045442 0.60183749 4.02111039 1.27306096 6 2 C6.33 2.66 6.66 3.32 7 4 C3.62537285 3.45276317 1.91765 2.9451 -1 1 C-0.67 0.67 -0.34 0.34 0 0 Z M-3 2 C-1 3 -1 3 -1 3 Z " fill="#FCFBFC" transform="translate(154,153)"/>
</svg>
